<?xml version="1.0" encoding="iso-8859-1"?>
<!-- Generator: Adobe Illustrator 19.0.0, SVG Export Plug-In . SVG Version: 6.00 Build 0)  -->
<svg version="1.1" id="Capa_1" xmlns="http://www.w3.org/2000/svg" xmlns:xlink="http://www.w3.org/1999/xlink" x="0px" y="0px"
	 viewBox="0 0 409.6 409.6" style="enable-background:new 0 0 409.6 409.6;" xml:space="preserve">
<path style="fill:#FCD462;" d="M363.119,409.6H58.623c-6.741,0-12.205-5.464-12.205-12.205V12.205C46.418,5.464,51.883,0,58.623,0
	h304.496V409.6z"/>
<rect x="203.361" style="fill:#F6C358;" width="159.744" height="409.6"/>
<rect x="90.675" style="fill:#DC8744;" width="19.896" height="409.6"/>
<polygon style="fill:#E56353;" points="363.182,31.361 286.731,31.361 309.771,51.259 286.731,69.063 363.182,69.063 "/>
<path style="fill:#64798A;" d="M263.857,222.718c3.543,0,6.66-2.823,9.36-8.468c2.684-5.645,4.034-12.739,4.034-21.273
	c0-18.507-5.318-33.832-15.955-45.982c-10.628-12.142-24.881-18.213-42.734-18.213c-17.853,0-32.883,6.365-45.09,19.105
	c-12.215,12.731-18.319,27.99-18.319,45.777c0,17.795,5.744,32.596,17.231,44.411c11.487,11.815,25.699,17.722,42.635,17.722
	c13.263,0,24.946-4.86,35.051-14.572l8.075,13.983c-5.253,4.59-11.945,8.305-20.086,11.127c-8.141,2.823-15.824,4.23-23.04,4.23
	c-21.927,0-40.271-7.315-55.039-21.952c-14.768-14.637-22.156-32.956-22.156-54.949c0-21.985,7.781-40.762,23.335-56.315
	c15.562-15.562,34.298-23.335,56.225-23.335s40.238,7.478,54.941,22.451c14.703,14.965,22.058,33.603,22.058,55.923
	c0,14.441-2.986,26.026-8.959,34.756c-5.981,8.73-13.819,13.099-23.531,13.099c-4.991,0-9.556-1.514-13.688-4.533
	c-4.14-3.019-6.995-6.824-8.566-11.422c-7.225,9.327-16.38,13.983-27.475,13.983c-11.095,0-20.741-4.197-28.947-12.6
	c-8.206-8.403-12.305-19.072-12.305-32.007c0-12.927,3.706-23.825,11.127-32.686c7.413-8.861,17.157-13.295,29.242-13.295
	c4.066,0,7.945,0.892,11.618,2.659c3.674,1.775,6.3,3.518,7.879,5.22l2.561,2.561v-8.075h24.611v62.82
	C257.95,219.437,259.922,222.718,263.857,222.718z M233.536,192.977c0-6.562-1.743-12.011-5.22-16.339
	c-3.477-4.336-8.043-6.505-13.688-6.505c-5.645,0-10.137,2.168-13.492,6.505c-3.346,4.328-5.015,9.679-5.015,16.045
	c0,6.374,1.669,11.913,5.015,16.642c3.355,4.729,7.912,7.085,13.688,7.085s10.342-2.258,13.688-6.791
	C231.858,205.086,233.536,199.547,233.536,192.977z"/>
<g>
</g>
<g>
</g>
<g>
</g>
<g>
</g>
<g>
</g>
<g>
</g>
<g>
</g>
<g>
</g>
<g>
</g>
<g>
</g>
<g>
</g>
<g>
</g>
<g>
</g>
<g>
</g>
<g>
</g>
</svg>
