<?xml version="1.0" encoding="iso-8859-1"?>
<!-- Generator: Adobe Illustrator 18.1.1, SVG Export Plug-In . SVG Version: 6.00 Build 0)  -->
<svg version="1.1" id="Capa_1" xmlns="http://www.w3.org/2000/svg" xmlns:xlink="http://www.w3.org/1999/xlink" x="0px" y="0px"
	 viewBox="0 0 402.779 402.779" style="enable-background:new 0 0 402.779 402.779;" xml:space="preserve">
<g>
	<g>
		<path style="fill:#010002;" d="M55.734,217.682H271.48c9.007,0,16.328-7.326,16.328-16.317c0-9.007-7.321-16.328-16.328-16.328
			H55.74l31.46-31.449c6.337-6.364,6.337-16.709-0.033-23.105c-3.089-3.062-7.18-4.754-11.531-4.754s-8.447,1.692-11.542,4.775
			L4.879,189.725c-1.539,1.507-2.763,3.301-3.677,5.493C0.408,197.204,0,199.276,0,201.36c0,2.099,0.402,4.172,1.246,6.239
			c0.843,2.061,2.072,3.873,3.535,5.298l59.302,59.318c3.079,3.089,7.18,4.781,11.542,4.781c4.351,0,8.452-1.697,11.563-4.792
			c6.32-6.353,6.331-16.693-0.016-23.083L55.734,217.682z"/>
		<path style="fill:#010002;" d="M348.388,55.239H164.874c-29.986,0-54.38,24.405-54.38,54.396l0.022,48.332
			c0.201,8.79,7.511,15.947,16.301,15.947c5.336,0,10.117-2.633,13.103-6.663l3.22-0.049v-57.562
			c0-11.993,9.752-21.751,21.734-21.751h183.514c11.982,0,21.74,9.758,21.74,21.751v183.503c0,11.993-9.758,21.751-21.74,21.751
			H164.874c-11.982,0-21.734-9.758-21.734-21.751l-0.038-57.714h-3.182c-2.953-4.003-7.702-6.57-13.103-6.57
			c-8.887,0-16.051,6.984-16.323,16.328v47.956c0,29.991,24.394,54.396,54.38,54.396h183.514c29.991,0,54.391-24.405,54.391-54.396
			V109.641C402.779,79.644,378.379,55.239,348.388,55.239z"/>
	</g>
</g>
<g>
</g>
<g>
</g>
<g>
</g>
<g>
</g>
<g>
</g>
<g>
</g>
<g>
</g>
<g>
</g>
<g>
</g>
<g>
</g>
<g>
</g>
<g>
</g>
<g>
</g>
<g>
</g>
<g>
</g>
</svg>
