<?xml version="1.0" encoding="iso-8859-1"?>
<!-- Generator: Adobe Illustrator 18.0.0, SVG Export Plug-In . SVG Version: 6.00 Build 0)  -->
<!DOCTYPE svg PUBLIC "-//W3C//DTD SVG 1.1//EN" "http://www.w3.org/Graphics/SVG/1.1/DTD/svg11.dtd">
<svg version="1.1" id="Capa_1" xmlns="http://www.w3.org/2000/svg" xmlns:xlink="http://www.w3.org/1999/xlink" x="0px" y="0px"
	 viewBox="0 0 60 60" style="enable-background:new 0 0 60 60;" xml:space="preserve">
<g>
	<rect x="1" y="0.5" style="fill:#556080;" width="58" height="6"/>
	<rect x="3" y="6.5" style="fill:#ECF0F1;" width="54" height="42"/>
	<path style="fill:#D1D4D1;" d="M50,42.5H35c-0.552,0-1-0.447-1-1s0.448-1,1-1h15c0.552,0,1,0.447,1,1S50.552,42.5,50,42.5z"/>
	<path style="fill:#D1D4D1;" d="M20,35.5H10c-0.552,0-1-0.447-1-1s0.448-1,1-1h10c0.552,0,1,0.447,1,1S20.552,35.5,20,35.5z"/>
	<path style="fill:#D1D4D1;" d="M45,35.5H30c-0.552,0-1-0.447-1-1s0.448-1,1-1h15c0.552,0,1,0.447,1,1S45.552,35.5,45,35.5z"/>
	<path style="fill:#D1D4D1;" d="M25,35.5c-0.26,0-0.52-0.11-0.71-0.29C24.11,35.02,24,34.76,24,34.5c0-0.271,0.11-0.521,0.29-0.71
		c0.37-0.37,1.05-0.37,1.42,0C25.89,33.979,26,34.24,26,34.5s-0.11,0.52-0.29,0.71C25.52,35.39,25.26,35.5,25,35.5z"/>
	<path style="fill:#D1D4D1;" d="M30,42.5H15c-0.552,0-1-0.447-1-1s0.448-1,1-1h15c0.552,0,1,0.447,1,1S30.552,42.5,30,42.5z"/>
	<path style="fill:#D1D4D1;" d="M10,42.5c-0.26,0-0.52-0.11-0.71-0.29C9.11,42.02,9,41.76,9,41.5s0.11-0.521,0.29-0.71
		c0.38-0.37,1.05-0.37,1.42,0.01c0.18,0.18,0.29,0.44,0.29,0.7s-0.11,0.52-0.29,0.71C10.52,42.39,10.26,42.5,10,42.5z"/>
	<path style="fill:#D1D4D1;" d="M50,35.5c-0.26,0-0.52-0.11-0.71-0.29C49.11,35.02,49,34.76,49,34.5c0-0.271,0.11-0.521,0.29-0.71
		c0.38-0.37,1.05-0.37,1.42,0C50.89,33.979,51,34.24,51,34.5s-0.11,0.52-0.29,0.71C50.52,35.39,50.26,35.5,50,35.5z"/>
	<path style="fill:#D1D4D1;" d="M50,21.5H35c-0.552,0-1-0.447-1-1s0.448-1,1-1h15c0.552,0,1,0.447,1,1S50.552,21.5,50,21.5z"/>
	<path style="fill:#D1D4D1;" d="M50,28.5H40c-0.552,0-1-0.447-1-1s0.448-1,1-1h10c0.552,0,1,0.447,1,1S50.552,28.5,50,28.5z"/>
	<path style="fill:#D1D4D1;" d="M32,28.5h-2c-0.552,0-1-0.447-1-1s0.448-1,1-1h2c0.552,0,1,0.447,1,1S32.552,28.5,32,28.5z"/>
	<path style="fill:#D1D4D1;" d="M45,14.5H30c-0.552,0-1-0.447-1-1s0.448-1,1-1h15c0.552,0,1,0.447,1,1S45.552,14.5,45,14.5z"/>
	<path style="fill:#D1D4D1;" d="M50,14.5c-0.26,0-0.52-0.11-0.71-0.29C49.11,14.02,49,13.76,49,13.5s0.11-0.521,0.29-0.71
		c0.37-0.37,1.04-0.37,1.42,0C50.9,12.979,51,13.24,51,13.5s-0.1,0.52-0.29,0.71C50.52,14.39,50.26,14.5,50,14.5z"/>
	<path style="fill:#D1D4D1;" d="M31,21.5c-0.26,0-0.52-0.11-0.71-0.29C30.11,21.02,30,20.76,30,20.5c0-0.271,0.11-0.521,0.29-0.71
		c0.38-0.37,1.04-0.37,1.42,0C31.89,19.979,32,20.229,32,20.5c0,0.26-0.11,0.52-0.29,0.71C31.52,21.39,31.26,21.5,31,21.5z"/>
	<path style="fill:#D1D4D1;" d="M36,28.5c-0.26,0-0.52-0.11-0.71-0.29C35.11,28.02,35,27.76,35,27.5s0.11-0.521,0.29-0.71
		c0.37-0.37,1.05-0.37,1.42,0C36.89,26.979,37,27.24,37,27.5s-0.11,0.52-0.29,0.71C36.52,28.39,36.26,28.5,36,28.5z"/>
	<rect x="9" y="12.5" style="fill:#8697CB;" width="14" height="14"/>
	<path style="fill:#556080;" d="M59,49.5H1c-0.552,0-1-0.447-1-1s0.448-1,1-1h58c0.552,0,1,0.447,1,1S59.552,49.5,59,49.5z"/>
	<path style="fill:#556080;" d="M30,52.5c-0.552,0-1-0.447-1-1v-3c0-0.553,0.448-1,1-1s1,0.447,1,1v3C31,52.053,30.552,52.5,30,52.5
		z"/>
	<path style="fill:#556080;" d="M30,59.5c-2.206,0-4-1.794-4-4s1.794-4,4-4s4,1.794,4,4S32.206,59.5,30,59.5z M30,53.5
		c-1.103,0-2,0.897-2,2s0.897,2,2,2s2-0.897,2-2S31.103,53.5,30,53.5z"/>
</g>
<g>
</g>
<g>
</g>
<g>
</g>
<g>
</g>
<g>
</g>
<g>
</g>
<g>
</g>
<g>
</g>
<g>
</g>
<g>
</g>
<g>
</g>
<g>
</g>
<g>
</g>
<g>
</g>
<g>
</g>
</svg>
