<?xml version="1.0" encoding="iso-8859-1"?>
<!-- Generator: Adobe Illustrator 19.0.0, SVG Export Plug-In . SVG Version: 6.00 Build 0)  -->
<svg version="1.1" id="Capa_1" xmlns="http://www.w3.org/2000/svg" xmlns:xlink="http://www.w3.org/1999/xlink" x="0px" y="0px"
	 viewBox="0 0 359.391 359.391" style="enable-background:new 0 0 359.391 359.391;" xml:space="preserve">
<g id="XMLID_924_">
	<circle id="XMLID_925_" style="fill:#FFEB99;" cx="199.477" cy="200.592" r="60.209"/>
	<path id="XMLID_926_" style="fill:#00D7DF;" d="M199.478,275.801c-41.47,0-75.209-33.738-75.209-75.209
		s33.739-75.209,75.209-75.209s75.208,33.738,75.208,75.209S240.948,275.801,199.478,275.801z M199.478,155.383
		c-24.928,0-45.209,20.28-45.209,45.209s20.281,45.209,45.209,45.209s45.208-20.28,45.208-45.209S224.406,155.383,199.478,155.383z"
		/>
	<g id="XMLID_929_">
		<rect id="XMLID_930_" x="184.756" y="42.614" style="fill:#00D7DF;" width="30" height="88.601"/>
	</g>
	<g id="XMLID_931_">
		
			<rect id="XMLID_932_" x="235.881" y="269.054" transform="matrix(0.7071 0.7071 -0.7071 0.7071 284.5384 -118.8323)" style="fill:#00969B;" width="99.664" height="30"/>
	</g>
	<g id="XMLID_933_">
		<rect id="XMLID_934_" x="32.583" y="186.428" style="fill:#00D7DF;" width="96.96" height="30"/>
	</g>
	<path id="XMLID_935_" style="fill:#FFDA44;" d="M198.92,3.344c-21.192,0-38.434,17.241-38.434,38.435s17.242,38.435,38.434,38.435
		c21.193,0,38.435-17.241,38.435-38.435S220.113,3.344,198.92,3.344z"/>
	<path id="XMLID_936_" style="fill:#FFDA44;" d="M38.435,163.829C17.242,163.829,0,181.07,0,202.264s17.242,38.435,38.435,38.435
		s38.435-17.241,38.435-38.435S59.627,163.829,38.435,163.829z"/>
	<path id="XMLID_937_" style="fill:#FFCD00;" d="M320.956,279.178c-21.193,0-38.435,17.241-38.435,38.435
		s17.242,38.435,38.435,38.435s38.435-17.241,38.435-38.435S342.149,279.178,320.956,279.178z"/>
	<path id="XMLID_938_" style="fill:#FFE477;" d="M199.695,140.389v120.407c33.152-0.119,59.991-27.024,59.991-60.204
		S232.847,140.507,199.695,140.389z"/>
	<path id="XMLID_939_" style="fill:#00969B;" d="M199.695,125.388v30c24.828,0.119,44.991,20.348,44.991,45.204
		s-20.163,45.085-44.991,45.204v30c41.37-0.119,74.991-33.806,74.991-75.204S241.065,125.507,199.695,125.388z"/>
	<rect id="XMLID_940_" x="199.695" y="42.614" style="fill:#00969B;" width="15.061" height="88.601"/>
	<path id="XMLID_941_" style="fill:#FFCD00;" d="M199.695,3.363v76.83c20.835-0.416,37.659-17.481,37.659-38.415
		S220.53,3.779,199.695,3.363z"/>
</g>
<g>
</g>
<g>
</g>
<g>
</g>
<g>
</g>
<g>
</g>
<g>
</g>
<g>
</g>
<g>
</g>
<g>
</g>
<g>
</g>
<g>
</g>
<g>
</g>
<g>
</g>
<g>
</g>
<g>
</g>
</svg>
