<?xml version="1.0" encoding="iso-8859-1"?>
<!-- Generator: Adobe Illustrator 18.0.0, SVG Export Plug-In . SVG Version: 6.00 Build 0)  -->
<!DOCTYPE svg PUBLIC "-//W3C//DTD SVG 1.1//EN" "http://www.w3.org/Graphics/SVG/1.1/DTD/svg11.dtd">
<svg version="1.1" id="Capa_1" xmlns="http://www.w3.org/2000/svg" xmlns:xlink="http://www.w3.org/1999/xlink" x="0px" y="0px"
	 viewBox="0 0 435.06 435.06" style="enable-background:new 0 0 435.06 435.06;" xml:space="preserve">
<g>
	<rect x="109.375" y="68.35" style="fill:#FCF4DE;" width="216.32" height="298.36"/>
	<polygon style="fill:#88C9B3;" points="179.425,78.25 119.375,182.19 119.375,78.25 	"/>
	<polygon style="fill:#88C9B3;" points="315.695,78.25 315.695,253.72 256.245,356.61 119.375,356.61 119.375,247.45 217.125,78.25 
			"/>
	<path style="fill:#E77200;" d="M352.085,21.98v391.11c0,12.13-9.84,21.97-21.98,21.97h-225.15c-12.14,0-21.98-9.84-21.98-21.97
		V21.98c0-12.14,9.84-21.98,21.98-21.98h225.15C342.245,0,352.085,9.84,352.085,21.98z M325.695,366.71v-130.3V68.35h-102.85h-37.7
		h-75.77V199.5v65.26v101.95h141.04H325.695z M229.145,399.1c0-6.42-5.2-11.62-11.61-11.62c-6.42,0-11.62,5.2-11.62,11.62
		c0,6.41,5.2,11.61,11.62,11.61C223.945,410.71,229.145,405.51,229.145,399.1z"/>
	<path style="fill:#7C6655;" d="M217.535,387.48c6.41,0,11.61,5.2,11.61,11.62c0,6.41-5.2,11.61-11.61,11.61
		c-6.42,0-11.62-5.2-11.62-11.61C205.915,392.68,211.115,387.48,217.535,387.48z"/>
	<path style="fill:#7C6655;" d="M244.455,42.34h-53.846c-4.142,0-7.5-3.358-7.5-7.5s3.358-7.5,7.5-7.5h53.846
		c4.143,0,7.5,3.358,7.5,7.5S248.598,42.34,244.455,42.34z"/>
</g>
<g>
</g>
<g>
</g>
<g>
</g>
<g>
</g>
<g>
</g>
<g>
</g>
<g>
</g>
<g>
</g>
<g>
</g>
<g>
</g>
<g>
</g>
<g>
</g>
<g>
</g>
<g>
</g>
<g>
</g>
</svg>
