<?xml version="1.0" standalone="no"?>
<!DOCTYPE svg PUBLIC "-//W3C//DTD SVG 1.1//EN" "http://www.w3.org/Graphics/SVG/1.1/DTD/svg11.dtd" >
<svg xmlns="http://www.w3.org/2000/svg">
<metadata></metadata>
<defs>
<font id="nanumbarungothiclightregular" horiz-adv-x="892" >
<font-face units-per-em="1000" ascent="800" descent="-200" />
<missing-glyph horiz-adv-x="224" />
<glyph unicode=" "  horiz-adv-x="224" />
<glyph unicode="&#x09;" horiz-adv-x="224" />
<glyph unicode="&#xa0;" horiz-adv-x="224" />
<glyph unicode="!" horiz-adv-x="446" d="M170 182l-11 554h67l-15 -554h-41zM244 6q0 -22 -15 -37t-37 -15t-37 15t-15 37t15 37t37 15t37 -15t15 -37z" />
<glyph unicode="&#x22;" horiz-adv-x="297" d="M81 567l-21 230h67l-8 -230h-38zM178 567l-8 230h67l-21 -230h-38z" />
<glyph unicode="#" horiz-adv-x="583" d="M186 530l24 180h53l-24 -180h145l24 180h53l-24 -180h122l-7 -41h-119l-34 -232h122l-8 -41h-120l-34 -244h-53l34 244h-150l-33 -244h-53l33 244h-114l8 41h113l34 232h-112l6 41h114zM385 490h-157l-36 -235h157z" />
<glyph unicode="$" horiz-adv-x="583" d="M327 -15v-111h-49v108h-3q-138 0 -208 67v56q0 6 4.5 7.5t8.5 -3.5q77 -84 197 -84h1v321l-38 16q-84 35 -123.5 73t-39.5 108q0 75 55.5 120t145.5 51v76h49v-75q99 -5 165 -52v-54q0 -6 -4.5 -7t-8.5 3q-70 65 -152 70v-296l19 -7q95 -40 138.5 -83t44.5 -107 q0 -83 -53 -134.5t-149 -62.5zM471 178q0 54 -37 85.5t-113 65.5v-301q69 10 109.5 50t40.5 100zM129 545q0 -51 40 -84.5t106 -60.5l9 -4v278q-68 -6 -111.5 -40t-43.5 -89z" />
<glyph unicode="%" d="M196 -47l424 779h59q-72 -135 -211.5 -390t-211.5 -389h-60zM234 726q74 0 115 -56.5t41 -137.5t-41 -136.5t-115 -55.5q-75 0 -115.5 55t-40.5 137q0 81 40.5 137.5t115.5 56.5zM234 689q-53 0 -77 -46t-24 -112t24 -110.5t77 -44.5q54 0 77 44.5t23 110.5q0 42 -8 75.5 t-31.5 58t-60.5 24.5zM655 349q74 0 115 -56.5t41 -137.5t-41 -136.5t-115 -55.5q-75 0 -115.5 55t-40.5 137q0 81 40.5 137.5t115.5 56.5zM655 312q-53 0 -77 -46t-24 -112t24 -110.5t77 -44.5t77 44.5t24 110.5t-24 112t-77 46z" />
<glyph unicode="&#x26;" d="M362 429h2q61 44 93.5 81t32.5 85q0 41 -27.5 69.5t-82.5 28.5q-52 0 -80 -29.5t-28 -74.5q0 -28 15.5 -58.5t27.5 -45.5t47 -56zM650 287q0 36 -13 75q-4 13 7 13h48q7 -32 7 -71q0 -107 -45 -188l140 -149h-70l-98 110q-35 -57 -102.5 -92.5t-136.5 -35.5 q-117 0 -185 52.5t-68 141.5q0 79 44 135t143 126q-36 40 -51.5 59t-33.5 54.5t-18 66.5q0 62 44.5 105t117.5 43q77 0 121.5 -37t44.5 -95q0 -38 -23 -75t-46.5 -58.5t-65.5 -55.5q-9 -7 -14 -11l223 -252q30 53 30 139zM359 373h-2q-81 -53 -120.5 -106.5t-39.5 -119.5 t50.5 -108.5t131.5 -42.5q63 0 123 30.5t93 81.5z" />
<glyph unicode="'" horiz-adv-x="297" d="M165 567h-34l-18 230h71z" />
<glyph unicode="(" horiz-adv-x="446" d="M158 317q0 124 54.5 249t139.5 216h35q-77 -105 -120.5 -227t-43.5 -238t44 -239.5t121 -225.5h-36q-85 91 -139.5 216t-54.5 249z" />
<glyph unicode=")" horiz-adv-x="446" d="M294 317q0 -124 -54.5 -249t-139.5 -216h-36q76 106 120.5 227.5t44.5 237.5t-44 237t-120 228h35q85 -91 139.5 -216t54.5 -249z" />
<glyph unicode="*" horiz-adv-x="446" d="M291 183l-68 153l-71 -157l-46 26l91 145l-154 -13v52l154 -15l-92 145l47 24l69 -152l71 152l45 -24l-91 -142l154 13v-52l-154 14l91 -144z" />
<glyph unicode="+" horiz-adv-x="583" d="M61 388h205v218h51v-218h205v-45h-205v-216h-51v216h-205v45z" />
<glyph unicode="," horiz-adv-x="297" d="M78 23q0 25 14 38.5t38 13.5q59 0 59 -71q0 -117 -105 -158l-13 20q63 20 75 81q4 24 -17 24q-51 0 -51 52z" />
<glyph unicode="-" horiz-adv-x="583" d="M84 391h415v-51h-415v51z" />
<glyph unicode="." horiz-adv-x="297" d="M130 68q53 0 53 -52t-53 -52t-53 52t53 52z" />
<glyph unicode="/" horiz-adv-x="446" d="M396 785l-284 -934h-60l290 934h54z" />
<glyph unicode="0" horiz-adv-x="583" d="M292 733q241 0 241 -392q0 -383 -241 -383q-120 0 -180.5 92.5t-60.5 290.5q0 392 241 392zM292 683q-182 0 -182 -342q0 -334 182 -334t182 334q0 342 -182 342z" />
<glyph unicode="1" horiz-adv-x="583" d="M128 571v40q81 33 147 108h69v-752h-56v689h-2q-73 -62 -149 -91q-9 -5 -9 6z" />
<glyph unicode="2" horiz-adv-x="583" d="M97 590q-4 -4 -8 -2.5t-4 6.5v59q97 79 204 79q105 0 162 -47.5t57 -144.5q0 -40 -20 -83.5t-38.5 -68.5t-74.5 -92q-10 -13 -16 -20l-228 -257v-2h388v-50h-461v49l243 271q13 17 37 47t32.5 41t24 32t20.5 30t14 24.5t11 25.5t4.5 23.5t2.5 27.5q0 70 -39 108t-116 38 q-95 0 -195 -94z" />
<glyph unicode="3" horiz-adv-x="583" d="M74 92q86 -86 211 -86q78 0 131.5 44.5t53.5 118.5q0 82 -56.5 125.5t-148.5 43.5h-30v47h16q22 0 46 3.5t52 14.5t50 27.5t36.5 46t14.5 66.5q0 66 -45 105t-118 39q-53 0 -97.5 -18.5t-94.5 -62.5q-4 -4 -8 -2.5t-4 6.5v56q30 27 87 47.5t114 20.5q105 0 164.5 -51.5 t59.5 -133.5q0 -68 -38.5 -118.5t-106.5 -65.5v-2q72 -10 118.5 -62t46.5 -132q0 -88 -65 -149.5t-180 -61.5q-66 0 -127 21t-94 54v55q0 5 4 6.5t8 -2.5z" />
<glyph unicode="4" horiz-adv-x="583" d="M23 188l352 531h70v-529h121v-45h-121v-178h-53v178h-369v43zM395 605l1 70l-33 -64l-282 -421v-2h314v417z" />
<glyph unicode="5" horiz-adv-x="583" d="M74 64q91 -61 198 -61q87 2 146.5 58t59.5 136q0 91 -65.5 133.5t-171.5 42.5q-61 0 -149 -18l20 361h375v-45h-328l-16 -265h1q63 11 126 11q118 0 190.5 -56.5t72.5 -154.5q0 -107 -72 -177t-193 -70q-126 0 -205 54v47q0 5 3.5 6.5t7.5 -2.5z" />
<glyph unicode="6" horiz-adv-x="583" d="M495 653q-62 36 -127 36q-113 0 -181 -103.5t-72 -259.5h2q50 130 197 130q95 0 158.5 -69.5t63.5 -175.5q0 -116 -64.5 -184.5t-171.5 -68.5q-123 0 -181.5 94t-58.5 256q0 78 18 151t53.5 136t96.5 101t139 38q76 0 138 -30v-47q0 -12 -10 -4zM122 203q0 -82 51.5 -141 t127.5 -59q86 0 132 60.5t46 142.5q0 87 -45 146t-128 59q-85 0 -131 -59t-53 -149z" />
<glyph unicode="7" horiz-adv-x="583" d="M214 -33h-60l313 704h-418v45h473v-50z" />
<glyph unicode="8" horiz-adv-x="583" d="M291 0q79 0 136 46t57 122q0 74 -57.5 124.5t-135.5 50.5t-135.5 -50.5t-57.5 -124.5q0 -76 57 -122t136 -46zM291 391q69 0 122.5 39.5t53.5 109.5q0 67 -52 109t-124 42t-124 -42t-52 -109q0 -70 53.5 -109.5t122.5 -39.5zM291 -43q-111 0 -179.5 58.5t-68.5 146.5 q0 159 164 200v3q-71 22 -109 68t-38 107q0 84 59 138.5t172 54.5t172 -54.5t59 -138.5q0 -61 -38.5 -107t-108.5 -68v-3q164 -41 164 -200q0 -89 -66.5 -147t-181.5 -58z" />
<glyph unicode="9" horiz-adv-x="583" d="M95 35q53 -30 128 -30q116 0 185 97.5t73 262.5h-2q-26 -58 -79 -93.5t-128 -35.5q-101 0 -160 69t-59 176q0 116 65 184.5t171 68.5q241 0 241 -351q0 -86 -17.5 -160t-53 -134.5t-96 -95.5t-140.5 -35q-74 0 -136 30v43q0 10 8 4zM466 489q0 84 -48 143.5t-127 59.5 q-85 0 -133 -63.5t-48 -145.5q0 -88 44 -145.5t131 -57.5q85 0 129.5 59t51.5 150z" />
<glyph unicode=":" horiz-adv-x="297" d="M154 600q23 0 38 -15t15 -37t-15 -37t-38 -15t-38 15t-15 37t15 37t38 15zM154 188q23 0 38 -15t15 -37t-15 -37t-38 -15t-38 15t-15 37t15 37t38 15z" />
<glyph unicode=";" horiz-adv-x="297" d="M154 600q23 0 38 -15t15 -37t-15 -37t-38 -15t-38 15t-15 37t15 37t38 15zM97 142q0 25 14 38.5t38 13.5q59 0 59 -71q0 -117 -105 -158l-13 20q63 20 75 81q5 24 -17 24q-51 0 -51 52z" />
<glyph unicode="&#x3c;" horiz-adv-x="446" d="M352 -149l-257 475l247 458h57l-243 -457l253 -476h-57z" />
<glyph unicode="=" horiz-adv-x="583" d="M85 482h412v-49h-412v49zM85 269h412v-49h-412v49z" />
<glyph unicode="&#x3e;" horiz-adv-x="446" d="M104 784l247 -458l-257 -475h-57l253 476l-243 457h57z" />
<glyph unicode="?" horiz-adv-x="669" d="M82 629v58q86 59 178 59q94 0 151 -44.5t57 -119.5q0 -84 -110 -194l-16.5 -16.5l-16 -16t-12.5 -14t-12.5 -16t-8.5 -15t-7 -19t-3 -20.5t-2 -25q0 -26 6 -64h-55q-7 29 -7 66q0 47 19 81.5t59 74.5q32 30 50 50t35 52.5t17 65.5q0 62 -38 93.5t-106 31.5 q-81 0 -166 -72q-4 -4 -8 -2.5t-4 6.5zM310 6q0 22 -15 37t-37 15t-37 -15t-15 -37t15 -37t37 -15t37 15t15 37z" />
<glyph unicode="@" horiz-adv-x="1052" d="M541 509q-70 0 -119.5 -77t-49.5 -176q0 -71 31 -110.5t83 -39.5q73 0 118.5 72t45.5 190q0 75 -25 108t-84 33zM839 0q4 4 8 2.5t4 -6.5v-63q-53 -37 -134 -57.5t-170 -20.5q-232 0 -348 117.5t-116 317.5q0 206 130.5 339.5t331.5 133.5q204 0 323.5 -111.5 t119.5 -291.5q0 -139 -70 -221.5t-160 -82.5q-118 0 -118 114h-2q-28 -56 -66.5 -83t-102.5 -27q-78 0 -120 53.5t-42 145.5q0 131 72 212t162 83q85 1 119 -86l13 78h55l-40 -361q-9 -89 76 -89q62 0 113 70t51 182q0 177 -102 274.5t-277 97.5q-174 0 -289 -121t-115 -307 q0 -182 105.5 -286.5t298.5 -104.5q88 0 163.5 28.5t126.5 70.5z" />
<glyph unicode="A" horiz-adv-x="644" d="M469 241l-133 368l-17 57l-17 -57l-133 -368h300zM283 719h72l271 -752h-62l-81 229h-328l-81 -229h-62z" />
<glyph unicode="B" horiz-adv-x="627" d="M324 670h-178v-273h150q88 0 143 34.5t55 106.5q0 64 -43 98t-127 34zM305 349h-159v-334h180q100 0 153 48t53 126q0 75 -60 117.5t-167 42.5zM341 -33h-250v750h254q95 0 149.5 -47.5t54.5 -118.5q-1 -146 -137 -173v-2q77 -13 126 -61t49 -127q0 -97 -63 -159 t-183 -62z" />
<glyph unicode="C" horiz-adv-x="639" d="M597 98q2 3 5 4t5 -1t2 -5v-62q-84 -77 -228 -77q-159 0 -249.5 103.5t-90.5 281.5q0 172 100 277t250 105q135 0 210 -64v-56q0 -6 -4.5 -6.5t-7.5 3.5q-79 74 -195 74q-129 0 -211.5 -93.5t-82.5 -235.5q0 -166 75.5 -252t214.5 -86q132 0 207 90z" />
<glyph unicode="D" horiz-adv-x="721" d="M271 670h-124v-656h118q165 0 257 86t92 247q0 158 -86 240.5t-257 82.5zM282 -33h-191v750h191q194 0 291.5 -99t97.5 -271q0 -179 -104 -279.5t-285 -100.5z" />
<glyph unicode="E" horiz-adv-x="596" d="M549 16v-49h-455v750h454v-49h-398v-270h370v-49h-370v-333h399z" />
<glyph unicode="F" horiz-adv-x="554" d="M92 717h433v-51h-377v-268h362v-48h-362v-379h-56v746z" />
<glyph unicode="G" horiz-adv-x="710" d="M626 600q-32 35 -85 56t-117 21q-143 0 -232 -85.5t-89 -243.5q0 -89 26 -156t72 -106t101.5 -58t120.5 -19q109 0 167 56v233h-197v47h253v-319q-59 -36 -109.5 -52t-120.5 -16q-165 0 -267.5 100.5t-102.5 285.5q0 178 105 280.5t267 102.5q138 0 219 -62v-61 q0 -6 -4 -6.5t-7 2.5z" />
<glyph unicode="H" horiz-adv-x="718" d="M567 717h56v-750h-56v385h-419v-385h-56v750h56v-315h419v315z" />
<glyph unicode="I" horiz-adv-x="247" d="M100 717h59v-750h-59v750z" />
<glyph unicode="J" horiz-adv-x="410" d="M320 716v-525q0 -131 -51 -186.5t-154 -55.5q-54 0 -96 14v49q25 -15 83 -15q87 0 123 43.5t36 145.5v530h59z" />
<glyph unicode="K" horiz-adv-x="626" d="M519 717h72l-285 -302v-1l309 -447h-73l-272 409h-1l-121 -127v-282h-57v750h57v-393h1z" />
<glyph unicode="L" horiz-adv-x="529" d="M151 18h358v-51h-415v750h57v-699z" />
<glyph unicode="M" horiz-adv-x="884" d="M474 -33h-64l-232 600l-32 99l2 -92v-607h-54v750h84l242 -629l22 -64l22 64l242 629h84v-750h-54v607l2 92l-32 -99z" />
<glyph unicode="N" horiz-adv-x="710" d="M512 114l47 -97l-1 102v598h56v-750h-85l-333 603l-47 97l1 -102v-598h-56v750h85z" />
<glyph unicode="O" horiz-adv-x="752" d="M374 -42q-154 0 -237.5 105.5t-83.5 278.5t83.5 279t237.5 106q153 0 238 -107t85 -279t-85 -277.5t-238 -105.5zM373 9q127 0 196.5 92t69.5 240q0 150 -69.5 243.5t-196.5 93.5q-125 0 -194 -93.5t-69 -243.5q0 -148 69 -240t194 -92z" />
<glyph unicode="P" horiz-adv-x="586" d="M550 496q0 -114 -74.5 -174t-214.5 -60h-111v-295h-56v750h182q122 0 198 -57t76 -164zM494 496q0 172 -239 172h-106v-357h98q119 0 183 40.5t64 144.5z" />
<glyph unicode="Q" horiz-adv-x="752" d="M374 -42q-154 0 -237.5 105.5t-83.5 278.5t83.5 279t237.5 106q153 0 238 -107t85 -279q0 -187 -103 -293l107 -117h-63l-78 87q-78 -60 -186 -60zM373 9q91 0 153 47l-96 107h59l70 -77q80 89 80 255q0 150 -69.5 243.5t-196.5 93.5q-125 0 -194 -93.5t-69 -243.5 q0 -148 69 -240t194 -92z" />
<glyph unicode="R" horiz-adv-x="610" d="M387 296v-1l192 -328h-70l-175 316h-184v-316h-56v750h209q122 0 187.5 -56t65.5 -154q0 -77 -42 -132t-127 -79zM500 506q0 83 -52.5 123t-142.5 40h-157v-338h146q96 0 151 44t55 131z" />
<glyph unicode="S" horiz-adv-x="592" d="M61 29v60q0 5 4 6.5t8 -3.5q70 -83 199 -83q90 0 141.5 41t51.5 115q0 60 -38.5 94t-117.5 67l-73 31q-82 34 -124 76.5t-42 116.5q0 86 65.5 133t168.5 47q108 0 185 -56v-55q0 -5 -3.5 -6.5t-7.5 2.5q-78 68 -170 68q-79 0 -130.5 -34.5t-51.5 -96.5q0 -54 38.5 -87 t105.5 -61l72 -29q94 -39 138 -88t45 -118q0 -97 -69 -154.5t-186 -57.5q-139 0 -209 72z" />
<glyph unicode="T" horiz-adv-x="621" d="M338 668v-701h-56v701h-269v49h592v-49h-267z" />
<glyph unicode="U" horiz-adv-x="696" d="M349 -42h-2q-149 0 -218 102q-46 67 -46 209v448h56v-445q0 -130 43 -188q54 -74 166 -74q53 0 96.5 20t67.5 54q26 32 35 75.5t9 112.5v445h56v-449q0 -143 -47 -208q-69 -102 -216 -102z" />
<glyph unicode="V" horiz-adv-x="635" d="M354 -33h-76l-265 751h60l214 -606l29 -87l29 87l214 606h60z" />
<glyph unicode="W" horiz-adv-x="961" d="M443 718h72l153 -607l20 -86l22 86l162 607h58l-203 -751h-76l-155 609l-17 78l-17 -78l-155 -609h-76l-203 751h58l162 -607l22 -86l20 86z" />
<glyph unicode="X" horiz-adv-x="617" d="M310 298h-1l-216 -331h-65l249 374v2l-237 375h63l206 -331h1l206 331h63l-237 -375v-2l249 -374h-65z" />
<glyph unicode="Y" horiz-adv-x="611" d="M336 -33h-56v330l-262 421h63l226 -367h2l226 367h63l-262 -421v-330z" />
<glyph unicode="Z" horiz-adv-x="594" d="M42 -33v54l441 646v2h-418v48h481v-54l-441 -646v-2h450v-48h-513z" />
<glyph unicode="[" horiz-adv-x="446" d="M217 782h184v-36h-122v-857h122v-36h-184v929z" />
<glyph unicode="\" horiz-adv-x="961" d="M39 352v39h123l-77 302h50l75 -302h170l72 302h63l71 -302h168l75 302h52l-77 -302h120v-39h-130l-92 -363h-67l-86 363h-132l-86 -363h-67l-92 363h-133zM218 354l61 -238l19 -76l18 76l57 238h-155zM593 354l57 -238l17 -76l20 76l60 238h-154zM498 566l-16 69l-14 -69 l-42 -175h113z" />
<glyph unicode="]" horiz-adv-x="446" d="M45 782h184v-929h-184v36h122v857h-122v36z" />
<glyph unicode="^" horiz-adv-x="434" d="M180 796h77l168 -203h-64l-142 177h-1l-142 -177h-62z" />
<glyph unicode="_" horiz-adv-x="446" d="M434 -104v-37h-422v37h422z" />
<glyph unicode="`" horiz-adv-x="297" d="M146 796l79 -231h-35l-114 231h70z" />
<glyph unicode="a" horiz-adv-x="560" d="M413 177v93l-189 -27q-61 -10 -98 -47.5t-37 -85.5q0 -52 32 -77.5t88 -25.5q86 0 145 48t59 122zM98 408q-12 -9 -12 5v57q92 57 191 57q98 0 144.5 -42t46.5 -140v-378h-54l-5 90q-61 -99 -203 -99q-84 0 -128.5 40.5t-44.5 106.5q0 77 49.5 123.5t136.5 58.5l191 27 v24q0 74 -29.5 106.5t-105.5 32.5q-104 0 -177 -69z" />
<glyph unicode="b" horiz-adv-x="588" d="M141 271v-101q0 -69 51.5 -114t124.5 -45q75 0 124.5 63t49.5 173q0 108 -46.5 165t-124.5 57q-73 0 -126 -56.5t-53 -141.5zM328 519q103 0 163 -70.5t60 -200.5q0 -136 -65.5 -213t-163.5 -77q-58 0 -105.5 23.5t-70.5 64.5h-3l-3 -79h-55v805h56v-370h2q25 49 72.5 83 t112.5 34z" />
<glyph unicode="c" horiz-adv-x="490" d="M462 63q10 8 10 -4v-55q-58 -46 -154 -46q-127 0 -201 72.5t-74 204.5q0 131 73.5 207.5t199.5 76.5q84 0 152 -47v-58q0 -4 -2.5 -5.5t-5 -1t-4.5 3.5q-33 32 -64.5 46t-74.5 14q-100 0 -156 -67.5t-56 -167.5q0 -105 57 -167t163 -62q37 0 76.5 15.5t60.5 40.5z" />
<glyph unicode="d" horiz-adv-x="588" d="M450 281q0 74 -49.5 131t-122.5 57q-79 0 -128.5 -65t-49.5 -175t45.5 -165t121.5 -55q78 0 130.5 47.5t52.5 117.5v107zM268 519q124 0 180 -112h2v365h56v-805h-55l-3 82h-3q-27 -44 -76 -67.5t-107 -23.5q-99 0 -160.5 69.5t-61.5 204.5q0 129 63.5 208t164.5 79z" />
<glyph unicode="e" horiz-adv-x="559" d="M296 519q110 0 168.5 -67t58.5 -190v-17h-413v-21q6 -213 205 -213q104 0 175 59q11 9 11 -4v-54q-70 -54 -197 -54q-120 0 -191 77t-71 200q0 125 71.5 204.5t182.5 79.5zM111 287h348q0 88 -43.5 137.5t-121.5 49.5q-73 0 -122 -50t-61 -137z" />
<glyph unicode="f" horiz-adv-x="340" d="M339 724q-32 17 -59 17q-110 0 -110 -138v-95h153v-46h-151v-495h-58v495h-95v46h95v99q0 93 45 135t120 42q42 0 67 -16v-40q0 -8 -7 -4z" />
<glyph unicode="g" horiz-adv-x="588" d="M447 188v103q0 73 -49 125.5t-123 52.5q-78 0 -128 -60t-50 -168q0 -110 45.5 -163t121.5 -53q78 0 130.5 46.5t52.5 116.5zM449 8v57h-4q-27 -44 -77 -67.5t-109 -23.5q-99 0 -160.5 68t-61.5 202q0 128 63.5 201.5t164.5 73.5q119 0 177 -101h2l3 90h56v-501 q0 -155 -60.5 -220t-201.5 -65q-92 0 -167 39v59q0 9 8 3q73 -56 159 -56q110 0 159 56.5t49 184.5z" />
<glyph unicode="h" horiz-adv-x="592" d="M522 290v-323h-57v317q0 185 -134 185q-72 0 -131 -60.5t-59 -140.5v-301h-57v802h56v-373h1q25 52 78.5 87.5t115.5 35.5q187 0 187 -229z" />
<glyph unicode="i" horiz-adv-x="244" d="M91 508h58v-541h-58v541zM76 691q0 21 13 34t33 13q19 0 32.5 -13t13.5 -34q0 -20 -13.5 -32.5t-32.5 -12.5q-20 0 -33 12.5t-13 32.5z" />
<glyph unicode="j" horiz-adv-x="301" d="M211 508v-589q0 -120 -49 -162.5t-151 -36.5v45q79 -2 111 28.5t32 123.5v591h57zM131 691q0 21 13 34t33 13q19 0 32.5 -13t13.5 -34q0 -20 -13.5 -32.5t-32.5 -12.5q-20 0 -33 12.5t-13 32.5z" />
<glyph unicode="k" horiz-adv-x="530" d="M253 288v-1l256 -320h-69l-223 287h-1l-76 -72v-215h-56v803h56v-522h2l269 260h70z" />
<glyph unicode="l" horiz-adv-x="244" d="M91 776h56v-809h-56v809z" />
<glyph unicode="m" d="M482 -33h-56v317q0 185 -118 185q-63 0 -114.5 -62.5t-51.5 -142.5v-297h-56v541h50l5 -108q23 51 69 85t101 34q127 0 161 -134q27 61 75 97.5t105 36.5q171 0 171 -229v-323h-56v317q0 185 -118 185q-63 0 -115 -62.5t-52 -142.5v-297z" />
<glyph unicode="n" horiz-adv-x="592" d="M523 291v-324h-57v318q0 184 -135 184q-73 0 -132 -60t-59 -139v-303h-57v541h51l5 -111h1q25 51 78.5 86.5t116.5 35.5q90 0 139 -56.5t49 -171.5z" />
<glyph unicode="o" horiz-adv-x="577" d="M288 -42q-119 0 -181.5 77t-62.5 200q0 128 63.5 206t180.5 78t180.5 -78t63.5 -206q0 -123 -62.5 -200t-181.5 -77zM288 8q89 1 138 60t49 165q0 111 -49 173.5t-138 62.5q-90 0 -138.5 -62t-48.5 -174q0 -106 49 -165.5t138 -59.5z" />
<glyph unicode="p" horiz-adv-x="588" d="M139 271v-101q0 -69 52.5 -114t126.5 -45q75 0 126 63t51 173q0 108 -48 165t-126 57q-73 0 -127.5 -57t-54.5 -141zM329 519q104 0 165 -70.5t61 -200.5q0 -135 -66.5 -212.5t-165.5 -77.5q-58 0 -107 23.5t-72 64.5h-3v-325h-58v787h52l4 -106h2q25 48 73.5 82.5 t114.5 34.5z" />
<glyph unicode="q" horiz-adv-x="588" d="M446 281q0 74 -50.5 132.5t-123.5 58.5q-79 0 -129.5 -67t-50.5 -176t46.5 -164.5t122.5 -55.5q79 0 132 47.5t53 117.5v107zM262 519q126 0 182 -112h2l3 101h53v-786h-58v327h-3q-27 -44 -76.5 -67.5t-108.5 -23.5q-99 0 -161.5 70t-62.5 204q0 129 64.5 208t165.5 79z " />
<glyph unicode="r" horiz-adv-x="383" d="M306 465q-69 0 -119 -51t-50 -130v-315h-57v539h53l2 -99h1q24 48 73 79t102 31q42 -1 65 -14v-51q0 -5 -3.5 -6.5t-7.5 1.5q-20 16 -59 16z" />
<glyph unicode="s" horiz-adv-x="475" d="M54 67q77 -58 177 -58q144 0 144 101q0 59 -104 96l-64 25q-77 28 -110.5 62t-33.5 91q0 55 49 95t134 40q98 0 165 -44v-55q0 -6 -3.5 -7t-7.5 3q-64 55 -160 55q-49 0 -83 -24t-34 -62q0 -65 94 -99l67 -25q80 -32 116 -64.5t36 -90.5q0 -69 -53.5 -108.5t-144.5 -39.5 q-118 0 -194 48v56q0 5 3 6.5t7 -1.5z" />
<glyph unicode="t" horiz-adv-x="357" d="M343 24v-41q-36 -25 -96 -25q-68 0 -102.5 31.5t-34.5 103.5v368h-105v47h105v136h57v-136h157v-47h-157v-363q0 -51 16.5 -72.5t62.5 -21.5q55 0 87 24q10 7 10 -4z" />
<glyph unicode="u" horiz-adv-x="592" d="M70 184v324h56v-317q0 -97 39 -141t105 -44q72 0 128.5 59.5t56.5 139.5v303h57v-541h-51l-5 106h-1q-25 -51 -75 -83t-114 -32q-93 0 -142 52q-54 56 -54 174z" />
<glyph unicode="v" horiz-adv-x="530" d="M242 85l23 -70l23 70l157 423h61l-208 -541h-67l-209 541h62z" />
<glyph unicode="w" horiz-adv-x="788" d="M364 508h58l135 -443l12 -50l13 50l122 443h56l-155 -541h-67l-137 449l-8 32l-8 -32l-137 -449h-67l-155 541h56l122 -443l13 -50l12 50z" />
<glyph unicode="x" horiz-adv-x="528" d="M265 203h-1l-178 -236h-63l209 274v2l-202 265h61l173 -226h1l173 226h61l-202 -265v-2l209 -274h-63z" />
<glyph unicode="y" horiz-adv-x="530" d="M33 -275v41q0 9 9 6q22 -6 46 -6q41 0 69.5 22.5t54.5 85.5l35 87v3l-236 544h62l173 -410l31 -71l26 71l148 410h62l-237 -619q-35 -91 -75.5 -131.5t-114.5 -40.5q-35 0 -53 8z" />
<glyph unicode="z" horiz-adv-x="473" d="M31 -33v40l326 451v2h-311v48h377v-40l-325 -452v-2h342v-47h-409z" />
<glyph unicode="{" horiz-adv-x="446" d="M224 334v-1q83 -30 83 -125v-246q0 -44 14.5 -62t47.5 -18h32v-34h-55q-42 0 -69 26.5t-27 85.5v233q0 62 -22.5 92t-78.5 35v27q56 5 78.5 35t22.5 92v201q0 59 27 85.5t69 26.5h55v-34h-32q-33 0 -47.5 -18t-14.5 -62v-214q0 -95 -83 -125z" />
<glyph unicode="|" horiz-adv-x="446" d="M247 -147h-49v928h49v-928z" />
<glyph unicode="}" horiz-adv-x="446" d="M222 333v1q-83 30 -83 125v214q0 44 -14.5 62t-47.5 18h-32v34h55q42 0 69 -26.5t27 -85.5v-201q0 -62 22.5 -92t78.5 -35v-27q-56 -5 -78.5 -35t-22.5 -92v-233q0 -59 -27 -85.5t-69 -26.5h-55v34h32q33 0 47.5 18t14.5 62v246q0 95 83 125z" />
<glyph unicode="~" horiz-adv-x="669" d="M440 342q26 0 53 21.5t47 53.5q3 5 7 3.5t4 -6.5v-60q-45 -62 -113 -62q-53 0 -99 37q-2 2 -13 10.5t-14 10.5t-12 9t-13 8.5t-12.5 6t-14.5 5.5t-14.5 2.5t-17.5 1.5q-26 0 -53 -21.5t-47 -53.5q-3 -5 -7 -3.5t-4 6.5v60q45 62 113 62q51 0 99 -39q23 -19 35.5 -28 t32.5 -16.5t43 -7.5z" />
<glyph unicode="&#xac00;" d="M69 67l-42 42q182 89 284 231.5t121 308.5q-84 -3 -245 -3h-123v51h184q166 0 249 3q-36 -424 -428 -633zM724 399h164v-52h-164v-478h-56v909h56v-379z" />
<glyph unicode="&#xac01;" d="M70 263l-35 46q347 102 403 378q-81 -3 -258 -3h-93v50h152q171 0 266 3q-20 -171 -130.5 -292.5t-304.5 -181.5zM729 530h151v-53h-151v-226h-56v527h56v-248zM729 191v-325h-56v274h-509v51h565z" />
<glyph unicode="&#xac04;" d="M73 226l-36 44q353 118 402 411q-81 -3 -261 -3h-92v50h151q171 0 266 3q-37 -369 -430 -505zM729 493h151v-52h-151v-328h-56v665h56v-285zM256 -61h488v-52h-545v270h57v-218z" />
<glyph unicode="&#xac07;" d="M69 273l-34 46q343 97 403 368q-81 -3 -257 -3h-94v50h153q171 0 266 3q-21 -170 -132 -288.5t-305 -175.5zM729 532h151v-52h-151v-214h-56v512h56v-246zM748 -66v-51h-562v323h545v-53h-488v-219h505z" />
<glyph unicode="&#xac08;" d="M66 314l-31 49q337 81 404 325q-81 -3 -256 -3h-96v49h155q171 0 266 3q-23 -157 -137.5 -265.5t-304.5 -157.5zM729 564h151v-51h-151v-177h-56v442h56v-214zM233 -71h517v-50h-573v226h496v122h-496v50h552v-220h-496v-128z" />
<glyph unicode="&#xac09;" d="M66 310l-31 49q336 81 404 329q-81 -3 -256 -3h-96v49h155q171 0 266 3q-23 -158 -137.5 -268t-304.5 -159zM729 567h151v-51h-151v-180h-56v442h56v-211zM729 279v-413h-56v363h-205v50h261zM323 -121h-170v226h222v124h-222v50h278v-222h-222v-128h143q92 0 146 21v-48 q-58 -23 -175 -23z" />
<glyph unicode="&#xac0a;" d="M66 310l-31 49q336 81 404 329q-81 -3 -256 -3h-96v49h155q171 0 266 3q-23 -158 -137.5 -268t-304.5 -159zM729 567h151v-51h-151v-180h-56v442h56v-211zM729 -117h-264v396h264v-396zM674 -68v298h-156v-298h156zM257 -119h-113v224h214v124h-214v50h268v-222h-212 v-126h87q94 0 148 21v-49q-58 -22 -178 -22z" />
<glyph unicode="&#xac10;" d="M68 282l-34 47q346 98 405 358q-81 -3 -256 -3h-96v50h155q171 0 266 3q-21 -165 -134 -282t-306 -173zM729 537h151v-52h-151v-209h-56v502h56v-241zM184 216h545v-333h-545v333zM241 -66h432v231h-432v-231z" />
<glyph unicode="&#xac11;" d="M67 300l-32 48q336 86 402 339q-81 -3 -255 -3h-95v50h154q170 0 265 3q-22 -161 -135.5 -273.5t-303.5 -163.5zM729 560h151v-52h-151v-196h-56v466h56v-218zM673 254h56v-371h-545v365h57v-110h432v116zM240 88v-154h434v154h-434z" />
<glyph unicode="&#xac12;" d="M404 256h55v-373h-308v365h56v-116h197v124zM67 300l-32 48q336 86 402 339q-81 -3 -255 -3h-95v50h154q170 0 265 3q-22 -161 -135.5 -273.5t-303.5 -163.5zM507 -128l-46 38q89 58 130 148t33 200h58q0 -65 -11 -126q37 -122 171 -213l-43 -43q-108 83 -149 181 q-39 -105 -143 -185zM729 560h151v-52h-151v-196h-56v466h56v-218zM207 83v-149h197v149h-197z" />
<glyph unicode="&#xac13;" d="M73 238l-38 45q353 114 403 404q-81 -3 -259 -3h-92v50h151q171 0 266 3q-38 -364 -431 -499zM145 -129l-34 46q153 36 239.5 123t86.5 202h60q0 -48 -15 -93q37 -80 124.5 -143.5t197.5 -87.5l-33 -47q-103 23 -187 84t-127 138q-43 -79 -125 -137.5t-187 -84.5z M729 511h151v-51h-151v-291h-56v609h56v-267z" />
<glyph unicode="&#xac14;" d="M467 -130q-107 59 -164 182q-51 -116 -180 -182l-41 43q208 97 195 307h56q1 -43 -7 -90q34 -123 143 -192q67 49 101 122.5t28 163.5h54q1 -47 -7 -95q16 -63 63.5 -118.5t120.5 -91.5l-41 -45q-107 54 -166 175q-46 -114 -155 -179zM68 282l-33 47q344 97 403 358 q-81 -3 -257 -3h-94v50h153q171 0 266 3q-21 -166 -133 -282.5t-305 -172.5zM729 535h151v-52h-151v-207h-56v502h56v-243z" />
<glyph unicode="&#xac15;" d="M70 268l-35 46q348 103 403 373q-81 -3 -258 -3h-93v50h152q171 0 266 3q-20 -171 -130.5 -290t-304.5 -179zM729 534h151v-53h-151v-229h-56v526h56v-244zM450 -137q-134 0 -213 51.5t-79 132.5q0 80 79 130.5t213 50.5t213 -50.5t79 -130.5q0 -81 -79 -132.5 t-213 -51.5zM450 -88q110 0 171 38.5t61 94.5q0 57 -60.5 95t-171.5 38t-171.5 -38t-60.5 -95q0 -56 61 -94.5t171 -38.5z" />
<glyph unicode="&#xac16;" d="M199 166v52h348q70 0 163 3q9 0 12.5 -6.5t-1.5 -15.5q-35 -91 -190 -182q137 -62 293 -96l-31 -50q-151 36 -315 118q-147 -76 -331 -120l-26 51q175 35 326 109t194 141q-76 -4 -240 -4h-202zM68 282l-33 47q344 97 403 358q-81 -3 -257 -3h-94v50h153q171 0 266 3 q-21 -166 -133 -282.5t-305 -172.5zM729 535h151v-52h-151v-207h-56v502h56v-243z" />
<glyph unicode="&#xac17;" d="M206 120v48h339q70 0 163 3q9 0 12.5 -6.5t-1.5 -15.5q-46 -87 -172 -152q133 -52 280 -74l-27 -50q-149 21 -310 96q-140 -64 -330 -97l-29 47q176 28 312.5 83t193.5 123q-70 -5 -193 -5h-238zM68 282l-33 47q344 97 403 358q-81 -3 -257 -3h-94v50h153q171 0 266 3 q-21 -166 -133 -282.5t-305 -172.5zM729 552h151v-52h-151v-204h-56v482h56v-226zM590 247h-276v50h276v-50z" />
<glyph unicode="&#xac19;" d="M66 310l-31 49q336 81 404 329q-81 -3 -256 -3h-96v49h155q171 0 266 3q-23 -158 -137.5 -268t-304.5 -159zM729 559h151v-51h-151v-176h-56v446h56v-219zM729 104v-48h-489v-123h510v-50h-566v390h547v-50h-491v-119h489z" />
<glyph unicode="&#xac1a;" d="M729 529h151v-52h-151v-198h-56v499h56v-249zM641 -66h129v-51h-623v51h125l-4 234h-110v51h597v-51h-110zM324 168l4 -234h258l4 234h-266zM68 282l-33 47q344 97 403 358q-81 -3 -257 -3h-94v50h153q171 0 266 3q-21 -166 -133 -282.5t-305 -172.5z" />
<glyph unicode="&#xac1b;" d="M66 310l-31 49q336 81 404 329q-81 -3 -256 -3h-96v49h155q171 0 266 3q-23 -158 -137.5 -268t-304.5 -159zM729 552h151v-52h-151v-202h-56v480h56v-226zM764 191v-47h-631v47h631zM591 306v-49h-297v49h297zM448 -142q-122 0 -192 31t-70 87t69 86.5t193 30.5 t193 -30.5t69 -86.5t-70 -87t-192 -31zM448 -96q93 0 146.5 19t53.5 53q0 33 -51 52t-149 19t-149 -19t-51 -52q0 -34 53.5 -53t146.5 -19z" />
<glyph unicode="&#xac1c;" d="M81 64l-43 42q304 177 326 541q-64 -3 -195 -3h-96v50h143q137 0 209 3q-17 -425 -344 -633zM734 778h55v-909h-55v492h-156v-469h-54v876h54v-355h156v365z" />
<glyph unicode="&#xac1d;" d="M74 246l-36 46q138 51 230.5 152t107.5 241q-63 -3 -212 -3h-77v50h125q142 0 225 3q-8 -170 -102.5 -297t-260.5 -192zM742 778h55v-532h-55v236h-152v-236h-54v522h54v-236h152v246zM797 185v-319h-56v267h-535v52h591z" />
<glyph unicode="&#xac20;" d="M76 224l-37 46q138 54 230 158.5t107 250.5q-63 -3 -212 -3h-77v50h125q142 0 225 3q-8 -174 -101 -305.5t-260 -199.5zM742 778h55v-665h-55v330h-152v-310h-54v635h54v-276h152v286zM298 -61h515v-52h-572v278h57v-226z" />
<glyph unicode="&#xac24;" d="M71 295l-33 46q135 39 229 130.5t109 213.5q-63 -3 -210 -3h-79v50h127q142 0 225 3q-6 -154 -107.5 -271.5t-260.5 -168.5zM742 778h55v-452h-55v182h-152v-182h-54v442h54v-211h152v221zM278 -71h540v-50h-596v222h519v116h-519v50h575v-214h-519v-124z" />
<glyph unicode="&#xac2c;" d="M73 261l-35 46q137 47 230 145t108 233q-63 -3 -212 -3h-77v50h125q142 0 225 3q-6 -165 -103 -289t-261 -185zM742 778h55v-512h-55v230h-152v-230h-54v502h54v-222h152v232zM227 206h570v-323h-570v323zM283 -67h458v222h-458v-222z" />
<glyph unicode="&#xac2d;" d="M72 275l-34 46q137 44 230 139t108 225q-63 -3 -211 -3h-78v50h126q142 0 225 3q-6 -160 -105 -282t-261 -178zM742 778h55v-476h-55v206h-152v-206h-54v466h54v-211h152v221zM741 243h56v-360h-570v355h56v-107h458v112zM282 81v-148h460v148h-460z" />
<glyph unicode="&#xac2f;" d="M742 778h55v-601h-55v307h-152v-204h-54v488h54v-234h152v244zM75 239l-37 46q138 54 230 155.5t108 244.5q-63 -3 -212 -3h-77v50h125q142 0 225 3q-8 -172 -102 -301t-260 -195zM165 -129l-31 46q154 34 242.5 116t88.5 192h60q0 -50 -16 -91q35 -75 126 -134.5 t202 -81.5l-31 -47q-108 24 -193 79.5t-130 130.5q-46 -74 -129 -129t-189 -81z" />
<glyph unicode="&#xac30;" d="M499 -130q-108 58 -164 177q-51 -111 -180 -177l-41 43q208 97 195 299h56q1 -43 -7 -88q33 -119 143 -187q67 46 101 119t28 160h54q1 -45 -7 -93q16 -62 63 -115.5t121 -88.5l-41 -45q-108 53 -166 171q-45 -109 -155 -175zM742 778h55v-512h-55v236h-152v-236h-54v502 h54v-216h152v226zM73 261l-35 46q137 47 230 145t108 233q-63 -3 -212 -3h-77v50h125q142 0 225 3q-6 -165 -103 -289t-261 -185z" />
<glyph unicode="&#xac31;" d="M74 246l-36 46q138 51 230.5 152t107.5 241q-63 -3 -212 -3h-77v50h125q142 0 225 3q-8 -170 -102.5 -297t-260.5 -192zM742 778h55v-545h-55v264h-152v-216h-54v487h54v-221h152v231zM493 -136q-138 0 -219.5 51t-81.5 129q0 79 81 128.5t220 49.5t220 -49.5t81 -128.5 q0 -78 -81.5 -129t-219.5 -51zM493 -87q111 0 174 38.5t63 92.5t-62.5 91.5t-174.5 37.5q-114 0 -175.5 -37t-61.5 -92t62.5 -93t174.5 -38z" />
<glyph unicode="&#xac38;" d="M878 259v-51h-154v-339h-56v909h56v-236h154v-51h-154v-232h154zM69 67l-42 42q182 89 284 231.5t121 308.5q-84 -3 -245 -3h-123v51h184q166 0 249 3q-36 -424 -428 -633z" />
<glyph unicode="&#xac39;" d="M673 778h56v-151h147v-50h-147v-139h147v-50h-147v-136h-56v526zM70 263l-35 46q347 102 403 378q-81 -3 -258 -3h-93v50h152q171 0 266 3q-20 -171 -130.5 -292.5t-304.5 -181.5zM729 191v-325h-56v274h-509v51h565z" />
<glyph unicode="&#xac3c;" d="M673 778h56v-184h147v-49h-147v-155h147v-49h-147v-228h-56v665zM73 226l-38 44q353 118 402 411q-81 -3 -259 -3h-92v50h151q171 0 266 3q-37 -369 -430 -505zM256 -61h488v-52h-545v272h57v-220z" />
<glyph unicode="&#xac40;" d="M673 778h56v-133h147v-49h-147v-114h147v-49h-147v-97h-56v442zM66 314l-31 49q337 81 404 325q-81 -3 -256 -3h-96v49h155q171 0 266 3q-23 -157 -137.5 -265.5t-304.5 -157.5zM233 -71h517v-50h-573v226h496v122h-496v50h552v-220h-496v-128z" />
<glyph unicode="&#xac4b;" d="M73 238l-38 45q353 114 403 404q-81 -3 -259 -3h-92v50h151q171 0 266 3q-38 -364 -431 -499zM145 -129l-34 46q153 36 239.5 123t86.5 202h60q0 -48 -15 -93q37 -80 124.5 -143.5t197.5 -87.5l-33 -47q-103 23 -187 84t-127 138q-43 -79 -125 -137.5t-187 -84.5z M673 778h56v-160h147v-50h-147v-151h147v-50h-147v-198h-56v609z" />
<glyph unicode="&#xac4d;" d="M673 778h56v-151h147v-50h-147v-146h147v-50h-147v-131h-56v528zM70 268l-35 46q348 103 403 373q-81 -3 -258 -3h-93v50h152q171 0 266 3q-20 -171 -130.5 -290t-304.5 -179zM450 -137q-134 0 -213 51.5t-79 132.5q0 80 79 130.5t213 50.5t213 -50.5t79 -130.5 q0 -81 -79 -132.5t-213 -51.5zM450 -88q110 0 171 38.5t61 94.5q0 57 -60.5 95t-171.5 38t-171.5 -38t-60.5 -95q0 -56 61 -94.5t171 -38.5z" />
<glyph unicode="&#xac54;" d="M735 -131v356h-162v-333h-54v876h54v-224h162v234h55v-909h-55zM573 277h162v215h-162v-215zM81 64l-43 42q304 177 326 541q-64 -3 -195 -3h-96v50h143q137 0 209 3q-17 -425 -344 -633z" />
<glyph unicode="&#xac58;" d="M76 224l-37 46q138 54 230 158.5t107 250.5q-63 -3 -212 -3h-77v50h125q142 0 225 3q-8 -174 -101 -305.5t-260 -199.5zM798 113h-54v219h-156v-199h-53v636h53v-183h156v193h54v-666zM588 378h156v162h-156v-162zM298 -61h515v-52h-572v282h57v-230z" />
<glyph unicode="&#xac5c;" d="M798 326h-56v113h-152v-113h-55v442h55v-114h152v124h56v-452zM590 485h152v123h-152v-123zM71 295l-33 46q135 39 229 130.5t109 213.5q-63 -3 -210 -3h-79v50h127q142 0 225 3q-6 -154 -107.5 -271.5t-260.5 -168.5zM278 -71h540v-50h-596v222h519v116h-519v50h575 v-214h-519v-124z" />
<glyph unicode="&#xac70;" d="M88 67l-40 42q121 59 210 150t134 189.5t52 200.5q-84 -3 -242 -3h-119v51h180q162 0 245 3q-14 -213 -117.5 -370t-302.5 -263zM718 -131v500h-201v53h201v356h56v-909h-56z" />
<glyph unicode="&#xac71;" d="M85 261l-35 46q168 46 273.5 141.5t128.5 238.5q-81 -3 -258 -3h-91v50h150q171 0 266 3q-35 -359 -434 -476zM718 256v204h-212v52h212v266h56v-522h-56zM774 196v-330h-56v279h-519v51h575z" />
<glyph unicode="&#xac74;" d="M88 223l-38 45q365 115 403 413q-81 -3 -260 -3h-90v50h149q172 0 267 3q-29 -372 -431 -508zM718 113v329h-204v52h204v284h56v-665h-56zM290 -61h499v-52h-556v272h57v-220z" />
<glyph unicode="&#xac77;" d="M85 269l-35 47q168 43 273.5 137t128.5 234q-81 -3 -257 -3h-92v50h151q170 0 265 3q-17 -176 -127.5 -293.5t-306.5 -174.5zM718 266v202h-207v53h207v257h56v-512h-56zM792 -66v-51h-571v323h555v-53h-498v-219h514z" />
<glyph unicode="&#xac78;" d="M82 310l-31 49q163 35 268.5 119.5t131.5 209.5q-81 -3 -254 -3h-94v49h153q169 0 264 3q-21 -166 -134 -274t-304 -153zM718 336v153h-205v52h205v237h56v-442h-56zM268 -71h527v-50h-583v225h506v123h-506v50h562v-221h-506v-127z" />
<glyph unicode="&#xac7a;" d="M82 310l-31 49q163 35 268.5 119.5t131.5 209.5q-81 -3 -254 -3h-94v49h153q169 0 264 3q-21 -166 -134 -274t-304 -153zM774 -117h-271v396h271v-396zM719 -68v298h-163v-298h163zM296 -119h-117v224h217v124h-217v50h271v-222h-215v-126h91q94 0 147 21v-49 q-57 -22 -177 -22zM718 336v153h-205v52h205v237h56v-442h-56z" />
<glyph unicode="&#xac80;" d="M84 279l-32 47q166 41 272 133t129 228q-81 -3 -256 -3h-94v50h151q170 0 265 3q-18 -173 -128.5 -288.5t-306.5 -169.5zM718 274v193h-204v52h204v259h56v-504h-56zM219 214h555v-331h-555v331zM276 -66h442v229h-442v-229z" />
<glyph unicode="&#xac81;" d="M82 291l-32 48q165 39 270 127.5t131 220.5q-81 -3 -255 -3h-93v50h152q169 0 264 3q-20 -172 -131.5 -284.5t-305.5 -161.5zM718 312v160h-204v52h204v254h56v-466h-56zM718 254h56v-371h-555v365h57v-107h442v113zM275 91v-157h444v157h-444z" />
<glyph unicode="&#xac83;" d="M84 234l-34 47q361 111 402 406q-81 -3 -259 -3h-90v50h149q172 0 267 3q-30 -370 -435 -503zM170 -129l-33 46q152 35 238 126t86 207h60q1 -50 -17 -104q34 -78 122.5 -141t201.5 -87l-32 -47q-109 26 -192.5 84t-125.5 136q-44 -76 -126 -135.5t-182 -84.5zM718 169 v295h-196v52h196v262h56v-609h-56z" />
<glyph unicode="&#xac84;" d="M495 -130q-107 59 -164 182q-51 -116 -180 -182l-41 43q208 97 195 307h56q1 -43 -7 -90q34 -123 143 -192q67 49 101 122.5t28 163.5h54q1 -47 -7 -95q16 -63 63.5 -118.5t120.5 -91.5l-41 -45q-107 54 -166 175q-46 -114 -155 -179zM84 279l-34 47q166 41 272 133 t129 228q-81 -3 -256 -3h-92v50h151q170 0 265 3q-18 -173 -128.5 -288.5t-306.5 -169.5zM718 276v193h-201v52h201v257h56v-502h-56z" />
<glyph unicode="&#xac85;" d="M85 261l-35 46q168 46 273.5 141.5t128.5 238.5q-81 -3 -258 -3h-91v50h150q171 0 266 3q-35 -359 -434 -476zM718 250v211h-200v52h200v265h56v-528h-56zM485 -137q-134 0 -213 51.5t-79 132.5q0 80 79 130.5t213 50.5t213 -50.5t79 -130.5q0 -81 -79 -132.5t-213 -51.5 zM485 -88q110 0 171 38.5t61 94.5q0 57 -60.5 95t-171.5 38t-171.5 -38t-60.5 -95q0 -56 61 -94.5t171 -38.5z" />
<glyph unicode="&#xac86;" d="M219 166v52h348q70 0 163 3q9 0 12.5 -6.5t-1.5 -15.5q-35 -91 -190 -182q137 -62 293 -96l-31 -50q-151 36 -315 118q-147 -76 -331 -120l-26 51q175 35 326 109t194 141q-76 -4 -240 -4h-202zM84 279l-34 47q166 41 272 133t129 228q-81 -3 -256 -3h-92v50h151 q170 0 265 3q-18 -173 -128.5 -288.5t-306.5 -169.5zM718 276v188h-204v52h204v262h56v-502h-56z" />
<glyph unicode="&#xac89;" d="M82 310l-31 49q163 35 268.5 119.5t131.5 209.5q-81 -3 -254 -3h-94v49h153q169 0 264 3q-21 -166 -134 -274t-304 -153zM718 332v149h-208v52h208v245h56v-446h-56zM774 104v-48h-500v-123h520v-50h-575v390h557v-50h-502v-119h500z" />
<glyph unicode="&#xac8a;" d="M82 291l-32 48q165 39 270 127.5t131 220.5q-81 -3 -255 -3h-93v50h152q169 0 264 3q-20 -172 -131.5 -284.5t-305.5 -161.5zM718 296v174h-207v52h207v256h56v-482h-56zM667 -66h131v-51h-622v51h125l-4 251h-111v51h598v-51h-113zM353 185l4 -251h253l4 251h-261z" />
<glyph unicode="&#xac8b;" d="M82 310l-31 49q163 35 268.5 119.5t131.5 209.5q-81 -3 -254 -3h-94v49h153q169 0 264 3q-21 -166 -134 -274t-304 -153zM718 304v200h-192v52h192v222h56v-474h-56zM797 192v-47h-631v47h631zM628 311v-49h-297v49h297zM481 -142q-122 0 -192 31t-70 87t69 86.5 t193 30.5t193 -30.5t69 -86.5t-70 -87t-192 -31zM481 -96q93 0 146.5 19t53.5 53q0 33 -51 52t-149 19t-149 -19t-51 -52q0 -34 53.5 -53t146.5 -19z" />
<glyph unicode="&#xac8c;" d="M369 417h183v351h54v-876h-54v474h-204q-86 -186 -270 -302l-45 39q157 90 237 232t90 311q-64 -3 -190 -3h-92v51h141q132 0 204 3q-7 -154 -54 -280zM734 778h55v-909h-55v909z" />
<glyph unicode="&#xac90;" d="M394 492h175v276h54v-635h-54v308h-203q-91 -144 -270 -217l-37 46q136 53 227 158t106 251q-63 -3 -210 -3h-75v50h123q140 0 223 3q-6 -129 -59 -237zM298 -61h515v-52h-572v282h57v-230zM742 778h55v-666h-55v666z" />
<glyph unicode="&#xac94;" d="M278 -71h540v-50h-596v224h519v118h-519v50h575v-216h-519v-126zM400 533h167v235h54v-438h-54v153h-200q-98 -135 -275 -190l-34 48q135 39 227 130t107 214q-63 -3 -208 -3h-77v50h125q196 0 224 1q-4 -106 -56 -200zM742 778h55v-448h-55v448z" />
<glyph unicode="&#xac9c;" d="M227 206h570v-323h-570v323zM283 -67h458v222h-458v-222zM398 520h169v248h54v-502h-54v204h-198q-98 -145 -276 -209l-35 46q136 46 227.5 144.5t106.5 233.5q-63 -3 -210 -3h-75v50h123q140 0 223 3q-5 -119 -55 -215zM742 778h55v-512h-55v512z" />
<glyph unicode="&#xac9d;" d="M741 243h56v-360h-570v355h56v-107h458v112zM400 529h167v239h54v-466h-54v177h-197q-99 -144 -278 -205l-34 47q137 44 228 138.5t106 225.5q-63 -3 -209 -3h-76v50h233q32 0 114 2q-4 -110 -54 -205zM282 81v-148h460v148h-460zM742 778h55v-476h-55v476z" />
<glyph unicode="&#xac9f;" d="M399 513h168v255h54v-487h-54v182h-195q-91 -151 -277 -224l-37 46q138 54 228 155t106 245q-63 -3 -210 -3h-75v50h123q140 0 223 3q-6 -123 -54 -222zM162 -129l-34 46q156 35 240.5 113.5t84.5 189.5h60q0 -43 -14 -88q36 -75 123.5 -133.5t198.5 -80.5l-33 -47 q-106 24 -188.5 79t-125.5 129q-43 -73 -124.5 -127.5t-187.5 -80.5zM742 778h55v-602h-55v602z" />
<glyph unicode="&#xaca0;" d="M395 515h172v253h54v-502h-54v199h-202q-95 -139 -272 -204l-35 46q136 46 227.5 144.5t106.5 233.5q-63 -3 -210 -3h-75v50h123q140 0 223 3q-6 -125 -58 -220zM495 -130q-108 58 -164 177q-51 -111 -180 -177l-41 43q208 97 195 299h56q1 -43 -7 -88q33 -119 143 -187 q67 46 101 119t28 160h54q1 -45 -7 -93q16 -62 63 -115.5t121 -88.5l-41 -45q-108 53 -166 171q-45 -109 -155 -175zM742 778h55v-512h-55v512z" />
<glyph unicode="&#xaca1;" d="M493 -136q-138 0 -219.5 51t-81.5 128q0 79 81 128t220 49t220 -49t81 -128q0 -77 -81.5 -128t-219.5 -51zM493 -87q112 0 174.5 37.5t62.5 92.5q0 54 -62.5 91t-174.5 37q-114 0 -175.5 -37t-61.5 -91q0 -55 62.5 -92.5t174.5 -37.5zM398 514h169v254h54v-489h-54v185 h-197q-93 -147 -276 -218l-36 46q137 51 228 151.5t106 241.5q-63 -3 -210 -3h-75v50h123q140 0 223 3q-6 -122 -55 -221zM742 778h55v-547h-55v547z" />
<glyph unicode="&#xaca8;" d="M93 67l-44 42q182 89 282.5 231.5t117.5 308.5q-84 -3 -242 -3h-119v51h180q162 0 245 3q-14 -213 -117.5 -370t-302.5 -263zM774 -131h-56v371h-210v50h210v192h-190v50h190v246h56v-909z" />
<glyph unicode="&#xaca9;" d="M85 261l-35 46q168 46 273.5 141.5t128.5 238.5q-81 -3 -258 -3h-91v50h150q171 0 266 3q-35 -359 -434 -476zM535 557v48h183v173h56v-522h-56v124h-209v49h209v128h-183zM774 196v-330h-56v279h-519v51h575z" />
<glyph unicode="&#xacaa;" d="M85 269l-35 47q168 43 273.5 137t128.5 234q-81 -3 -257 -3h-92v50h151q170 0 265 3q-17 -176 -127.5 -293.5t-306.5 -174.5zM535 557v48h183v173h56v-517h-56v121h-210v48h210v127h-183zM774 201v-335h-56v281h-224v54h280zM450 201v-335h-55v281h-224v54h279z" />
<glyph unicode="&#xacac;" d="M88 224l-38 45q365 115 403 413q-81 -3 -260 -3h-90v50h149q172 0 267 3q-29 -372 -431 -508zM718 372v154h-179v48h179v205h56v-665h-56v210h-205v48h205zM290 -60h499v-52h-556v276h57v-224z" />
<glyph unicode="&#xacaf;" d="M85 269l-35 47q168 43 273.5 137t128.5 234q-81 -3 -257 -3h-92v50h151q170 0 265 3q-17 -176 -127.5 -293.5t-306.5 -174.5zM535 563v48h183v167h56v-509h-56v117h-209v48h209v129h-183zM792 -66v-51h-571v326h555v-53h-498v-222h514z" />
<glyph unicode="&#xacb0;" d="M82 310l-31 49q163 35 268.5 119.5t131.5 209.5q-81 -3 -254 -3h-94v49h153q169 0 264 3q-21 -166 -134 -274t-304 -153zM545 584v48h173v146h56v-442h-56v93h-199v48h199v107h-173zM268 -71h527v-50h-583v225h506v123h-506v50h562v-221h-506v-127z" />
<glyph unicode="&#xacb8;" d="M84 279l-34 47q166 41 272 133t129 228q-81 -3 -256 -3h-92v50h151q170 0 265 3q-18 -173 -128.5 -288.5t-306.5 -169.5zM545 573v49h173v156h56v-502h-56v126h-199v49h199v122h-173zM219 216h555v-333h-555v333zM276 -66h442v231h-442v-231z" />
<glyph unicode="&#xacb9;" d="M82 291l-32 48q165 39 270 127.5t131 220.5q-81 -3 -255 -3h-93v50h152q169 0 264 3q-20 -172 -131.5 -284.5t-305.5 -161.5zM545 573v48h173v157h56v-466h-56v85h-199v50h199v126h-173zM718 254h56v-371h-555v365h57v-117h442v123zM275 81v-147h444v147h-444z" />
<glyph unicode="&#xacbb;" d="M87 236l-37 45q361 111 402 406q-81 -3 -259 -3h-90v50h149q172 0 267 3q-30 -369 -432 -501zM545 558v48h173v172h56v-609h-56v204h-199v49h199v136h-173zM160 -129l-34 46q156 36 240.5 117.5t84.5 195.5h60q0 -43 -14 -90q36 -78 123 -138t199 -84l-33 -47 q-106 24 -188.5 81t-125.5 133q-43 -75 -125 -131.5t-187 -82.5z" />
<glyph unicode="&#xacbc;" d="M499 -130q-110 60 -164 178q-51 -112 -180 -178l-41 43q208 97 195 301h56q1 -48 -6 -88q33 -119 142 -188q141 102 129 280h54q1 -46 -7 -94q18 -62 64.5 -115.5t119.5 -89.5l-41 -45q-108 55 -166 172q-45 -110 -155 -176zM84 279l-34 47q166 41 272 133t129 228 q-81 -3 -256 -3h-92v50h151q170 0 265 3q-18 -173 -128.5 -288.5t-306.5 -169.5zM545 570v48h173v160h56v-510h-56v114h-199v50h199v138h-173z" />
<glyph unicode="&#xacbd;" d="M85 261l-35 46q168 46 273.5 141.5t128.5 238.5q-81 -3 -258 -3h-91v50h150q171 0 266 3q-35 -359 -434 -476zM545 571v48h173v159h56v-542h-56v154h-199v49h199v132h-173zM485 -137q-135 0 -213.5 51t-78.5 131t78.5 129.5t213.5 49.5t213.5 -49.5t78.5 -129.5 t-78.5 -131t-213.5 -51zM484 -88q112 0 174 37.5t62 93.5q0 57 -62 94t-174 37t-173 -37t-61 -94q0 -56 61.5 -93.5t172.5 -37.5z" />
<glyph unicode="&#xacc1;" d="M82 310l-31 49q163 35 268.5 119.5t131.5 209.5q-81 -3 -254 -3h-94v49h153q169 0 264 3q-21 -166 -134 -274t-304 -153zM545 574v48h173v156h56v-446h-56v79h-199v49h199v114h-173zM774 104v-48h-500v-123h520v-50h-575v390h557v-50h-502v-119h500z" />
<glyph unicode="&#xacc4;" d="M613 -108h-54v352h-163v49h163v195h-164q-73 -273 -313 -424l-45 39q155 90 236 232.5t91 310.5q-64 -3 -193 -3h-97v51h146q135 0 207 3q-5 -90 -20 -160h152v231h54v-876zM734 778h55v-909h-55v909z" />
<glyph unicode="&#xacc8;" d="M96 224l-37 46q136 53 225 157.5t104 251.5q-63 -3 -208 -3h-73v50h121q138 0 221 3q-5 -87 -26 -155h148v194h54v-635h-54v210h-158v48h158v134h-165q-84 -207 -310 -301zM298 -61h515v-52h-572v282h57v-230zM742 778h55v-665h-55v665z" />
<glyph unicode="&#xaccc;" d="M278 -71h540v-50h-596v222h519v116h-519v50h575v-214h-519v-124zM91 295l-33 46q135 38 225 129.5t105 214.5q-63 -3 -206 -3h-75v50h123q138 0 221 3q-3 -63 -21 -119h141v152h54v-442h-54v84h-158v49h158v108h-160q-43 -96 -125.5 -166.5t-194.5 -105.5zM742 778h55 v-452h-55v452z" />
<glyph unicode="&#xacd5;" d="M741 243h56v-360h-570v355h56v-105h458v110zM92 275l-34 46q135 44 225 138.5t105 225.5q-63 -3 -207 -3h-74v50h122q138 0 221 3q-3 -61 -20 -121h141v154h54v-466h-54v107h-158v49h158v107h-158q-42 -101 -124.5 -175.5t-196.5 -114.5zM282 83v-150h460v150h-460z M742 778h55v-476h-55v476z" />
<glyph unicode="&#xacd7;" d="M625 270h-54v111h-158v49h158v120h-159q-80 -216 -317 -311l-37 46q137 53 225.5 154t104.5 246q-63 -3 -208 -3h-73v50h121q138 0 221 3q-3 -72 -21 -135h143v168h54v-498zM171 -129l-34 46q156 35 240.5 113.5t84.5 189.5h60q0 -43 -14 -88q36 -75 123.5 -133.5 t198.5 -80.5l-33 -47q-106 24 -188.5 79t-125.5 129q-43 -73 -124.5 -127.5t-187.5 -80.5zM742 778h55v-611h-55v611z" />
<glyph unicode="&#xace0;" d="M676 194h-56q54 210 56 452h-524v52h581q-5 -297 -57 -504zM422 55h444v-50h-844v50h340v341h60v-341z" />
<glyph unicode="&#xace1;" d="M142 700v52h591q-3 -136 -30 -329h-57q28 169 29 277h-533zM360 347v203h60v-203h457v-50h-865v50h348zM731 170v-304h-57v254h-532v50h589z" />
<glyph unicode="&#xace4;" d="M142 700v52h591q-4 -156 -30 -353h-57q28 192 29 301h-533zM360 317v221h60v-221h457v-50h-865v50h348zM216 -65h534v-52h-592v285h58v-233z" />
<glyph unicode="&#xace7;" d="M142 700v52h591q-3 -126 -30 -309h-57q28 156 29 257h-533zM360 368v193h60v-193h457v-50h-865v50h348zM751 -66v-51h-593v315h575v-50h-519v-214h537z" />
<glyph unicode="&#xace8;" d="M142 700v52h592q-4 -134 -31 -276h-57q28 140 29 224h-533zM360 411v170h60v-170h457v-49h-865v49h348zM757 -77v-50h-600v219h519v113h-519v50h575v-211h-519v-121h544z" />
<glyph unicode="&#xacea;" d="M142 700v52h592q-3 -110 -31 -273h-57q29 140 29 221h-533zM360 413v169h60v-169h457v-49h-865v49h348zM365 209h-216v50h272v-213h-216v-124h92q89 0 147 20v-48q-57 -22 -178 -22h-117v222h216v115zM684 -77v287h-155v-287h155zM739 -126h-265v385h265v-385z" />
<glyph unicode="&#xacec;" d="M481 -130l-32 34v-9q-67 -21 -181 -21h-122v221h230v114h-230v50h286v-211h-231v-125h98q101 0 150 20v-23q86 52 127.5 144t33.5 200h57q1 -54 -6 -103q10 -74 58.5 -141.5t113.5 -100.5l-41 -44q-97 56 -156 192q-49 -130 -155 -197zM360 413v169h60v-169h457v-49h-865 v49h348zM142 700v52h592q-3 -110 -31 -273h-57q29 140 29 221h-533z" />
<glyph unicode="&#xacef;" d="M421 47h-216v-122h103q101 0 150 20v-46q-67 -21 -181 -21h-127v215h215v116h-215v50h271v-212zM796 171v-46h-343v46h343zM721 270v-48h-196v48h196zM625 88q65 0 104 -31.5t39 -82.5t-39 -82t-104 -31t-104 31t-39 82t39 82.5t104 31.5zM625 45q-42 0 -66.5 -20.5 t-24.5 -50.5q0 -31 24 -51.5t67 -20.5t67 20.5t24 51.5q0 30 -24.5 50.5t-66.5 20.5zM142 700v52h592q-3 -110 -31 -273h-57q29 140 29 221h-533zM360 413v169h60v-169h457v-49h-865v49h348z" />
<glyph unicode="&#xacf0;" d="M142 700v52h591q-3 -126 -30 -309h-57q28 156 29 257h-533zM360 368v193h60v-193h457v-50h-865v50h348zM730 197v-314h-567v314h567zM220 -66h453v213h-453v-213z" />
<glyph unicode="&#xacf1;" d="M142 700v52h591q-4 -132 -30 -294h-57q28 149 29 242h-533zM360 383v183h60v-183h457v-50h-865v50h348zM730 252v-369h-568v369h57v-111h454v111h57zM218 -66h456v158h-456v-158z" />
<glyph unicode="&#xacf3;" d="M360 355v196h60v-196h457v-50h-865v50h348zM124 -129l-34 46q157 37 246 116.5t89 191.5h60q0 -46 -15 -88q35 -76 127 -135t206 -84l-33 -47q-109 24 -195.5 80t-129.5 131q-44 -73 -129 -128.5t-192 -82.5zM142 700v52h591q-4 -141 -30 -321h-57q28 169 29 269h-533z " />
<glyph unicode="&#xacf5;" d="M142 700v52h591q-3 -126 -30 -309h-57q28 156 29 257h-533zM360 363v198h60v-198h457v-50h-865v50h348zM442 -137q-135 0 -215 50.5t-80 130.5t80 129t215 49t215 -49t80 -129t-80 -130.5t-215 -50.5zM442 -88q111 0 173 37t62 93q0 57 -61.5 93.5t-173.5 36.5 t-173.5 -36.5t-61.5 -93.5q0 -56 62 -93t173 -37z" />
<glyph unicode="&#xacf6;" d="M166 158v51h297q153 0 238 3q9 0 12.5 -6.5t-1.5 -15.5q-42 -91 -194 -177q137 -58 295 -91l-33 -50q-158 36 -317 113q-143 -70 -332 -116l-31 51q181 34 327.5 104t199.5 138q-58 -4 -200 -4h-261zM360 373v189h60v-189h457v-50h-865v50h348zM142 700v52h591 q-3 -127 -30 -304h-57q28 150 29 252h-533z" />
<glyph unicode="&#xacfc;" d="M736 413h152v-50h-152v-494h-55v909h55v-365zM164 80h-154v50h217v315h57v-314q222 7 356 28v-46q-202 -33 -476 -33zM490 252h-56q35 141 41 392h-395v50h452q-6 -296 -42 -442z" />
<glyph unicode="&#xacfd;" d="M741 163v-297h-56v246h-519v51h575zM168 281h-151v51h229v206h58v-205q205 5 341 27v-46q-194 -33 -477 -33zM741 446v-221h-55v553h55v-280h139v-52h-139zM100 693v48h441q-2 -198 -32 -324h-56q26 124 28 276h-381z" />
<glyph unicode="&#xad00;" d="M741 396v-302h-55v684h55v-330h139v-52h-139zM247 319v210h57v-208q205 5 341 27v-46q-194 -33 -477 -33h-151v50h230zM234 -62h523v-51h-581v267h58v-216zM100 689v48h441q-2 -193 -32 -318h-57q27 120 29 270h-381z" />
<glyph unicode="&#xad04;" d="M240 -71h522v-50h-578v213h501v107h-501v50h557v-205h-501v-115zM246 397v175h58v-173q205 5 341 27v-47q-215 -32 -477 -32h-151v50h229zM100 700v46h441q-2 -165 -32 -272h-56q23 87 28 226h-381zM741 509v-201h-55v470h55v-218h139v-51h-139z" />
<glyph unicode="&#xad06;" d="M741 -121h-269v373h269v-373zM264 -123h-114v214h215v111h-215v50h269v-209h-213v-116h89q91 0 147 21v-49q-57 -22 -178 -22zM686 -72v275h-161v-275h161zM246 399v173h58v-171q205 5 341 27v-47q-215 -32 -477 -32h-151v50h229zM100 700v46h441q-2 -164 -32 -271h-56 q23 87 28 225h-381zM741 511v-200h-55v467h55v-216h139v-51h-139z" />
<glyph unicode="&#xad0c;" d="M746 194l-5 -311h-555l5 311h555zM685 144h-442v-211h442v211zM168 303h-151v50h229v195h58v-193q205 5 341 27v-46q-194 -33 -477 -33zM100 699v47h441q-2 -192 -32 -314h-56q26 121 28 267h-381zM741 475v-221h-55v524h55v-252h139v-51h-139z" />
<glyph unicode="&#xad0d;" d="M685 231h56v-348h-555v343h57v-94h442v99zM242 83v-150h444v150h-444zM246 365v190h58v-188q205 5 341 27v-46q-194 -33 -477 -33h-151v50h229zM100 699v47h441q-2 -187 -32 -308h-56q23 101 28 261h-381zM741 501v-216h-55v493h55v-226h139v-51h-139z" />
<glyph unicode="&#xad0f;" d="M144 -129l-33 46q154 32 239.5 107.5t85.5 180.5h60q0 -40 -14 -84q36 -71 123.5 -127t198.5 -76l-33 -47q-107 23 -189 75t-125 123q-45 -70 -126.5 -122t-186.5 -76zM168 291h-151v50h230v190h57v-188q205 5 341 27v-46q-194 -33 -477 -33zM741 465v-292h-55v605h55 v-262h139v-51h-139zM100 691v48h441q-2 -196 -32 -322h-56q26 122 28 274h-381z" />
<glyph unicode="&#xad11;" d="M457 -137q-134 0 -214.5 49t-80.5 124t80.5 123t214.5 48t214.5 -48t80.5 -123t-80.5 -124t-214.5 -49zM457 -88q110 0 172.5 35.5t62.5 86.5q0 52 -62 87.5t-173 35.5t-173 -35.5t-62 -87.5q0 -51 62.5 -86.5t172.5 -35.5zM168 290h-151v51h229v200h58v-199 q205 5 341 27v-46q-194 -33 -477 -33zM741 480v-264h-55v562h55v-246h139v-52h-139zM100 698v48h441q-2 -196 -32 -322h-56q26 122 28 274h-381z" />
<glyph unicode="&#xad18;" d="M735 778h54v-909h-54v484h-142v-461h-53v876h53v-366h142v376zM399 259h-54q25 132 31 375h-305v50h360q-6 -262 -32 -425zM123 90h-107v49h170v265h53v-263q158 5 261 23v-46q-153 -28 -377 -28z" />
<glyph unicode="&#xad1c;" d="M744 778h54v-660h-54v320h-133v-300h-53v630h53v-281h133v291zM269 -63h545v-50h-602v257h57v-207zM148 256h-118v48h173v212h53v-210q169 6 263 24v-46q-152 -28 -371 -28zM85 673v48h360q-2 -197 -28 -328h-53q24 112 26 280h-305z" />
<glyph unicode="&#xad20;" d="M279 -71h540v-50h-596v214h519v106h-519v50h575v-204h-519v-116zM744 778h54v-470h-54v193h-133v-193h-53v460h53v-218h133v228zM148 344h-118v48h173v180h53v-178q169 6 263 24v-47q-147 -27 -371 -27zM85 695v46h361q-2 -169 -31 -275h-53q23 87 28 229h-305z" />
<glyph unicode="&#xad29;" d="M742 226h56v-343h-575v338h57v-93h462v98zM279 76v-144h464v144h-464zM558 768h53v-218h133v228h54v-498h-54v221h-133v-221h-53v488zM148 308h-118v49h173v206h53v-205q169 6 263 24v-47q-147 -27 -371 -27zM85 694v47h361q-2 -194 -31 -311h-54q24 100 29 264h-305z " />
<glyph unicode="&#xad2c;" d="M487 -131q-109 52 -167 166q-52 -108 -177 -166l-40 43q205 88 191 282h56q1 -40 -7 -85q15 -52 53.5 -100.5t92.5 -77.5q64 40 101 113.5t31 153.5h54q1 -45 -8 -91q35 -124 181 -190l-40 -44q-110 51 -164 162q-50 -108 -157 -166zM744 778h54v-536h-54v253h-133v-253 h-53v526h53v-223h133v233zM148 301h-118v50h173v197h53v-196q175 6 263 23v-46q-152 -28 -371 -28zM85 694v47h361q-2 -196 -31 -313h-54q27 116 29 266h-305z" />
<glyph unicode="&#xad2d;" d="M494 -137q-138 0 -219.5 48t-81.5 122t81 121t220 47q138 0 220.5 -47t82.5 -121t-82.5 -122t-220.5 -48zM494 -90q113 0 177.5 35.5t64.5 85.5q0 51 -63.5 86t-178.5 35q-114 0 -177 -35t-63 -86q0 -50 64 -85.5t176 -35.5zM744 778h54v-567h-54v269h-133v-239h-53v527 h53v-238h133v248zM148 291h-118v49h173v198h53v-197q169 6 263 24v-46q-152 -28 -371 -28zM85 693v48h361q-2 -198 -31 -319h-54q27 120 29 271h-305z" />
<glyph unicode="&#xad34;" d="M267 130v327h57v-326q223 5 375 28v-46q-190 -33 -474 -33h-189v50h231zM743 778h55v-909h-55v909zM528 252h-56q35 141 41 395h-412v51h469q-6 -304 -42 -446z" />
<glyph unicode="&#xad35;" d="M285 334v207h57v-206q219 5 357 28v-46q-196 -34 -473 -34h-187v51h186h18h22.5h19.5zM798 165v-299h-56v248h-530v51h586zM127 696v50h455q-2 -194 -32 -321h-56q23 105 28 271h-395zM798 778v-551h-55v551h55z" />
<glyph unicode="&#xad38;" d="M285 313v210h57v-209q219 5 357 28v-47q-190 -33 -473 -33h-187v51h186h18h22.5h19.5zM280 -62h534v-51h-591v267h57v-216zM127 687v50h455q-2 -198 -32 -323h-57q23 102 29 273h-395zM798 778v-684h-55v684h55z" />
<glyph unicode="&#xad3c;" d="M287 -71h532v-50h-588v214h511v113h-511v50h567v-211h-511v-116zM226 348h-187v50h239v174h57v-173q215 5 364 28v-47q-210 -32 -473 -32zM127 697v49h455q-2 -165 -32 -272h-56q23 86 28 223h-395zM798 315h-55v463h55v-463z" />
<glyph unicode="&#xad44;" d="M798 187v-304h-570v304h570zM742 137h-457v-204h457v204zM226 298h-187v51h246v199h57v-198q218 7 357 30v-48q-196 -34 -473 -34zM127 697v49h455q-2 -184 -32 -307h-56q23 101 28 258h-395zM798 247h-55v531h55v-531z" />
<glyph unicode="&#xad45;" d="M742 229h56v-346h-570v339h57v-94h457v101zM284 79v-146h459v146h-459zM226 310h-187v51h186h18h22.5h19.5v192h57v-191q219 5 357 28v-47q-190 -33 -473 -33zM127 697v49h454q-2 -181 -32 -302h-56q23 101 28 253h-394zM798 283h-55v495h55v-495z" />
<glyph unicode="&#xad47;" d="M176 -129l-33 46q154 32 239.5 107.5t85.5 180.5h60q0 -40 -14 -84q36 -71 123.5 -127t198.5 -76l-33 -47q-107 23 -189 75t-125 123q-45 -70 -126.5 -122t-186.5 -76zM226 295h-187v51h246v190h57v-189q226 6 357 27v-46q-190 -33 -473 -33zM127 697v49h455 q-2 -184 -32 -311h-56q23 106 28 262h-395zM798 778v-605h-55v605h55z" />
<glyph unicode="&#xad49;" d="M494 -137q-138 0 -218.5 49t-80.5 125t80.5 124t218.5 48t219.5 -48t81.5 -124q0 -75 -81.5 -124.5t-219.5 -49.5zM494 -89q112 0 176 36.5t64 86.5q0 53 -63 89t-177 36t-176 -36t-62 -89q0 -51 63 -87t175 -36zM226 295h-187v51h246v190h57v-189q226 6 357 27v-46 q-190 -33 -473 -33zM127 697v49h455q-2 -184 -32 -311h-56q23 106 28 262h-395zM798 778v-560h-55v560h55z" />
<glyph unicode="&#xad50;" d="M681 197h-56q53 206 55 449h-524v52h581q-5 -298 -56 -501zM483 53v334h55v-334h328v-50h-844v50h244v334h54v-334h163z" />
<glyph unicode="&#xad54;" d="M488 315v222h57v-222h332v-50h-865v50h249v222h57v-222h170zM142 700v52h591q-4 -156 -30 -353h-57q28 192 29 301h-533zM216 -65h534v-52h-592v283h58v-231z" />
<glyph unicode="&#xad58;" d="M488 406v167h57v-167h332v-49h-865v49h249v167h57v-167h170zM142 700v52h592q-4 -134 -31 -276h-57q28 140 29 224h-533zM757 -77v-50h-600v218h519v112h-519v50h575v-210h-519v-120h544z" />
<glyph unicode="&#xad61;" d="M488 379v179h57v-179h332v-50h-865v50h249v179h57v-179h170zM142 700v52h591q-4 -132 -30 -294h-57q28 149 29 242h-533zM730 252v-369h-568v369h57v-111h454v111h57zM218 -66h456v158h-456v-158z" />
<glyph unicode="&#xad63;" d="M488 350v193h57v-193h332v-50h-865v50h249v193h57v-193h170zM124 -129l-34 46q157 37 246 116.5t89 191.5h60q0 -46 -15 -88q35 -76 127 -135t206 -84l-33 -47q-109 24 -195.5 80t-129.5 131q-44 -73 -129 -128.5t-192 -82.5zM142 700v52h591q-4 -141 -30 -321h-57 q28 169 29 269h-533z" />
<glyph unicode="&#xad6c;" d="M421 276h-399v50h628q35 208 35 362h-528v51h585q0 -220 -37 -413h161v-50h-387v-402h-58v402z" />
<glyph unicode="&#xad6d;" d="M877 380h-400v-205h254v-309h-57v259h-532v50h276v205h-406v50h639q23 163 23 271h-526v51h585q-4 -178 -26 -322h170v-50z" />
<glyph unicode="&#xad70;" d="M877 330h-381v-243h-59v243h-425v50h636q27 181 27 321h-527v51h585q-4 -189 -28 -372h172v-50zM216 -65h534v-52h-592v285h58v-233z" />
<glyph unicode="&#xad73;" d="M877 376h-400v-175h256v-50h-519v-217h537v-51h-593v318h260v175h-406v50h638q24 146 24 275h-526v51h585q-4 -172 -26 -326h170v-50z" />
<glyph unicode="&#xad74;" d="M877 412h-400v-144h255v-218h-519v-127h544v-50h-600v225h519v120h-519v50h261v144h-406v49h639q22 133 23 239h-526v52h585q-4 -160 -25 -291h169v-49z" />
<glyph unicode="&#xad75;" d="M877 416h-400v-144h263v-406h-56v356h-212v20h-38v-190h-237v-129h155q99 0 146 19v-48q-53 -21 -175 -21h-182v227h237v122h-237v50h277v144h-406v49h639q22 132 23 235h-526v52h585q-4 -150 -26 -287h170v-49z" />
<glyph unicode="&#xad76;" d="M148 700v52h585q-4 -150 -26 -287h170v-49h-400v-144h265v-398h-268v368h-53v-191h-213v-129h89q89 0 147 20v-48q-57 -22 -178 -22h-114v227h213v123h-213v50h266v144h-406v49h639q22 132 23 235h-526zM687 -77v300h-158v-300h158z" />
<glyph unicode="&#xad7b;" d="M148 700v52h585q-4 -150 -26 -287h170v-49h-400v-174h-56v-189h-216v-128h103q101 0 150 20v-46q-67 -21 -181 -21h-127v221h215v121h-215v50h268v146h-406v49h639q22 132 23 235h-526zM625 92q65 0 104 -32.5t39 -83.5t-39 -83t-104 -32t-104 32t-39 83t39 83.5 t104 32.5zM625 49q-41 0 -66 -21.5t-25 -51.5q0 -31 24 -52.5t67 -21.5t67 21.5t24 52.5q0 30 -25 51.5t-66 21.5zM796 177v-46h-343v46h343zM721 279v-48h-196v48h196z" />
<glyph unicode="&#xad7c;" d="M877 380h-400v-175h254v-322h-573v322h260v175h-406v50h639q23 157 23 271h-526v51h585q-4 -171 -26 -322h170v-50zM215 -66h459v221h-459v-221z" />
<glyph unicode="&#xad7d;" d="M731 262v-379h-573v379h57v-113h459v113h57zM877 389h-400v-155h-59v155h-406v50h639q22 141 23 261h-526v52h585q-4 -164 -26 -313h170v-50zM214 -66h461v166h-461v-166z" />
<glyph unicode="&#xad7f;" d="M877 363h-398v-131h-59v131h-408v50h639q23 168 23 288h-526v51h585q-4 -179 -26 -339h170v-50zM130 -129l-33 46q156 33 245.5 106.5t89.5 175.5h60q0 -46 -16 -84q37 -68 129.5 -122.5t203.5 -74.5l-32 -47q-108 22 -194.5 74.5t-130.5 121.5q-46 -69 -130.5 -120.5 t-191.5 -75.5z" />
<glyph unicode="&#xad81;" d="M877 380h-400v-167q121 -6 192.5 -54t71.5 -119q0 -77 -80.5 -127t-214.5 -50t-214.5 50t-80.5 127q0 73 72 120t195 53v167h-406v50h639q23 157 23 271h-526v51h585q-4 -171 -26 -322h170v-50zM446 -89q110 0 172.5 37t62.5 90t-62 89.5t-173 36.5t-173 -36.5t-62 -89.5 t62.5 -90t172.5 -37z" />
<glyph unicode="&#xad82;" d="M877 384h-400v-171h4q143 0 228 3q9 0 12.5 -6.5t-1.5 -15.5q-43 -94 -196 -179q132 -59 291 -93l-33 -50q-153 36 -313 115q-146 -72 -334 -118l-31 51q182 37 329.5 107.5t200.5 137.5q-79 -4 -250 -4h-212v52h246v171h-406v50h639q22 147 23 266h-526v52h585 q-5 -177 -25 -318h169v-50z" />
<glyph unicode="&#xad88;" d="M262 293h-223v51h175q141 0 243 6q29 124 34 321h-370v52h426q-6 -234 -35 -370q93 6 180 20v-47q-135 -23 -328 -30v-407h-55v405q-15 -1 -47 -1zM743 778h55v-909h-55v244h-225v50h225v615z" />
<glyph unicode="&#xad89;" d="M313 203v200h-273v49h174q161 0 270 8q22 105 24 235h-381v50h440q-2 -160 -25 -281q100 9 150 18v-46q-149 -23 -321 -31v-202h-58zM798 143v-277h-56v226h-535v51h591zM798 778v-573h-55v80h-221v48h221v445h55z" />
<glyph unicode="&#xad8c;" d="M266 366h-226v50h174q174 0 267 7q21 89 27 264h-381v50h440q-2 -182 -28 -310q93 7 153 17v-45q-146 -24 -316 -30v-232h-58v230q-17 -1 -52 -1zM798 778v-695h-55v151h-221v49h221v495h55zM251 -62h563v-51h-620v262h57v-211z" />
<glyph unicode="&#xad90;" d="M282 -71h537v-50h-593v206h516v100h-516v50h572v-198h-516v-108zM263 440h-223v47h174q164 0 274 8q18 90 20 201h-381v49h440q-2 -145 -23 -246q75 6 148 17v-43q-144 -23 -321 -30v-168h-58v166q-17 -1 -50 -1zM798 778v-494h-55v56h-221v46h221v392h55z" />
<glyph unicode="&#xad9c;" d="M215 413h-175v49h174q161 0 271 8q21 103 23 225h-381v50h440q-2 -152 -24 -271q102 10 149 18v-46q-130 -23 -321 -30v-207h-58v206q-66 -2 -98 -2zM503 -131q-107 49 -164 153q-50 -96 -180 -153l-40 43q207 83 194 255h56q1 -33 -6 -75q15 -48 52 -90t90 -68 q65 37 100 99.5t29 137.5h54q1 -40 -7 -82q18 -53 64.5 -98t118.5 -74l-40 -44q-110 48 -165 149q-46 -99 -156 -153zM798 778v-557h-55v72h-221v50h221v435h55z" />
<glyph unicode="&#xad9d;" d="M496 -137q-138 0 -218.5 46t-80.5 118q0 71 80.5 116.5t218.5 45.5t219.5 -45.5t81.5 -116.5t-81.5 -117.5t-219.5 -46.5zM496 -90q112 0 176 33.5t64 80.5q0 49 -63 82.5t-177 33.5t-176 -33.5t-62 -82.5q0 -47 63 -80.5t175 -33.5zM264 410h-224v49h174q161 0 271 8 q21 104 23 230h-381v48h440q-2 -152 -24 -274q102 10 149 18v-46q-145 -24 -321 -30v-199h-58v197q-17 -1 -49 -1zM798 778v-585h-55v101h-221v50h221v434h55z" />
<glyph unicode="&#xada4;" d="M231 -106v423h-215v50h154q113 0 176 4q26 109 31 301h-307v49h364q-5 -217 -33 -346q74 5 134 15v-45q-116 -21 -250 -26v-425h-54zM579 -116v239h-168v50h168v595h53v-884h-53zM798 -131h-54v909h54v-909z" />
<glyph unicode="&#xadb7;" d="M171 398h-148v47h148q112 0 195 6q21 107 23 235h-294v48h352q-2 -156 -24 -279q84 9 111 14v-43q-103 -20 -233 -25v-219h-54v217q-13 0 -38.5 -0.5t-37.5 -0.5zM163 -129l-31 46q155 29 239.5 97.5t84.5 165.5h60q0 -37 -14 -77q36 -66 123 -116t198 -70l-30 -46 q-108 21 -191 69t-126 114q-42 -65 -124 -112.5t-189 -70.5zM576 212v79h-148v47h148v430h53v-556h-53zM798 155h-54v623h54v-623z" />
<glyph unicode="&#xadc0;" d="M265 292h-226v52h175q145 0 252 6q28 125 33 321h-370v52h426q-6 -231 -34 -369q101 7 171 19v-48q-130 -23 -318 -30v-406h-58v404q-17 -1 -51 -1zM744 778h55v-909h-55v909z" />
<glyph unicode="&#xadc1;" d="M262 391h-224v51h176q177 0 273 7q19 102 21 246h-381v50h440q-2 -161 -23 -291q85 6 150 18v-48q-131 -23 -325 -30v-180h-58v178q-17 -1 -49 -1zM798 154v-288h-56v236h-535v52h591zM798 778v-562h-56v562h56z" />
<glyph unicode="&#xadc4;" d="M269 356h-231v51h176q134 0 267 7q21 98 27 273h-381v50h440q-2 -179 -29 -319q106 9 156 18v-47q-125 -20 -310 -29v-223h-58v220q-19 -1 -57 -1zM259 -62h555v-51h-612v262h57v-211zM798 778v-689h-56v689h56z" />
<glyph unicode="&#xadc8;" d="M282 -71h537v-50h-593v208h516v102h-516v50h572v-200h-516v-110zM269 421h-231v50h176q164 0 274 8q18 84 20 216h-381v50h440q-2 -150 -22 -262q77 6 149 17v-46q-125 -20 -310 -29v-146h-58v143q-19 -1 -57 -1zM798 778v-490h-56v490h56z" />
<glyph unicode="&#xadd0;" d="M798 177v-294h-570v294h570zM742 128h-457v-196h457v196zM269 398h-231v51h176q163 0 273 8q19 98 21 238h-381v50h440q-2 -166 -23 -284q76 6 150 17v-47q-123 -21 -310 -30v-176h-58v174q-19 -1 -57 -1zM798 778v-541h-56v541h56z" />
<glyph unicode="&#xadd1;" d="M742 216h56v-333h-570v328h57v-85h457v90zM269 405h-231v51h176q162 0 272 8q20 99 22 231h-381v50h440q-2 -153 -23 -277q104 10 150 18v-48q-125 -20 -310 -29v-159h-58v156q-19 -1 -57 -1zM284 78v-146h459v146h-459zM798 778v-508h-56v508h56z" />
<glyph unicode="&#xadd3;" d="M269 374h-231v52h176q138 0 272 7q21 108 23 255h-382v50h441q-2 -173 -25 -301q72 5 151 17v-47q-125 -20 -310 -29v-201h-58v198q-19 -1 -57 -1zM178 -129l-32 46q155 30 240 101.5t85 171.5h60q0 -38 -14 -80q36 -68 123.5 -121t197.5 -72l-31 -46q-107 22 -190 72 t-126 117q-43 -67 -125 -116.5t-188 -72.5zM798 778v-590h-56v590h56z" />
<glyph unicode="&#xaddc;" d="M642 276v-400h-56v400h-262v-400h-57v400h-245v50h628q35 208 35 362h-528v51h585q0 -220 -37 -413h161v-50h-224z" />
<glyph unicode="&#xade0;" d="M877 330h-258v-245h-58v245h-178v-245h-56v245h-315v50h637q26 182 26 321h-527v51h585q-4 -188 -27 -372h171v-50zM216 -65h534v-52h-592v285h58v-233z" />
<glyph unicode="&#xade4;" d="M757 -77v-50h-600v225h519v120h-519v50h108v146h-253v49h639q22 134 23 237h-526v52h585q-5 -158 -25 -289h169v-49h-254v-146h109v-218h-519v-127h544zM566 268v146h-244v-146h244z" />
<glyph unicode="&#xadf8;" d="M22 14v51h583q48 253 57 578h-508v52h569q-9 -347 -60 -630h203v-51h-844z" />
<glyph unicode="&#xadf9;" d="M12 354v50h637q25 162 25 296h-526v52h585q-4 -173 -27 -348h171v-50h-865zM731 185v-319h-57v269h-532v50h589z" />
<glyph unicode="&#xadfc;" d="M12 320v50h635q28 189 28 330h-527v52h585q-4 -187 -29 -382h173v-50h-865zM216 -65h534v-52h-592v285h58v-233z" />
<glyph unicode="&#xadff;" d="M12 360v50h636q26 166 26 289h-526v53h585q-4 -174 -28 -342h172v-50h-865zM751 -67v-51h-593v328h575v-50h-519v-227h537z" />
<glyph unicode="&#xae00;" d="M757 -77v-50h-600v228h519v123h-519v50h575v-221h-519v-130h544zM12 402v49h638q23 145 24 249h-526v52h585q-4 -160 -27 -301h171v-49h-865z" />
<glyph unicode="&#xae01;" d="M12 405v49h638q22 121 24 246h-526v52h585q-4 -155 -26 -298h170v-49h-865zM323 -127h-182v231h237v124h-237v50h293v-222h-237v-133h155q99 0 146 19v-48q-53 -21 -175 -21zM740 278v-412h-56v362h-212v50h268z" />
<glyph unicode="&#xae08;" d="M731 211v-328h-573v328h573zM215 -66h459v227h-459v-227zM12 368v50h637q25 155 25 282h-526v52h585q-4 -164 -27 -334h171v-50h-865z" />
<glyph unicode="&#xae09;" d="M731 265v-382h-573v382h57v-119h459v119h57zM12 371v50h636q25 151 26 279h-526v52h585q-4 -169 -28 -331h172v-50h-865zM214 -66h461v163h-461v-163z" />
<glyph unicode="&#xae0b;" d="M12 346v50h636q26 173 26 304h-526v52h585q-4 -183 -28 -356h172v-50h-865zM141 -129l-34 46q156 37 245.5 119t89.5 194h60q0 -46 -15 -89q35 -77 127.5 -138t205.5 -85l-33 -47q-108 25 -194 82.5t-131 133.5q-43 -75 -128.5 -132.5t-192.5 -83.5z" />
<glyph unicode="&#xae0d;" d="M445 -137q-135 0 -214.5 51.5t-79.5 131.5q0 79 80 129.5t214 50.5t214 -50.5t80 -129.5q0 -80 -79.5 -131.5t-214.5 -51.5zM445 -88q110 0 172 37.5t62 94.5t-61 94.5t-173 37.5t-173 -37.5t-61 -94.5t62 -94.5t172 -37.5zM12 354v50h635q27 175 27 296h-526v52h585 q-4 -167 -29 -348h173v-50h-865z" />
<glyph unicode="&#xae14;" d="M227 90h-190v50h189q131 0 231 6q39 241 44 501h-390v49h448q-5 -261 -47 -547q131 10 189 21v-47q-191 -33 -474 -33zM743 778h55v-909h-55v909z" />
<glyph unicode="&#xae30;" d="M82 67l-42 42q184 87 287 229.5t122 310.5q-125 -3 -246 -3h-125v51h186q167 0 250 3q-36 -422 -432 -633zM775 -131h-58v909h58v-909z" />
<glyph unicode="&#xae31;" d="M86 268l-35 46q353 104 407 373q-81 -3 -260 -3h-95v50h154q173 0 268 3q-20 -170 -132 -289.5t-307 -179.5zM774 256h-57v522h57v-522zM774 196v-330h-56v279h-519v51h575z" />
<glyph unicode="&#xae34;" d="M90 226l-38 44q357 119 406 411q-81 -3 -261 -3h-94v50h153q173 0 268 3q-37 -367 -434 -505zM774 113h-57v665h57v-665zM290 -61h499v-52h-556v270h57v-218z" />
<glyph unicode="&#xae37;" d="M85 278l-34 46q348 98 407 363q-81 -3 -259 -3h-96v50h155q173 0 268 3q-21 -168 -133 -284.5t-308 -174.5zM774 271h-57v507h57v-507zM792 -66v-51h-571v328h555v-53h-498v-224h514z" />
<glyph unicode="&#xae38;" d="M82 314l-31 49q343 82 408 325q-81 -3 -258 -3h-98v49h157q173 0 268 3q-23 -158 -140 -266q-116 -107 -306 -157zM774 340h-57v438h57v-438zM268 -71h527v-50h-583v227h506v125h-506v50h562v-223h-506v-129z" />
<glyph unicode="&#xae3a;" d="M82 315l-31 49q344 82 408 324q-81 -3 -258 -3h-98v49h157q173 0 268 3q-23 -157 -139 -265t-307 -157zM774 340h-57v438h57v-438zM774 -117h-271v400h271v-400zM719 -68v302h-163v-302h163zM296 -119h-117v226h217v126h-217v50h271v-224h-215v-128h91q94 0 147 21v-49 q-57 -22 -177 -22z" />
<glyph unicode="&#xae40;" d="M84 282l-33 47q348 99 407 358q-81 -3 -259 -3h-96v50h155q173 0 268 3q-21 -165 -135 -282t-307 -173zM774 278h-57v500h57v-500zM219 218h555v-335h-555v335zM276 -66h442v233h-442v-233z" />
<glyph unicode="&#xae41;" d="M83 298l-32 48q163 41 268 126.5t139 214.5q-81 -3 -258 -3h-97v50h156q173 0 268 3q-22 -160 -138 -274.5t-306 -164.5zM774 315h-57v463h57v-463zM718 257h56v-374h-555v368h57v-108h442v114zM275 93v-159h444v159h-444z" />
<glyph unicode="&#xae43;" d="M87 236l-37 45q361 111 402 406q-81 -3 -259 -3h-90v50h149q172 0 267 3q-30 -369 -432 -501zM170 -129l-34 46q152 36 238.5 125t86.5 204h60q0 -49 -17 -100q34 -79 123 -141.5t202 -86.5l-33 -47q-109 24 -192 82.5t-126 137.5q-45 -77 -125.5 -135.5t-182.5 -84.5z M774 169h-57v609h57v-609z" />
<glyph unicode="&#xae45;" d="M86 268l-35 46q353 104 407 373q-81 -3 -260 -3h-95v50h154q173 0 268 3q-20 -170 -132 -289.5t-307 -179.5zM774 252h-57v526h57v-526zM485 -137q-134 0 -213 52t-79 133q0 80 79 131t213 51t213 -51t79 -131q0 -81 -79 -133t-213 -52zM485 -88q110 0 171 39t61 95 q0 57 -60.5 95.5t-171.5 38.5t-171.5 -38.5t-60.5 -95.5q0 -56 61 -95t171 -39z" />
<glyph unicode="&#xae46;" d="M219 170v52h348q70 0 163 3q9 0 12.5 -6.5t-1.5 -15.5q-35 -91 -190 -184q141 -65 293 -98l-31 -50q-143 34 -315 120q-149 -78 -331 -122l-26 51q174 35 325.5 110.5t194.5 143.5q-76 -4 -240 -4h-202zM84 282l-33 47q348 99 407 358q-81 -3 -259 -3h-96v50h155 q173 0 268 3q-21 -165 -135 -282t-307 -173zM774 280h-57v498h57v-498z" />
<glyph unicode="&#xae4a;" d="M83 301l-32 48q341 86 407 338q-81 -3 -258 -3h-97v50h156q173 0 268 3q-22 -159 -137.5 -272.5t-306.5 -163.5zM774 283h-57v495h57v-495zM667 -66h131v-51h-622v51h125l-4 238h-111v51h598v-51h-113zM353 172l4 -238h253l4 238h-261z" />
<glyph unicode="&#xae4c;" d="M735 407h153v-52h-153v-486h-55v909h55v-371zM535 697v-38q0 -188 -50.5 -338.5t-161.5 -275.5l-51 25q117 132 162 268.5t45 310.5q-40 -3 -131 -3h-42v49h151q28 0 78 2zM273 697v-38q0 -166 -49.5 -290.5t-162.5 -230.5l-48 27q212 186 204 484q-40 -3 -124 -3h-47v49 h153q24 0 74 2z" />
<glyph unicode="&#xae4d;" d="M739 192v-326h-56v275h-519v51h575zM739 536h141v-53h-141v-231h-55v526h55v-242zM506 688q-40 -3 -127 -3h-43v49h149q26 0 76 2q0 -311 -228 -470l-46 34q113 70 164 174t55 214zM301 736q-6 -268 -240 -414l-43 38q210 115 227 328q-40 -3 -127 -3h-45v49h152 q26 0 76 2z" />
<glyph unicode="&#xae4e;" d="M739 540h141v-52h-141v-232h-55v522h55v-238zM506 688q-40 -3 -127 -3h-43v49h149q26 0 76 2q0 -140 -55 -260.5t-173 -202.5l-46 34q59 36 102.5 84t67.5 99.5t35.5 100t13.5 97.5zM301 736q-6 -266 -242 -409l-43 38q211 116 228 323q-40 -3 -126 -3h-45v49h152 q26 0 76 2zM423 196v-330h-56v279h-230v51h286zM739 196v-330h-56v279h-216v51h272z" />
<glyph unicode="&#xae50;" d="M739 493h141v-52h-141v-328h-55v665h55v-285zM244 -61h511v-52h-567v263h56v-211zM508 682q-40 -3 -127 -3h-45v49h151q26 0 76 2q0 -335 -232 -508l-48 34q118 79 170 194t55 232zM301 730q-6 -293 -237 -451l-45 37q105 60 162.5 157t63.5 209q-40 -3 -127 -3h-45v49 h152q26 0 76 2z" />
<glyph unicode="&#xae54;" d="M233 -71h527v-50h-583v228h506v124h-506v50h562v-222h-506v-130zM502 688q-40 -3 -126 -3h-40v49h146q26 0 76 2q0 -269 -223 -407l-44 35q201 109 211 324zM301 736q-2 -118 -65 -212.5t-179 -158.5l-42 39q210 106 229 284q-40 -3 -126 -3h-45v49h152q26 0 76 2z M739 565h141v-51h-141v-174h-55v438h55v-213z" />
<glyph unicode="&#xae56;" d="M739 -117h-269v400h269v-400zM262 -119h-117v227h218v125h-218v50h272v-223h-216v-129h91q92 0 148 21v-49q-57 -22 -178 -22zM684 -68v302h-161v-302h161zM502 688q-40 -3 -126 -3h-40v49h146q26 0 76 2q0 -267 -223 -405l-44 35q201 109 211 322zM301 736 q-2 -118 -65 -211.5t-179 -157.5l-42 39q107 54 163 122.5t66 159.5q-40 -3 -126 -3h-45v49h152q26 0 76 2zM739 567h141v-51h-141v-176h-55v438h55v-211z" />
<glyph unicode="&#xae5c;" d="M184 216h555v-333h-555v333zM241 -66h442v231h-442v-231zM739 543h141v-52h-141v-215h-55v502h55v-235zM504 688q-40 -3 -127 -3h-41v49h147q26 0 76 2q0 -294 -226 -447l-46 34q207 122 217 365zM301 736q-6 -260 -242 -404l-43 38q211 113 228 318q-40 -3 -126 -3h-45 v49h152q26 0 76 2z" />
<glyph unicode="&#xae5d;" d="M683 254h56v-371h-555v365h57v-111h442v117zM240 87v-153h444v153h-444zM504 688q-40 -3 -127 -3h-41v49h147q26 0 76 2q0 -285 -226 -434l-45 34q112 64 162 157.5t54 194.5zM739 547h141v-52h-141v-183h-55v466h55v-231zM301 736q-6 -255 -242 -394l-43 38 q211 111 228 308q-40 -3 -126 -3h-45v49h152q26 0 76 2z" />
<glyph unicode="&#xae5f;" d="M155 -129l-34 46q156 36 240.5 117.5t84.5 195.5h60q0 -43 -14 -90q36 -78 123 -138t199 -84l-33 -47q-106 24 -188.5 81t-125.5 133q-43 -75 -125 -131.5t-187 -82.5zM739 519h141v-51h-141v-299h-55v609h55v-259zM507 688q-40 -3 -127 -3h-44v49h150q26 0 76 2 q0 -320 -231 -489l-47 34q117 75 168.5 184t54.5 223zM301 736q-6 -283 -239 -436l-44 37q106 59 163 150.5t64 200.5q-40 -3 -127 -3h-45v49h152q26 0 76 2z" />
<glyph unicode="&#xae60;" d="M467 -130q-108 60 -164 183q-51 -117 -180 -183l-41 43q99 46 150.5 124.5t44.5 184.5h56q1 -43 -7 -91q33 -122 143 -193q67 49 101 123.5t28 164.5h54q1 -45 -7 -96q16 -63 63 -118.5t121 -92.5l-41 -45q-108 58 -166 176q-47 -115 -155 -180zM739 535h141v-52h-141 v-207h-55v502h55v-243zM504 688q-40 -3 -127 -3h-41v49h147q26 0 76 2q0 -139 -54.5 -258t-171.5 -199l-46 34q78 46 128 114.5t68 131t21 129.5zM301 736q-6 -260 -242 -404l-43 38q211 113 228 318q-40 -3 -126 -3h-45v49h152q26 0 76 2z" />
<glyph unicode="&#xae61;" d="M463 -137q-135 0 -213.5 49.5t-78.5 129.5t78.5 128t213.5 48t213.5 -48t78.5 -128t-78.5 -129.5t-213.5 -49.5zM463 -88q111 0 171.5 36.5t60.5 93.5q0 55 -60.5 90.5t-171.5 35.5t-171.5 -35.5t-60.5 -90.5q0 -57 60.5 -93.5t171.5 -36.5zM739 534h141v-53h-141v-230 h-55v527h55v-244zM506 688q-40 -3 -127 -3h-43v49h149q26 0 76 2q0 -140 -58.5 -262.5t-179.5 -206.5l-46 34q60 37 105 85.5t70.5 100.5t38.5 102t15 99zM301 736q-6 -263 -240 -409l-43 38q210 115 227 323q-40 -3 -127 -3h-45v49h152q26 0 76 2z" />
<glyph unicode="&#xae65;" d="M739 102v-48h-499v-121h520v-50h-576v384h557v-50h-501v-115h499zM502 688q-40 -3 -126 -3h-40v49h146q26 0 76 2q0 -127 -54.5 -235t-168.5 -179l-44 35q108 59 157.5 147.5t53.5 183.5zM739 558h141v-51h-141v-181h-55v452h55v-220zM301 736q-2 -118 -65 -212.5 t-179 -158.5l-42 39q210 106 229 284q-40 -3 -126 -3h-45v49h152q26 0 76 2z" />
<glyph unicode="&#xae68;" d="M740 778h54v-909h-54v475h-128v-452h-53v876h53v-373h128v383zM479 696v-38q0 -377 -178 -620l-51 25q96 132 135.5 273t39.5 312q-29 -3 -104 -3h-35v49h125q22 0 68 2zM265 696v-38q0 -335 -180 -536l-48 26q180 192 174 500q-28 -3 -104 -3h-38v49h128q22 0 68 2z" />
<glyph unicode="&#xae69;" d="M748 778h54v-532h-54v240h-130v-240h-53v522h53v-233h130v243zM797 185v-319h-56v267h-545v52h601zM429 686q-28 -3 -102 -3h-29v49h118q22 0 68 2q0 -311 -200 -478l-47 34q97 73 143 179t49 217zM272 734q-4 -138 -52.5 -241t-151.5 -181l-46 35q92 62 141 149.5 t54 189.5q-28 -3 -102 -3h-33v49h122q22 0 68 2z" />
<glyph unicode="&#xae6c;" d="M748 778h54v-665h-54v347h-130v-327h-53v635h53v-259h130v269zM288 -61h525v-52h-582v282h57v-230zM430 680q-28 -3 -103 -3h-29v49h118q22 0 68 2q0 -322 -202 -500l-48 33q69 53 115 129.5t63.5 147.5t17.5 142zM272 728q-5 -145 -52.5 -252t-148.5 -189l-47 34 q92 64 141 158t52 201q-28 -3 -102 -3h-33v49h122q22 0 68 2z" />
<glyph unicode="&#xae70;" d="M268 -71h550v-50h-606v221h529v115h-529v50h585v-213h-529v-123zM748 778h54v-454h-54v191h-130v-191h-53v444h53v-204h130v214zM429 686q-28 -3 -102 -3h-29v49h118q22 0 68 2q0 -126 -47 -237t-146 -185l-45 34q171 117 183 340zM273 734q-4 -124 -52.5 -213 t-156.5 -160l-43 37q95 58 142 127.5t54 160.5q-28 -3 -102 -3h-33v49h123q22 0 68 2z" />
<glyph unicode="&#xae78;" d="M217 206h580v-323h-580v323zM272 -67h469v221h-469v-221zM748 778h54v-512h-54v236h-130v-236h-53v502h53v-216h130v226zM429 686q-28 -3 -102 -3h-29v49h118q22 0 68 2q0 -300 -198 -461l-46 34q94 67 140.5 169.5t48.5 209.5zM272 734q-4 -133 -52.5 -231t-152.5 -176 l-45 36q184 119 195 323q-28 -3 -102 -3h-33v49h122q22 0 68 2z" />
<glyph unicode="&#xae79;" d="M741 243h56v-360h-580v355h55v-101h469v106zM271 86v-153h471v153h-471zM748 778h54v-476h-54v206h-130v-206h-53v466h53v-211h130v221zM429 686q-28 -3 -102 -3h-29v49h118q22 0 68 2q0 -284 -196 -436l-45 34q90 62 136 155.5t50 198.5zM272 734q-4 -127 -52.5 -220 t-155.5 -166l-43 37q183 115 196 301q-28 -3 -102 -3h-33v49h122q22 0 68 2z" />
<glyph unicode="&#xae7b;" d="M748 778h54v-601h-54v314h-130v-211h-53v488h53v-227h130v237zM172 -129l-34 46q156 35 240.5 113.5t84.5 189.5h60q0 -43 -14 -88q36 -75 123.5 -133.5t198.5 -80.5l-33 -47q-106 24 -188.5 79t-125.5 129q-43 -73 -124.5 -127.5t-187.5 -80.5zM429 685q-28 -3 -102 -3 h-29v49h118q22 0 68 2q0 -316 -201 -491l-48 34q100 74 147 186t47 223zM272 733q-6 -144 -53 -248.5t-149 -184.5l-47 35q91 62 140.5 153.5t53.5 196.5q-28 -3 -102 -3h-33v49h122q22 0 68 2z" />
<glyph unicode="&#xae7c;" d="M496 -130q-108 58 -164 177q-51 -111 -180 -177l-41 43q208 97 195 299h56q1 -43 -7 -88q33 -119 143 -187q67 46 101 119t28 160h54q1 -45 -7 -93q16 -62 63 -115.5t121 -88.5l-41 -45q-108 53 -166 171q-45 -109 -155 -175zM748 778h54v-512h-54v234h-130v-234h-53v502 h53v-218h130v228zM429 686q-28 -3 -102 -3h-29v49h118q22 0 68 2q0 -300 -198 -461l-46 34q94 67 140.5 169.5t48.5 209.5zM272 734q-4 -133 -52.5 -231t-152.5 -176l-45 36q184 119 195 323q-28 -3 -102 -3h-33v49h122q22 0 68 2z" />
<glyph unicode="&#xae7d;" d="M496 -136q-138 0 -220.5 51t-82.5 129t82.5 128t220.5 50t220.5 -50t82.5 -128t-82.5 -129t-220.5 -51zM496 -87q111 0 175 38.5t64 92.5t-63 91.5t-176 37.5q-114 0 -176.5 -37.5t-62.5 -91.5t63.5 -92.5t175.5 -38.5zM748 778h54v-545h-54v267h-130v-219h-53v487h53 v-218h130v228zM429 686q-28 -3 -102 -3h-29v49h118q22 0 68 2q0 -311 -200 -478l-47 34q97 73 143 179t49 217zM272 734q-4 -138 -52.5 -241t-151.5 -181l-46 35q92 62 141 149.5t54 189.5q-28 -3 -102 -3h-33v49h122q22 0 68 2z" />
<glyph unicode="&#xae84;" d="M878 281v-51h-143v-361h-55v909h55v-216h143v-51h-143v-230h143zM535 697v-38q0 -188 -50.5 -338.5t-161.5 -275.5l-51 25q117 132 162 268.5t45 310.5q-40 -3 -131 -3h-42v49h151q28 0 78 2zM273 697v-38q0 -166 -49.5 -290.5t-162.5 -230.5l-48 27q212 186 204 484 q-40 -3 -124 -3h-47v49h153q24 0 74 2z" />
<glyph unicode="&#xae85;" d="M739 192v-326h-56v275h-519v51h575zM684 778h55v-151h137v-50h-137v-131h137v-50h-137v-144h-55v526zM506 688q-40 -3 -127 -3h-43v49h149q26 0 76 2q0 -311 -228 -470l-46 34q113 70 164 174t55 214zM301 736q-6 -268 -240 -414l-43 38q210 115 227 328q-40 -3 -127 -3 h-45v49h152q26 0 76 2z" />
<glyph unicode="&#xae8c;" d="M233 -71h527v-50h-583v228h506v124h-506v50h562v-222h-506v-130zM684 778h55v-122h137v-50h-137v-110h137v-50h-137v-106h-55v438zM502 688q-40 -3 -126 -3h-40v49h146q26 0 76 2q0 -269 -223 -407l-44 35q201 109 211 324zM301 736q-2 -118 -65 -212.5t-179 -158.5 l-42 39q210 106 229 284q-40 -3 -126 -3h-45v49h152q26 0 76 2z" />
<glyph unicode="&#xaebc;" d="M729 -131v502h-160v52h160v355h55v-909h-55zM549 697v-38q0 -391 -209 -630l-50 27q115 130 159 272.5t44 320.5q-40 -3 -124 -3h-43v49h149q24 0 74 2zM293 697v-38q0 -167 -50.5 -299t-162.5 -237l-47 31q212 186 204 495q-40 -3 -130 -3h-45v49h154q27 0 77 2z" />
<glyph unicode="&#xaebd;" d="M784 196v-330h-56v279h-529v51h585zM729 256v214h-162v52h162v256h55v-522h-55zM519 688q-40 -3 -129 -3h-38v49h145q27 0 77 2q0 -141 -57 -263.5t-177 -206.5l-46 34q60 37 104 85.5t69 101t37.5 102.5t14.5 99zM317 736q-6 -265 -244 -414l-43 38q214 117 231 328 q-40 -3 -129 -3h-47v49h155q27 0 77 2z" />
<glyph unicode="&#xaebe;" d="M729 261v211h-158v52h158v254h55v-517h-55zM517 688q-40 -3 -129 -3h-36v49h143q27 0 77 2q0 -139 -57 -259.5t-175 -203.5l-46 34q113 69 166 172t57 209zM317 736q-6 -264 -246 -409l-43 38q215 118 232 323q-40 -3 -128 -3h-47v49h155q27 0 77 2zM784 200v-334h-56 v283h-234v51h290zM450 200v-334h-55v283h-224v51h279z" />
<glyph unicode="&#xaec0;" d="M729 116v336h-162v52h162v274h55v-662h-55zM285 -61h514v-52h-571v268h57v-216zM521 682q-40 -3 -129 -3h-40v49h147q27 0 77 2q0 -331 -238 -508l-48 34q119 79 173.5 195t57.5 231zM317 730q-6 -290 -241 -451l-45 37q105 61 164.5 158t65.5 208q-40 -3 -129 -3h-47v49 h155q27 0 77 2z" />
<glyph unicode="&#xaec4;" d="M268 -71h537v-50h-593v227h516v125h-516v50h572v-223h-516v-129zM729 340v163h-158v50h158v225h55v-438h-55zM516 688q-40 -3 -128 -3h-35v49h142q27 0 77 2q0 -261 -229 -404l-44 35q75 40 124.5 96.5t69.5 111t23 113.5zM318 736q-2 -117 -67 -212.5t-181 -158.5 l-42 39q214 108 233 284q-40 -3 -128 -3h-47v49h155q27 0 77 2z" />
<glyph unicode="&#xaecc;" d="M219 216h565v-333h-565v333zM276 -66h452v231h-452v-231zM729 276v211h-158v52h158v239h55v-502h-55zM517 688q-40 -3 -129 -3h-36v49h143q27 0 77 2q0 -136 -56.5 -251t-175.5 -196l-46 34q113 67 166 164.5t57 200.5zM317 736q-6 -257 -246 -404l-43 38 q215 115 232 318q-40 -3 -128 -3h-47v49h155q27 0 77 2z" />
<glyph unicode="&#xaecd;" d="M728 254h56v-371h-565v365h57v-115h452v121zM275 83v-149h454v149h-454zM729 308v178h-160v52h160v240h55v-470h-55zM517 688q-40 -3 -129 -3h-36v49h143q27 0 77 2q0 -281 -232 -434l-45 34q77 44 128 107t71 122.5t23 122.5zM317 736q-6 -252 -246 -394l-43 38 q215 114 232 308q-40 -3 -128 -3h-47v49h155q27 0 77 2z" />
<glyph unicode="&#xaecf;" d="M172 -132l-33 49q156 36 240.5 117.5t84.5 195.5h60q0 -43 -14 -90q36 -78 123 -138t199 -84l-33 -47q-106 24 -188.5 81t-125.5 133q-43 -76 -125 -133t-188 -84zM729 193v273h-153v52h153v260h55v-585h-55zM519 688q-40 -3 -129 -3h-39v49h146q27 0 77 2 q0 -315 -237 -489l-47 34q117 75 171.5 185.5t57.5 221.5zM316 736q-6 -280 -243 -436l-44 37q106 59 165 151t66 200q-40 -3 -129 -3h-47v49h155q27 0 77 2z" />
<glyph unicode="&#xaed0;" d="M496 -130q-108 60 -164 183q-51 -117 -180 -183l-41 43q99 46 150.5 124.5t44.5 184.5h56q1 -43 -7 -91q33 -122 143 -193q67 49 101 123.5t28 164.5h54q1 -45 -7 -96q16 -63 63 -118.5t121 -92.5l-41 -45q-108 58 -166 176q-47 -115 -155 -180zM729 276v201h-158v52h158 v249h55v-502h-55zM517 688q-40 -3 -129 -3h-36v49h143q27 0 77 2q0 -137 -57 -257t-175 -200l-46 34q59 35 103 82t68.5 97.5t37 99t14.5 96.5zM317 736q-6 -257 -246 -404l-43 38q215 115 232 318q-40 -3 -128 -3h-47v49h155q27 0 77 2z" />
<glyph unicode="&#xaed1;" d="M495 -137q-134 0 -213 51.5t-79 131.5q0 79 79 129.5t213 50.5t213 -50.5t79 -129.5q0 -80 -79 -131.5t-213 -51.5zM495 -88q110 0 171 37.5t61 94.5t-60.5 94.5t-171.5 37.5t-171.5 -37.5t-60.5 -94.5t61 -94.5t171 -37.5zM729 463h-163v52h163v263h55v-546h-55v231z M518 688q-40 -3 -129 -3h-38v49h145q27 0 77 2q0 -141 -57 -263.5t-177 -206.5l-46 34q60 37 104 85.5t69 101t37.5 102.5t14.5 99zM316 736q-6 -265 -244 -414l-43 38q214 117 231 328q-40 -3 -129 -3h-47v49h155q27 0 77 2z" />
<glyph unicode="&#xaed8;" d="M460 420h122v348h54v-876h-54v481h-131q-41 -192 -150 -342l-51 25q96 132 135.5 273t39.5 312q-29 -3 -104 -3h-35v49h125q22 0 68 2v-38q0 -115 -19 -231zM744 778h55v-909h-55v909zM265 689v-38q0 -335 -180 -536l-48 26q180 192 174 500q-28 -3 -104 -3h-38v49h128 q22 0 68 2z" />
<glyph unicode="&#xaed9;" d="M449 524h129v244h54v-524h-54v231h-145q-50 -130 -156 -219l-47 34q97 73 143 179t49 217q-28 -3 -102 -3h-26v49h115q22 0 68 2q0 -111 -28 -210zM797 183v-317h-56v265h-545v52h601zM272 734q-4 -138 -52.5 -241t-151.5 -181l-46 35q92 62 141 149.5t54 189.5 q-28 -3 -102 -3h-33v49h122q22 0 68 2zM747 778h55v-534h-55v534z" />
<glyph unicode="&#xaedc;" d="M450 512h128v256h54v-635h-54v330h-143q-50 -138 -160 -235l-48 33q69 53 115 129.5t63.5 147.5t17.5 142q-28 -3 -103 -3h-26v49h115q22 0 68 2q0 -119 -27 -216zM288 -61h525v-52h-582v262h57v-210zM747 778h55v-665h-55v665zM272 728q-5 -145 -52.5 -252t-148.5 -189 l-47 34q92 64 141 158t52 201q-28 -3 -102 -3h-33v49h122q22 0 68 2z" />
<glyph unicode="&#xaee8;" d="M217 206h580v-323h-580v323zM272 -67h469v221h-469v-221zM452 543h126v225h54v-502h-54v228h-142q-48 -131 -157 -221l-46 34q94 67 140.5 169.5t48.5 209.5q-28 -3 -102 -3h-26v49h115q22 0 68 2q0 -103 -25 -191zM272 734q-4 -133 -52.5 -231t-152.5 -176l-45 36 q184 119 195 323q-28 -3 -102 -3h-33v49h122q22 0 68 2zM747 778h55v-512h-55v512z" />
<glyph unicode="&#xaeeb;" d="M452 530h126v238h54v-508h-54v220h-141q-49 -142 -161 -238l-48 34q100 74 147 186t47 223q-28 -3 -102 -3h-26v49h115q22 0 68 2q0 -110 -25 -203zM172 -129l-34 46q156 35 240.5 113.5t84.5 189.5h60q0 -43 -14 -88q36 -75 123.5 -133.5t198.5 -80.5l-33 -47 q-106 24 -188.5 79t-125.5 129q-43 -73 -124.5 -127.5t-187.5 -80.5zM747 778h55v-601h-55v601zM272 733q-6 -144 -53 -248.5t-149 -184.5l-47 35q91 62 140.5 153.5t53.5 196.5q-28 -3 -102 -3h-33v49h122q22 0 68 2z" />
<glyph unicode="&#xaeed;" d="M496 -136q-138 0 -220.5 51t-82.5 129t82.5 128t220.5 50t220.5 -50t82.5 -128t-82.5 -129t-220.5 -51zM496 -87q111 0 175 38.5t64 92.5t-63 91.5t-176 37.5q-114 0 -176.5 -37.5t-62.5 -91.5t63.5 -92.5t175.5 -38.5zM462 543h116v225h54v-504h-54v230h-130 q-48 -140 -163 -238l-47 34q97 73 143 179t49 217q-28 -3 -102 -3h-26v49h115q22 0 68 2q0 -105 -23 -191zM280 734q-4 -138 -52.5 -241t-151.5 -181l-46 35q92 62 141 149.5t54 189.5q-28 -3 -102 -3h-33v49h122q22 0 68 2zM747 778h55v-545h-55v545z" />
<glyph unicode="&#xaef4;" d="M784 -131h-55v384h-166v49h166v189h-146v51h146v236h55v-909zM549 697v-38q0 -405 -205 -639l-51 25q114 128 157 275.5t43 328.5q-40 -3 -124 -3h-43v49h149q24 0 74 2zM293 697v-38q0 -343 -212 -543l-49 27q213 187 205 506q-40 -3 -130 -3h-45v49h154q27 0 77 2z" />
<glyph unicode="&#xaef8;" d="M729 395v156h-134v48h134v179h55v-662h-55v230h-158v49h158zM285 -61h514v-52h-571v268h57v-216zM518 682q-40 -3 -129 -3h-40v49h147q27 0 77 2q0 -333 -235 -508l-48 34q62 41 107.5 95.5t70.5 112.5t37 111.5t13 106.5zM314 730q-6 -292 -238 -451l-45 37 q105 60 163 157.5t64 208.5q-40 -3 -129 -3h-44v49h152q27 0 77 2z" />
<glyph unicode="&#xaefc;" d="M268 -71h537v-50h-593v225h516v123h-516v50h572v-221h-516v-127zM588 581v48h141v149h55v-442h-55v93h-167v48h167v104h-141zM512 688q-40 -3 -128 -3h-35v49h142q27 0 77 2q0 -263 -226 -404l-44 35q204 111 214 321zM314 736q-2 -118 -65.5 -212.5t-179.5 -158.5 l-42 39q211 106 230 284q-40 -3 -128 -3h-44v49h152q27 0 77 2z" />
<glyph unicode="&#xaf07;" d="M172 -132l-33 49q156 36 240.5 117.5t84.5 195.5h60q0 -43 -14 -90q36 -78 123 -138t199 -84l-33 -47q-106 24 -188.5 81t-125.5 133q-43 -76 -125 -133t-188 -84zM590 568v48h139v162h55v-585h-55v198h-165v49h165v128h-139zM516 688q-40 -3 -129 -3h-39v49h146 q27 0 77 2q0 -318 -234 -489l-47 34q117 75 170 185t56 222zM313 736q-6 -282 -240 -436l-44 37q106 59 163.5 150.5t64.5 200.5q-40 -3 -129 -3h-44v49h152q27 0 77 2z" />
<glyph unicode="&#xaf08;" d="M496 -130q-108 60 -164 183q-51 -117 -180 -183l-41 43q99 46 150.5 124.5t44.5 184.5h56q1 -43 -7 -91q33 -122 143 -193q67 49 101 123.5t28 164.5h54q1 -45 -7 -96q16 -63 63 -118.5t121 -92.5l-41 -45q-108 57 -166 177q-46 -116 -155 -181zM585 574v48h144v156h55 v-502h-55v130h-170v49h170v119h-144zM514 688q-40 -3 -129 -3h-36v49h143q27 0 77 2q0 -292 -229 -447l-46 34q113 67 164.5 164t55.5 201zM314 736q-6 -259 -243 -404l-43 38q212 113 229 318q-40 -3 -128 -3h-44v49h152q27 0 77 2z" />
<glyph unicode="&#xaf0d;" d="M784 101v-48h-510v-120h530v-50h-585v382h567v-50h-512v-114h510zM595 579v48h134v151h55v-454h-55v108h-160v48h160v99h-134zM523 688q-40 -3 -128 -3h-35v49h142q27 0 77 2q0 -126 -55.5 -234.5t-170.5 -179.5l-44 35q108 59 159 148t55 183zM325 736 q-2 -118 -65.5 -212.5t-179.5 -158.5l-42 39q211 106 230 284q-40 -3 -128 -3h-44v49h152q27 0 77 2z" />
<glyph unicode="&#xaf10;" d="M645 -108h-54v375h-130v48h130v174h-133q-30 -281 -162 -458l-51 25q94 130 130.5 269.5t36.5 315.5q-29 -3 -100 -3h-33v49h121q20 0 66 2v-38q0 -65 -4 -114h129v231h54v-876zM744 778h55v-909h-55v909zM258 689v-38q0 -169 -41 -300t-135 -236l-48 26q176 188 170 500 q-28 -3 -100 -3h-35v49h123q20 0 66 2z" />
<glyph unicode="&#xaf2c;" d="M305 199l-58 11q70 192 70 435h-210v53h265v-44q0 -257 -67 -455zM416 698h332v-47q0 -203 -36 -452h-56q35 212 35 446h-275v53zM492 55h378v-50h-848v50h409v337h61v-337z" />
<glyph unicode="&#xaf2d;" d="M684 701h-287v51h345q-5 -189 -28 -326h-56q21 125 26 275zM301 701h-187v51h245q-5 -200 -23 -326h-57q20 109 22 275zM439 344v204h60v-204h378v-50h-865v50h427zM733 170v-304h-57v254h-532v50h589z" />
<glyph unicode="&#xaf30;" d="M684 701h-287v51h345q-4 -193 -30 -345h-56q27 169 28 294zM301 701h-187v51h245q-4 -198 -25 -345h-57q22 133 24 294zM439 312v225h60v-225h378v-50h-865v50h427zM218 -65h534v-52h-592v285h58v-233z" />
<glyph unicode="&#xaf32;" d="M684 701h-287v51h345q-5 -181 -26 -301h-56q19 121 24 250zM301 701h-187v51h245q-6 -198 -21 -301h-57q18 85 20 250zM439 372v193h60v-193h378v-49h-865v49h427zM206 -117h-57v342h57v-292h43q105 0 181 23v-48q-85 -25 -224 -25zM785 156v-47h-365v47h365zM603 71 q70 0 112.5 -27t42.5 -74q0 -50 -43.5 -78.5t-111.5 -28.5t-111.5 28.5t-43.5 78.5q0 48 41.5 74.5t113.5 26.5zM603 27q-98 0 -98 -58q0 -27 26.5 -43.5t71.5 -16.5t71 16.5t26 43.5q0 58 -97 58zM703 257v-48h-202v48h202z" />
<glyph unicode="&#xaf34;" d="M694 701h-287v51h345q-4 -144 -26 -273h-56q21 129 24 222zM311 701h-192v51h250q-5 -164 -21 -273h-57q18 88 20 222zM445 406v159h60v-159h372v-49h-865v49h433zM759 -77v-50h-600v218h519v110h-519v50h575v-208h-519v-120h544z" />
<glyph unicode="&#xaf3c;" d="M684 701h-287v51h345q-5 -182 -27 -305h-56q21 135 25 254zM301 701h-187v51h245q-5 -179 -22 -305h-57q19 99 21 254zM439 361v198h60v-198h378v-50h-865v50h427zM733 191v-308h-573v308h573zM217 -66h459v207h-459v-207z" />
<glyph unicode="&#xaf3d;" d="M684 701h-287v51h345q-4 -158 -26 -292h-56q20 136 24 241zM301 701h-187v51h245q-5 -178 -21 -292h-57q18 91 20 241zM439 376v185h60v-185h378v-50h-865v50h427zM733 250v-367h-573v367h57v-122h459v122h57zM216 -66h461v145h-461v-145z" />
<glyph unicode="&#xaf3f;" d="M439 349v199h60v-199h378v-50h-865v50h427zM133 -129l-34 46q156 37 245.5 119t89.5 194h60q0 -46 -15 -89q35 -77 127.5 -138t205.5 -85l-33 -47q-108 25 -194 82.5t-131 133.5q-43 -75 -128.5 -132.5t-192.5 -83.5zM684 701h-287v51h345q-4 -179 -28 -317h-56 q22 127 26 266zM301 701h-187v51h245q-5 -189 -23 -317h-57q20 110 22 266z" />
<glyph unicode="&#xaf41;" d="M684 701h-287v51h345q-5 -187 -27 -310h-56q21 133 25 259zM301 701h-187v51h245q-5 -185 -22 -310h-57q19 98 21 259zM439 349v200h60v-200h378v-50h-865v50h427zM446 -137q-136 0 -217 49t-81 129q0 79 81.5 127t216.5 48t216.5 -48t81.5 -127q0 -80 -81 -129t-217 -49 zM446 -88q111 0 174.5 36t63.5 91q0 56 -62.5 91.5t-175.5 35.5t-175.5 -35.5t-62.5 -91.5q0 -55 63.5 -91t174.5 -36z" />
<glyph unicode="&#xaf42;" d="M172 158v51h297q153 0 238 3q9 0 12.5 -6.5t-1.5 -15.5q-42 -91 -194 -177q137 -58 295 -91l-33 -50q-158 36 -317 113q-143 -70 -332 -116l-31 51q181 34 327.5 104t199.5 138q-58 -4 -200 -4h-261zM439 374v187h60v-187h378v-50h-865v50h427zM684 701h-287v51h345 q-4 -158 -26 -292h-56q20 136 24 241zM301 701h-187v51h245q-5 -178 -21 -292h-57q18 91 20 241z" />
<glyph unicode="&#xaf43;" d="M175 94v50h294q143 0 228 3q9 0 12.5 -6.5t-1.5 -15.5q-45 -73 -186 -138q139 -52 286 -69l-27 -49q-196 38 -316 93q-144 -59 -333 -94l-28 50q158 25 300.5 74t209.5 106q-79 -4 -245 -4h-194zM439 400v163h60v-163h378v-49h-865v49h427zM684 701h-287v51h345 q-4 -151 -26 -277h-56q21 128 24 226zM301 701h-187v51h245q-5 -169 -21 -277h-57q18 87 20 226zM610 217h-337v52h337v-52z" />
<glyph unicode="&#xaf48;" d="M736 408h152v-50h-152v-489h-54v909h54v-370zM165 80h-155v50h219q21 0 71 2v289h52v-287q172 7 289 25v-46q-192 -33 -476 -33zM501 644h-187v50h240v-40q0 -211 -22 -388h-52q21 163 21 378zM217 644h-165v50h216v-40q0 -198 -74 -394q-4 1 -26 3.5t-25 4.5 q74 195 74 376z" />
<glyph unicode="&#xaf49;" d="M741 163v-297h-56v246h-519v51h575zM169 280h-151v51h220q24 0 76 2v201h53v-199q174 7 279 24v-46q-194 -33 -477 -33zM741 480v-255h-54v553h54v-246h139v-52h-139zM498 693h-190v48h242v-30q0 -165 -20 -293h-50q18 109 18 275zM202 413l-52 5q60 129 65 275h-144v48 h194v-30q0 -169 -63 -298z" />
<glyph unicode="&#xaf50;" d="M240 -71h522v-50h-578v209h501v108h-501v50h557v-206h-501v-111zM314 394v185h53v-183q166 7 279 25v-47q-215 -32 -477 -32h-151v50h150q42 0 146 2zM741 515v-210h-54v473h54v-212h139v-51h-139zM498 700h-190v46h242v-26q0 -138 -20 -246h-50q18 91 18 226zM202 470 l-52 4q60 108 65 226h-144v46h194v-26q0 -140 -63 -250z" />
<glyph unicode="&#xaf5c;" d="M464 -130q-108 53 -164 166q-52 -106 -180 -166l-40 43q207 90 194 279h56q2 -44 -6 -82q32 -112 142 -174q66 42 100.5 110.5t28.5 149.5h54q1 -43 -7 -88q38 -124 184 -190l-41 -44q-111 51 -165 162q-46 -107 -156 -166zM169 290h-151v50h216q23 0 73 2v192h51v-191 q184 7 288 26v-46q-194 -33 -477 -33zM741 508v-262h-54v532h54v-219h139v-51h-139zM498 699h-189v47h241v-30q0 -160 -20 -287h-50q18 106 18 270zM202 424l-52 5q60 124 65 270h-144v47h194v-30q0 -165 -63 -292z" />
<glyph unicode="&#xaf5d;" d="M457 -137q-135 0 -215 48.5t-80 122.5q0 75 80 122t215 47q134 0 214.5 -47t80.5 -122q0 -74 -80 -122.5t-215 -48.5zM457 -88q110 0 172.5 35t62.5 85q0 51 -62 86t-173 35t-173 -35t-62 -86q0 -50 62.5 -85t172.5 -35zM169 287h-151v50h216q23 0 73 2v195h51v-194 q184 7 288 26v-46q-194 -33 -477 -33zM741 487v-269h-54v560h54v-239h139v-52h-139zM498 699h-189v47h241v-30q0 -160 -20 -287h-50q18 106 18 270zM202 424l-52 5q60 124 65 270h-144v47h194v-30q0 -165 -63 -292z" />
<glyph unicode="&#xaf64;" d="M746 778h53v-909h-53v484h-134v-461h-52v876h52v-366h134v376zM147 90h-118v49h175q21 0 63 2v243h53v-240q131 7 200 20v-46q-155 -28 -373 -28zM422 635h-141v50h193v-40q0 -211 -22 -388h-52q22 170 22 378zM184 635h-127v50h178v-40q0 -198 -74 -394q-4 1 -26 3.5 t-25 4.5q74 195 74 376z" />
<glyph unicode="&#xaf65;" d="M745 778h53v-554h-53v256h-127v-256h-52v544h52v-238h127v248zM798 162v-296h-56v245h-540v51h596zM155 276h-125v49h173q35 0 53 1v218h53v-215q124 5 218 21v-46q-153 -28 -372 -28zM414 693h-139v48h191v-30q0 -163 -20 -291h-50q18 109 18 273zM169 415l-52 5 q60 129 65 273h-119v48h169v-30q0 -167 -63 -296z" />
<glyph unicode="&#xaf79;" d="M490 -137q-138 0 -220.5 47.5t-82.5 121.5t82.5 120.5t220.5 46.5q139 0 222 -46.5t83 -120.5q0 -73 -83.5 -121t-221.5 -48zM490 -90q113 0 178.5 35t65.5 85q0 51 -64.5 85.5t-179.5 34.5q-114 0 -178 -34.5t-64 -85.5q0 -50 64.5 -85t177.5 -35zM745 778h53v-573h-53 v285h-127v-247h-52v525h52v-228h127v238zM155 281h-125v49h173q35 0 53 1v213h53v-210q124 5 218 21v-46q-153 -28 -372 -28zM414 693h-139v48h191v-30q0 -161 -20 -289h-50q18 109 18 271zM169 417l-52 5q60 129 65 271h-119v48h169v-30q0 -165 -63 -294z" />
<glyph unicode="&#xaf80;" d="M346 131v320h54v-318q189 9 300 28v-49q-164 -32 -474 -32h-189v50h246q42 0 63 1zM744 778h54v-909h-54v909zM541 648h-194v50h247v-40q0 -229 -22 -406h-52q21 161 21 396zM247 648h-170v50h221v-40q0 -97 -20.5 -212t-53.5 -200q-4 1 -26 3.5t-25 4.5 q35 88 54.5 196.5t19.5 197.5z" />
<glyph unicode="&#xaf84;" d="M352 314v209h53v-207q189 7 295 26v-47q-190 -33 -473 -33h-187v51h246q43 0 66 1zM280 -62h534v-51h-591v267h57v-216zM798 778v-684h-54v684h54zM557 687h-203v50h255v-30q0 -165 -20 -293h-50q18 109 18 273zM248 409l-52 5q60 129 65 273h-159v50h209v-30 q0 -169 -63 -298z" />
<glyph unicode="&#xaf88;" d="M287 -71h532v-50h-588v212h511v111h-511v50h567v-209h-511v-114zM227 345h-187v50h246q43 0 66 1v183h53v-181q189 7 295 26v-47q-210 -32 -473 -32zM798 311h-54v467h54v-467zM557 700h-203v46h255v-26q0 -138 -20 -246h-50q18 91 18 226zM248 470l-52 4q60 108 65 226 h-159v46h209v-26q0 -140 -63 -250z" />
<glyph unicode="&#xaf90;" d="M798 186v-303h-570v303h570zM742 136h-457v-203h457v203zM227 297h-187v51h246q43 0 66 1v205h53v-203q189 7 295 26v-47q-190 -33 -473 -33zM798 246h-54v532h54v-532zM557 699h-203v47h255v-30q0 -153 -20 -280h-50q18 106 18 263zM248 431l-52 5q60 125 65 263h-159 v47h209v-30q0 -158 -63 -285z" />
<glyph unicode="&#xaf91;" d="M742 224h56v-341h-570v336h57v-93h457v98zM284 77v-144h459v144h-459zM227 308h-187v51h240q39 0 60 1v199h53v-197q196 7 307 26v-47q-190 -33 -473 -33zM798 278h-54v500h54v-500zM557 699h-209v47h261v-29q0 -156 -20 -279h-50q18 104 18 261zM242 433l-52 5 q60 123 65 261h-153v47h203v-29q0 -161 -63 -284z" />
<glyph unicode="&#xaf95;" d="M496 -137q-138 0 -218.5 48.5t-80.5 124.5q0 75 80.5 123t218.5 48t219.5 -48t81.5 -123q0 -76 -81.5 -124.5t-219.5 -48.5zM496 -89q112 0 176 35.5t64 86.5q0 53 -62.5 88.5t-177.5 35.5q-114 0 -176 -35.5t-62 -88.5q0 -51 63 -86.5t175 -35.5zM227 292h-187v51h246 q43 0 66 1v210h53v-208q189 7 295 26v-47q-190 -33 -473 -33zM798 778v-562h-54v562h54zM557 699h-203v47h255v-30q0 -158 -20 -285h-50q18 106 18 268zM248 426l-52 5q60 124 65 268h-159v47h209v-30q0 -163 -63 -290z" />
<glyph unicode="&#xaf9c;" d="M285 199l-58 11q70 192 70 435h-191v53h246v-44q0 -257 -67 -455zM396 698h353v-47q0 -203 -36 -452h-56q35 212 35 446h-296v53zM536 53v314h54v-314h276v-50h-844v50h344v314h54v-314h116z" />
<glyph unicode="&#xafb8;" d="M421 274h-399v50h276q43 146 49 365h-230v50h285v-35q0 -205 -45 -380h309q33 186 33 365h-253v50h310v-38q0 -168 -36 -377h146v-50h-387v-400h-58v400z" />
<glyph unicode="&#xafb9;" d="M877 375h-400v-203h254v-306h-57v256h-532v50h276v203h-406v50h309q17 127 19 276h-212v51h270q-5 -193 -21 -327h286q21 144 22 276h-249v51h307q-5 -185 -24 -327h158v-50z" />
<glyph unicode="&#xafbc;" d="M877 328h-381v-243h-59v243h-425v50h305q23 153 23 323h-212v51h270q-5 -209 -23 -374h283q27 181 27 323h-249v51h307q-5 -219 -28 -374h162v-50zM216 -65h534v-52h-592v283h58v-231z" />
<glyph unicode="&#xafc0;" d="M877 407h-400v-145h255v-214h-519v-125h544v-50h-600v223h519v116h-519v50h261v145h-406v49h311q15 106 17 245h-212v51h270q-6 -197 -19 -296h285q16 114 21 245h-249v51h307q-5 -169 -23 -296h157v-49z" />
<glyph unicode="&#xafc7;" d="M877 409h-400v-153h-56v-203h-216v-128h103q101 0 150 20v-46q-67 -21 -181 -21h-127v221h215v117h-215v50h268v143h-406v49h310q16 102 18 243h-212v51h270q-5 -196 -19 -294h284q17 111 22 243h-249v51h307q-5 -171 -24 -294h158v-49zM625 84q66 0 104.5 -30.5 t38.5 -81.5t-39 -81t-104 -30t-104 30t-39 81t38.5 81.5t104.5 30.5zM625 41q-42 0 -66.5 -19.5t-24.5 -49.5q0 -31 24 -50.5t67 -19.5t67 19.5t24 50.5q0 30 -24.5 49.5t-66.5 19.5zM796 172v-46h-343v46h343zM721 276v-48h-196v48h196z" />
<glyph unicode="&#xafc8;" d="M877 379h-400v-176h254v-320h-573v320h260v176h-406v50h310q16 114 18 272h-212v51h270q-5 -204 -20 -323h283q21 139 22 272h-247v51h305q-5 -186 -24 -323h160v-50zM215 -66h459v219h-459v-219z" />
<glyph unicode="&#xafc9;" d="M731 260v-377h-573v377h57v-113h459v113h57zM877 387h-400v-155h-59v155h-406v50h310q16 112 18 264h-212v51h270q-5 -197 -20 -315h283q21 147 22 264h-247v51h305q-5 -179 -24 -315h160v-50zM214 -66h461v164h-461v-164z" />
<glyph unicode="&#xafcb;" d="M877 361h-398v-130h-59v130h-408v50h307q19 135 21 290h-212v51h270q-5 -197 -22 -341h283q22 142 24 290h-247v51h305q-5 -203 -26 -341h162v-50zM130 -129l-33 46q156 33 245.5 106.5t89.5 174.5h60q0 -44 -16 -83q37 -69 129 -122.5t204 -74.5l-32 -47 q-108 22 -194 74t-131 122q-44 -69 -129.5 -120.5t-192.5 -75.5z" />
<glyph unicode="&#xafcd;" d="M877 378h-400v-167q122 -6 193 -53.5t71 -118.5q0 -77 -80 -126.5t-215 -49.5t-215 49.5t-80 126.5q0 72 72 119t195 53v167h-406v50h309q17 121 19 273h-212v51h270q-5 -205 -20 -324h283q21 139 22 273h-247v51h305q-5 -187 -24 -324h160v-50zM446 -89q110 0 172.5 37 t62.5 89q0 53 -62 89t-173 36t-173 -36t-62 -89q0 -52 62.5 -89t172.5 -37z" />
<glyph unicode="&#xafce;" d="M877 382h-400v-170h4q143 0 228 3q9 0 12.5 -6.5t-1.5 -15.5q-43 -92 -196 -178q132 -59 291 -93l-33 -50q-144 33 -313 115q-140 -71 -334 -118l-31 51q183 37 330 106.5t200 137.5q-79 -4 -250 -4h-212v52h246v170h-406v50h310q16 114 18 269h-212v51h270 q-5 -202 -20 -320h283q21 138 22 269h-247v51h305q-5 -184 -24 -320h160v-50z" />
<glyph unicode="&#xafd4;" d="M348 671v52h234q0 -159 -25 -372q69 6 135 17v-47q-130 -23 -319 -30v-402h-55v400q-17 -1 -52 -1h-227v51h182q26 142 31 332h-157v52h213q-5 -218 -32 -384q132 2 225 8q19 122 24 324h-177zM743 778h55v-909h-55v244h-225v50h225v615z" />
<glyph unicode="&#xafdc;" d="M282 -71h537v-50h-593v205h516v99h-516v50h572v-197h-516v-107zM358 697v48h226q-2 -144 -21 -246q86 7 129 15v-43q-137 -22 -306 -30v-168h-58v166q-19 -1 -57 -1h-231v47h194q21 82 26 212h-152v48h209q-6 -171 -27 -260q109 2 217 9q15 79 20 203h-169zM798 778v-496 h-55v56h-221v46h221v394h55z" />
<glyph unicode="&#xafe8;" d="M358 697v48h226q-2 -140 -20 -269q77 7 128 16v-46q-130 -23 -321 -30v-207h-58v206q-66 -2 -98 -2h-175v49h195q20 89 25 235h-152v48h209q-6 -177 -26 -283q90 1 217 10q18 103 20 225h-170zM503 -131q-107 49 -164 153q-50 -96 -180 -153l-40 43q207 83 194 255h56 q1 -33 -6 -75q15 -48 52 -90t90 -68q65 37 100 99.5t29 137.5h54q1 -40 -7 -82q18 -53 64.5 -98t118.5 -74l-40 -44q-110 48 -165 149q-46 -99 -156 -153zM798 778v-557h-55v72h-221v50h221v435h55z" />
<glyph unicode="&#xafe9;" d="M496 -137q-138 0 -218.5 46t-80.5 118q0 71 80.5 116.5t218.5 45.5t219.5 -45.5t81.5 -116.5t-81.5 -117.5t-219.5 -46.5zM108 697v48h209q-5 -180 -26 -286q89 1 216 10q19 97 21 228h-170v48h226q-2 -146 -21 -272q76 6 129 16v-46q-145 -24 -321 -30v-189h-58v187 q-17 -1 -49 -1h-224v49h194q20 88 26 238h-152zM496 -90q112 0 176 33.5t64 80.5q0 49 -63 82.5t-177 33.5t-176 -33.5t-62 -82.5q0 -47 63 -80.5t175 -33.5zM798 778v-575h-55v91h-221v50h221v434h55z" />
<glyph unicode="&#xaff0;" d="M238 -106v423h-222v50h132q36 147 36 305h-116v49h166v-40q0 -172 -34 -314q86 0 181 6q19 169 19 299h-121v49h172v-40q0 -152 -19 -304q70 6 103 13v-45q-110 -21 -243 -26v-425h-54zM579 -116v239h-167v50h167v595h53v-884h-53zM798 -131h-54v909h54v-909z" />
<glyph unicode="&#xaff1;" d="M279 693v48h178q-1 -133 -23 -274q41 4 100 13v-43q-102 -18 -219 -24v-217h-54v214q-15 -1 -45 -1h-193v47h143q17 84 23 237h-107v48h158q0 -169 -21 -285q90 2 163 7q18 109 23 230h-126zM798 146v-280h-56v229h-540v51h596zM576 208v89h-148v44h148v427h53v-560h-53z M798 208h-54v570h54v-570z" />
<glyph unicode="&#xaff4;" d="M293 683v48h169q-2 -155 -24 -291q62 8 96 13v-43q-97 -18 -209 -24v-231h-54v228q-17 -1 -50 -1h-194v47h150q21 107 26 254h-107v48h158q0 -172 -24 -302q87 2 156 7q19 112 24 247h-117zM246 -63h568v-50h-625v242h57v-192zM576 106v162h-148v47h148v453h53v-662h-53z M798 86h-54v692h54v-692z" />
<glyph unicode="&#xaff8;" d="M279 -71h540v-50h-596v207h519v99h-519v50h575v-197h-519v-109zM279 694v47h178q-2 -133 -24 -246q69 6 101 13v-41q-100 -19 -219 -24v-168h-54v165q-15 -1 -45 -1h-193v45h141q18 79 24 210h-106v47h158q0 -139 -24 -257q80 0 166 6q18 96 23 204h-126zM576 284v63 h-148v41h148v380h53v-484h-53zM798 284h-54v494h54v-494z" />
<glyph unicode="&#xb000;" d="M798 169v-286h-575v286h575zM742 120h-462v-188h462v188zM279 693v48h178q-1 -130 -23 -269q77 9 100 14v-44q-97 -17 -219 -24v-201h-54v198q-15 -1 -46 -1h-192v47h141q20 94 25 232h-107v48h158q0 -153 -23 -280q92 2 165 7q18 105 23 225h-126zM576 229v77h-148v45 h148v417h53v-539h-53zM798 229h-54v549h54v-549z" />
<glyph unicode="&#xb001;" d="M742 206h56v-323h-575v318h57v-86h462v91zM279 694v47h178q-2 -128 -22 -254q67 6 99 13v-44q-97 -17 -219 -24v-193h-54v190q-15 -1 -45 -1h-193v48h142q19 100 24 218h-107v47h158q0 -143 -22 -265q81 0 165 6q17 92 22 212h-126zM279 67v-135h464v135h-464zM576 260 v60h-148v40h148v408h53v-508h-53zM798 260h-54v518h54v-518z" />
<glyph unicode="&#xb004;" d="M279 694v47h178q-1 -129 -23 -268q77 9 100 14v-44q-97 -17 -219 -24v-210h-54v207q-15 -1 -46 -1h-192v47h142q19 106 24 232h-107v47h158q0 -153 -23 -279q92 2 165 7q18 105 23 225h-126zM486 -131q-107 49 -164 153q-50 -96 -180 -153l-40 43q207 83 194 255h56 q1 -33 -6 -75q15 -48 52 -90t90 -68q65 37 100 99.5t29 137.5h54q1 -40 -7 -82q18 -53 64.5 -98t118.5 -74l-40 -44q-110 48 -165 149q-46 -99 -156 -153zM576 221v90h-148v42h149v415h52v-547h-53zM798 221h-54v557h54v-557z" />
<glyph unicode="&#xb00c;" d="M351 671v52h226q0 -154 -26 -376q76 6 147 17v-47q-125 -20 -310 -29v-399h-58v396q-19 -1 -55 -1h-235v51h184q26 141 31 336h-151v52h207q-5 -223 -32 -388q123 2 216 8q20 132 25 328h-169zM744 778h55v-909h-55v909z" />
<glyph unicode="&#xb010;" d="M359 687v50h236q-2 -164 -22 -316q66 6 121 15v-47q-120 -20 -298 -29v-223h-58v221q-42 -2 -63 -2h-237v51h197q24 114 26 280h-140v50h197q-5 -203 -27 -330q139 2 227 10q18 119 20 270h-179zM259 -62h555v-51h-612v262h57v-211zM798 778v-689h-56v689h56z" />
<glyph unicode="&#xb014;" d="M282 -71h537v-50h-593v210h516v104h-516v50h572v-202h-516v-112zM359 695v50h236q-2 -140 -19 -262q67 6 118 15v-46q-125 -20 -310 -29v-140h-58v137q-19 -1 -57 -1h-231v50h200q21 103 23 226h-140v50h197q-6 -179 -25 -276q138 2 226 10q13 76 19 216h-179zM798 778 v-486h-56v486h56z" />
<glyph unicode="&#xb01c;" d="M798 179v-296h-570v296h570zM359 695v50h236q-2 -148 -20 -284q62 6 119 15v-47q-123 -21 -310 -30v-172h-58v170q-19 -1 -57 -1h-231v51h199q19 95 24 248h-140v50h197q-5 -185 -25 -298q138 2 226 10q18 109 20 238h-180zM742 130h-457v-198h457v198zM798 778v-539h-56 v539h56z" />
<glyph unicode="&#xb01d;" d="M742 218h56v-335h-570v330h57v-86h457v91zM359 695v50h236q0 -9 -0.5 -27t-0.5 -28q0 -2 -0.5 -7t-0.5 -8v-12q0 -8 -1 -12q0 -4 -0.5 -12t-0.5 -12q-1 -15 -3 -47q-2 -31 -4 -38q-3 -38 -9 -73q62 6 119 15v-48q-125 -20 -310 -29v-155h-58v152q-19 -1 -57 -1h-231v51 h199q1 2 1.5 6.5t0.5 6.5q1 1 1 3t1 4q1 10 3.5 27t4.5 26q1 7 3 23q0 6 1 16t2 15q4 46 6 94v20h-140v50h197v-8q0 -10 -1 -32t-1 -32q-2 -17 -3.5 -50.5t-3.5 -51.5q-1 -2 -1 -7t-1 -8q0 -2 -2 -16q-3 -34 -9 -67q0 -4 -2 -9.5t-2 -9.5q95 1 227 10q0 3 0.5 8.5t1.5 8.5 q2 14 2 15q1 10 3 27.5t4 26.5q0 4 1 11.5t1 11.5q0 3 0.5 8t0.5 8q2 13 4 71q0 2 0.5 7t0.5 8v20h-179zM284 79v-147h459v147h-459zM798 778v-506h-56v506h56z" />
<glyph unicode="&#xb028;" d="M648 276v-400h-56v400h-267v-400h-57v400h-246v50h277q42 139 48 363h-230v50h285v-35q0 -203 -45 -378h309q33 188 33 363h-253v50h310v-38q0 -147 -35 -375h145v-50h-218z" />
<glyph unicode="&#xb044;" d="M691 643h-257v52h313q-5 -249 -51 -630h170v-51h-844v51h269q45 319 45 578h-225v52h280q-4 -322 -47 -630h298q49 345 49 578z" />
<glyph unicode="&#xb045;" d="M12 349v50h304q20 124 22 302h-213v51h271q-4 -188 -24 -353h280q25 159 26 302h-244v51h302q-5 -209 -28 -353h169v-50h-865zM731 183v-317h-57v267h-532v50h589z" />
<glyph unicode="&#xb048;" d="M12 315v50h303q23 144 23 335h-213v52h271q-5 -208 -24 -387h278q28 178 28 335h-244v52h302q-5 -232 -29 -387h170v-50h-865zM216 -65h534v-52h-592v284h58v-232z" />
<glyph unicode="&#xb04a;" d="M12 360v49h303q23 143 23 291h-213v52h271q-5 -200 -24 -343h279q22 150 27 291h-244v52h302q-5 -215 -29 -343h170v-49h-865zM601 81q69 0 112 -29t43 -77q0 -50 -44 -81t-111 -31t-111 31t-44 81q0 48 42 77t113 29zM204 -117h-57v352h57v-302h43q105 0 181 23v-48 q-85 -25 -224 -25zM601 37q-47 0 -72.5 -16.5t-25.5 -46.5q0 -28 27 -46.5t71 -18.5t70.5 18.5t26.5 46.5q0 30 -25 46.5t-72 16.5zM783 169v-47h-365v47h365zM701 272v-48h-202v48h202z" />
<glyph unicode="&#xb04c;" d="M12 397v49h307q17 102 19 254h-213v52h271q-5 -194 -20 -306h279q19 124 23 254h-244v52h302q-5 -173 -25 -306h166v-49h-865zM757 -77v-50h-600v226h519v121h-519v50h575v-219h-519v-128h544z" />
<glyph unicode="&#xb04e;" d="M739 -126h-265v396h265v-396zM12 398v49h307q17 111 19 253h-213v52h271q-5 -193 -20 -305h279q19 124 23 253h-244v52h302q-5 -182 -24 -305h165v-49h-865zM365 220h-216v50h272v-218h-216v-130h92q89 0 147 20v-48q-57 -22 -178 -22h-117v228h216v120zM684 -77v298 h-155v-298h155z" />
<glyph unicode="&#xb053;" d="M12 398v49h307q17 111 19 253h-213v52h271q-5 -193 -20 -305h279q19 124 23 253h-244v52h302q-5 -182 -24 -305h165v-49h-865zM415 52h-216v-127h103q101 0 150 20v-46q-67 -21 -181 -21h-127v220h215v122h-215v50h271v-218zM619 88q65 0 104 -31.5t39 -82.5t-39 -82 t-104 -31t-104 31t-39 82t39 82.5t104 31.5zM619 45q-42 0 -66.5 -20.5t-24.5 -50.5q0 -31 24 -51.5t67 -20.5t67 20.5t24 51.5q0 30 -24.5 50.5t-66.5 20.5zM790 176v-46h-343v46h343zM715 280v-48h-196v48h196z" />
<glyph unicode="&#xb054;" d="M731 210v-327h-573v327h573zM12 366v50h306q18 122 20 284h-213v52h271q-5 -208 -22 -336h280q22 138 24 284h-244v52h302q-5 -202 -26 -336h167v-50h-865zM215 -66h459v226h-459v-226z" />
<glyph unicode="&#xb055;" d="M731 265v-382h-573v382h57v-119h459v119h57zM12 369v50h306q18 119 20 281h-213v52h271q-5 -197 -22 -333h280q23 159 24 281h-244v52h302q-5 -200 -26 -333h167v-50h-865zM214 -66h461v163h-461v-163z" />
<glyph unicode="&#xb057;" d="M12 346v50h303q21 132 23 304h-213v52h271q-5 -204 -24 -356h280q25 163 26 304h-244v52h302q-5 -211 -28 -356h169v-50h-865zM136 -129l-34 46q156 37 245.5 119t89.5 194h60q0 -46 -15 -89q35 -77 127.5 -138t205.5 -85l-33 -47q-108 25 -194 82.5t-131 133.5 q-43 -75 -128.5 -132.5t-192.5 -83.5z" />
<glyph unicode="&#xb059;" d="M450 -137q-135 0 -215.5 51.5t-80.5 131.5q0 79 80.5 129.5t215.5 50.5t215.5 -50.5t80.5 -129.5q0 -80 -80.5 -131.5t-215.5 -51.5zM12 345v50h302q22 126 24 305h-213v52h271q-5 -218 -25 -357h279q27 161 28 305h-244v52h302q-5 -211 -29 -357h170v-50h-865zM450 -88 q110 0 173 38t63 94q0 57 -62 94.5t-174 37.5t-174 -37.5t-62 -94.5q0 -56 63 -94t173 -38z" />
<glyph unicode="&#xb05d;" d="M12 388v49h306q18 113 20 263h-213v52h271q-5 -195 -21 -315h279q20 126 24 263h-244v52h302q-5 -193 -26 -315h167v-49h-865zM729 97v-48h-510v-126h531v-50h-586v390h567v-50h-512v-116h510z" />
<glyph unicode="&#xb07c;" d="M784 -131h-57v909h57v-909zM569 697v-38q0 -399 -210 -639l-51 25q114 129 159.5 277.5t45.5 326.5q-40 -3 -129 -3h-53v49h161q27 0 77 2zM298 697v-38q0 -343 -212 -543l-49 27q213 187 205 506q-40 -3 -130 -3h-50v49h159q27 0 77 2z" />
<glyph unicode="&#xb07d;" d="M784 196v-330h-56v279h-529v51h585zM532 688q-40 -3 -129 -3h-48v49h155q27 0 77 2q0 -297 -234 -460l-46 34q115 71 168 171.5t57 206.5zM320 736q-6 -265 -244 -414l-43 38q214 117 231 328q-40 -3 -129 -3h-47v49h155q27 0 77 2zM784 256h-57v522h57v-522z" />
<glyph unicode="&#xb080;" d="M290 -61h509v-52h-566v265h57v-213zM534 682q-40 -3 -129 -3h-50v49h157q27 0 77 2q0 -331 -238 -508l-48 34q119 79 173.5 195t57.5 231zM784 113h-57v665h57v-665zM320 730q-6 -290 -241 -451l-45 37q105 61 164.5 158t65.5 208q-40 -3 -129 -3h-47v49h155q27 0 77 2z " />
<glyph unicode="&#xb084;" d="M268 -71h537v-50h-593v228h516v126h-516v50h572v-224h-516v-130zM530 688q-40 -3 -128 -3h-45v49h152q27 0 77 2q0 -259 -229 -402l-44 35q75 41 124.5 96.5t69.5 110t23 112.5zM322 736q-2 -117 -67 -211.5t-181 -157.5l-42 39q108 55 165.5 123.5t67.5 158.5 q-40 -3 -128 -3h-47v49h155q27 0 77 2zM784 342h-57v436h57v-436z" />
<glyph unicode="&#xb08c;" d="M219 217h565v-334h-565v334zM276 -66h452v232h-452v-232zM531 688q-40 -3 -129 -3h-46v49h153q27 0 77 2q0 -289 -232 -446l-46 34q78 46 129 111t71 126t23 127zM321 736q-6 -256 -246 -403l-43 38q215 115 232 317q-40 -3 -128 -3h-47v49h155q27 0 77 2zM784 277h-57 v501h57v-501z" />
<glyph unicode="&#xb08d;" d="M728 255h56v-372h-565v366h57v-111h452v117zM275 88v-154h454v154h-454zM531 688q-40 -3 -129 -3h-46v49h153q27 0 77 2q0 -280 -232 -433l-45 34q59 33 102.5 77t68 90.5t37 92t14.5 91.5zM321 736q-6 -251 -246 -393l-43 38q215 113 232 307q-40 -3 -128 -3h-47v49h155 q27 0 77 2zM784 313h-57v465h57v-465z" />
<glyph unicode="&#xb08f;" d="M173 -129l-34 46q156 36 240.5 117.5t84.5 195.5h60q0 -43 -14 -90q36 -78 123 -138t199 -84l-33 -47q-106 24 -188.5 81t-125.5 133q-43 -75 -125 -131.5t-187 -82.5zM533 688q-40 -3 -129 -3h-49v49h156q27 0 77 2q0 -315 -237 -489l-47 34q117 75 171.5 185.5 t57.5 221.5zM784 169h-57v609h57v-609zM320 736q-6 -280 -243 -436l-44 37q106 59 165 151t66 200q-40 -3 -129 -3h-47v49h155q27 0 77 2z" />
<glyph unicode="&#xb091;" d="M495 -137q-135 0 -213.5 51t-78.5 131t78.5 129.5t213.5 49.5t213.5 -49.5t78.5 -129.5t-78.5 -131t-213.5 -51zM495 -88q110 0 171 37.5t61 93.5q0 57 -60 94t-172 37t-172 -37t-60 -94q0 -56 61 -93.5t171 -37.5zM532 688q-40 -3 -129 -3h-48v49h155q27 0 77 2 q0 -141 -57 -263.5t-177 -206.5l-46 34q60 37 104 85.5t69 101t37.5 102.5t14.5 99zM320 736q-6 -265 -244 -414l-43 38q214 117 231 328q-40 -3 -129 -3h-47v49h155q27 0 77 2zM784 252h-57v526h57v-526z" />
<glyph unicode="&#xb098;" d="M254 129h-188v579h57v-526h145q198 0 341 41v-51q-154 -43 -355 -43zM718 444h170v-53h-170v-522h-56v909h56v-334z" />
<glyph unicode="&#xb099;" d="M262 335h-196v412h58v-361h151q186 0 344 41v-48q-139 -44 -357 -44zM729 573h151v-52h-151v-265h-56v522h56v-205zM729 195v-329h-56v278h-509v51h565z" />
<glyph unicode="&#xb09a;" d="M262 339h-196v408h58v-357h151q186 0 344 41v-48q-139 -44 -357 -44zM729 578h151v-52h-151v-264h-56v516h56v-200zM729 201v-335h-56v282h-210v53h266zM419 201v-335h-56v282h-226v53h282z" />
<glyph unicode="&#xb09c;" d="M262 314h-196v424h58v-372h151q200 0 344 41v-49q-139 -44 -357 -44zM729 528h151v-52h-151v-343h-56v645h56v-250zM251 -61h493v-52h-550v273h57v-221z" />
<glyph unicode="&#xb09f;" d="M262 350h-196v397h58v-346h151q186 0 344 41v-48q-139 -44 -357 -44zM729 581h151v-52h-151v-258h-56v507h56v-197zM748 -66v-51h-562v328h545v-52h-488v-225h505z" />
<glyph unicode="&#xb0a0;" d="M66 747h58v-305h151q203 0 344 37v-48q-138 -39 -357 -39h-196v355zM729 594h151v-52h-151v-200h-56v436h56v-184zM233 -71h517v-50h-573v231h496v123h-496v50h552v-221h-496v-133z" />
<glyph unicode="&#xb0a1;" d="M66 747h58v-302h151q203 0 344 37v-48q-138 -39 -357 -39h-196v352zM729 597h151v-52h-151v-199h-56v432h56v-181zM729 287v-421h-56v371h-207v50h263zM317 -121h-164v230h220v128h-220v50h276v-226h-220v-132h139q96 0 152 21v-48q-61 -23 -183 -23z" />
<glyph unicode="&#xb0a2;" d="M66 747h58v-302h151q203 0 344 37v-48q-138 -39 -357 -39h-196v352zM729 597h151v-52h-151v-199h-56v432h56v-181zM729 -117h-265v404h265v-404zM674 -68v306h-157v-306h157zM256 -119h-113v228h214v128h-214v50h268v-226h-212v-130h87q94 0 148 21v-49q-58 -22 -178 -22 z" />
<glyph unicode="&#xb0a8;" d="M262 350h-196v397h58v-346h151q196 0 344 42v-49q-66 -19 -166 -31.5t-191 -12.5zM729 570h151v-52h-151v-238h-56v498h56v-208zM184 220h545v-337h-545v337zM241 -66h432v235h-432v-235z" />
<glyph unicode="&#xb0a9;" d="M66 747h58v-333h151q196 0 344 37v-47q-140 -40 -357 -40h-196v383zM729 587h151v-52h-151v-213h-56v456h56v-191zM673 265h56v-382h-545v377h57v-120h432v125zM240 90v-156h434v156h-434z" />
<glyph unicode="&#xb0ab;" d="M146 -129l-35 47q155 37 240 120.5t85 201.5h60q0 -44 -14 -92q36 -80 124 -142.5t199 -86.5l-34 -48q-106 26 -188.5 84t-125.5 136q-42 -77 -123.5 -134.5t-187.5 -85.5zM66 336v411h58v-360h151q200 0 344 41v-48q-139 -44 -357 -44h-196zM729 547h151v-53h-151v-315 h-56v599h56v-231z" />
<glyph unicode="&#xb0ac;" d="M463 -129q-109 62 -164 184q-51 -117 -179 -184l-42 43q209 95 195 314h56q1 -46 -7 -94q15 -56 51.5 -108t91.5 -89q141 109 129 295h54q1 -46 -7 -98q34 -143 185 -214l-42 -45q-107 56 -166 178q-46 -115 -155 -182zM262 342h-196v405h58v-354h151q196 0 344 42v-49 q-66 -19 -166 -31.5t-191 -12.5zM729 576h151v-52h-151v-238h-56v492h56v-202z" />
<glyph unicode="&#xb0ad;" d="M262 335h-196v412h58v-361h151q186 0 344 41v-48q-139 -44 -357 -44zM729 573h151v-52h-151v-259h-56v516h56v-205zM450 -137q-134 0 -213 53.5t-79 136.5t79 135t213 52t213 -52t79 -135t-79 -136.5t-213 -53.5zM450 -87q110 0 171 40t61 99t-60.5 98.5t-171.5 39.5 t-171.5 -39.5t-60.5 -98.5t61 -99t171 -40z" />
<glyph unicode="&#xb0ae;" d="M198 171v51h348q70 0 163 3q9 0 12.5 -6.5t-1.5 -15.5q-35 -95 -191 -185q138 -62 295 -97l-32 -50q-178 46 -315 119q-139 -71 -327 -121l-30 51q176 38 326 112t196 143q-76 -4 -240 -4h-204zM262 356h-196v391h58v-340h151q196 0 344 42v-49q-66 -19 -166 -31.5 t-191 -12.5zM729 586h151v-52h-151v-248h-56v492h56v-192z" />
<glyph unicode="&#xb0af;" d="M206 117v48h329q70 0 163 3q9 0 12.5 -6.5t-1.5 -15.5q-49 -82 -172 -147q138 -55 280 -76l-27 -50q-155 23 -310 99q-123 -56 -329 -100l-30 48q164 29 305.5 82.5t197.5 119.5q-69 -5 -194 -5h-224zM66 747h58v-312h151q203 0 344 37v-48q-138 -39 -357 -39h-196v362z M729 599h151v-53h-151v-240h-56v472h56v-179zM580 238h-276v50h276v-50z" />
<glyph unicode="&#xb0b1;" d="M66 747h58v-316h151q203 0 344 37v-48q-138 -39 -357 -39h-196v366zM729 590h151v-53h-151v-211h-56v452h56v-188zM729 102v-48h-492v-119h513v-50h-569v382h550v-50h-494v-115h492z" />
<glyph unicode="&#xb0b3;" d="M66 747h58v-312h151q203 0 344 37v-48q-138 -39 -357 -39h-196v362zM729 599h151v-53h-151v-240h-56v472h56v-179zM764 196v-47h-631v47h631zM591 308v-49h-297v49h297zM450 -142q-121 0 -191.5 32t-70.5 89t69.5 88.5t192.5 31.5t192.5 -31.5t69.5 -88.5t-70.5 -89 t-191.5 -32zM450 -95q94 0 147 19.5t53 54.5t-51 54.5t-149 19.5t-149 -19.5t-51 -54.5t53 -54.5t147 -19.5z" />
<glyph unicode="&#xb0b4;" d="M181 133h-113v575h55v-522h69q158 0 283 35v-51q-117 -37 -294 -37zM734 778h55v-909h-55v503h-168v-480h-54v876h54v-342h168v352z" />
<glyph unicode="&#xb0b5;" d="M172 330h-92v415h55v-366h50q158 0 281 35v-45q-117 -39 -294 -39zM742 778h55v-531h-55v256h-172v-256h-54v521h54v-215h172v225zM797 186v-320h-56v272h-535v48h591z" />
<glyph unicode="&#xb0b8;" d="M175 309h-95v427h55v-378h50q154 0 281 36v-46q-115 -39 -291 -39zM742 778h55v-647h-55v338h-172v-318h-54v617h54v-250h172v260zM293 -61h520v-52h-577v280h57v-228z" />
<glyph unicode="&#xb0bc;" d="M175 375h-95v370h55v-322h50q166 0 281 32v-44q-123 -36 -291 -36zM742 778h55v-443h-55v197h-172v-197h-54v433h54v-187h172v197zM276 -71h542v-50h-598v227h521v120h-521v50h577v-218h-521v-129z" />
<glyph unicode="&#xb0c4;" d="M175 346h-95v399h55v-350h50q154 0 281 36v-46q-115 -39 -291 -39zM742 778h55v-507h-55v232h-172v-232h-54v497h54v-216h172v226zM227 211h570v-328h-570v328zM283 -67h458v227h-458v-227z" />
<glyph unicode="&#xb0c5;" d="M175 350h-95v395h55v-347h50q160 0 281 32v-44q-123 -36 -291 -36zM742 778h55v-471h-55v210h-172v-210h-54v461h54v-202h172v212zM741 249h56v-366h-572v357h56v-109h460v118zM280 81v-148h462v148h-462z" />
<glyph unicode="&#xb0c7;" d="M742 778h55v-591h-55v306h-172v-203h-54v478h54v-225h172v235zM166 -129l-34 46q156 36 240.5 117.5t84.5 195.5h60q0 -43 -14 -90q36 -78 123 -138t199 -84l-33 -47q-106 24 -188.5 81t-125.5 133q-43 -75 -125 -131.5t-187 -82.5zM175 321h-95v415h55v-366h50 q158 0 281 35v-45q-117 -39 -291 -39z" />
<glyph unicode="&#xb0c8;" d="M487 -130q-112 63 -165 178q-52 -113 -179 -178l-41 43q109 50 155.5 123t39.5 181h56q1 -44 -7 -91q33 -122 143 -193q67 49 101 123.5t28 164.5h54q1 -49 -8 -98q35 -132 185 -206l-41 -43q-110 58 -166 172q-45 -110 -155 -176zM742 778h55v-502h-55v238h-175v-238 h-54v492h54v-207h175v217zM172 351h-92v394h55v-345h47q154 0 281 36v-46q-115 -39 -291 -39z" />
<glyph unicode="&#xb0c9;" d="M172 335h-92v410h55v-361h47q158 0 281 35v-45q-117 -39 -291 -39zM742 778h55v-534h-55v263h-175v-226h-54v487h54v-212h175v222zM493 -136q-139 0 -220 51t-81 131q0 81 81 130.5t220 49.5t220 -49.5t81 -130.5q0 -80 -81.5 -131t-219.5 -51zM493 -87q112 0 174.5 38.5 t62.5 94.5t-62 93.5t-175 37.5q-115 0 -176 -37t-61 -94q0 -56 62 -94.5t175 -38.5z" />
<glyph unicode="&#xb0d0;" d="M878 304v-51h-160v-384h-56v909h56v-201h160v-51h-160v-222h160zM254 129h-188v579h57v-526h145q198 0 341 41v-51q-154 -43 -355 -43z" />
<glyph unicode="&#xb0d1;" d="M673 778h56v-128h147v-50h-147v-146h147v-50h-147v-148h-56v522zM262 335h-196v412h58v-361h151q186 0 344 41v-48q-139 -44 -357 -44zM729 195v-329h-56v275h-509v54h565z" />
<glyph unicode="&#xb0d4;" d="M673 778h56v-156h147v-50h-147v-161h147v-50h-147v-228h-56v645zM262 314h-196v424h58v-372h151q200 0 344 41v-49q-139 -44 -357 -44zM256 -61h488v-52h-545v273h57v-221z" />
<glyph unicode="&#xb0d8;" d="M673 778h56v-104h147v-50h-147v-116h147v-50h-147v-116h-56v436zM66 747h58v-305h151q203 0 344 37v-48q-138 -39 -357 -39h-196v355zM233 -71h517v-50h-573v231h496v123h-496v50h552v-221h-496v-133z" />
<glyph unicode="&#xb0e0;" d="M262 356h-196v391h58v-340h151q196 0 344 42v-49q-66 -19 -166 -31.5t-191 -12.5zM673 778h56v-110h147v-49h-147v-119h147v-49h-147v-165h-56v492zM184 226h545v-343h-545v343zM241 -66h432v241h-432v-241z" />
<glyph unicode="&#xb0e5;" d="M673 778h56v-125h147v-50h-147v-134h147v-50h-147v-157h-56v516zM262 335h-196v412h58v-361h151q186 0 344 41v-48q-139 -44 -357 -44zM450 -137q-134 0 -213 53.5t-79 136.5t79 135t213 52t213 -52t79 -135t-79 -136.5t-213 -53.5zM450 -87q110 0 171 40t61 99 t-60.5 98.5t-171.5 39.5t-171.5 -39.5t-60.5 -98.5t61 -99t171 -40z" />
<glyph unicode="&#xb108;" d="M283 123h-195v583h59v-530h149q197 0 340 41v-51q-154 -43 -353 -43zM718 -131v557h-284v51h284v301h56v-909h-56z" />
<glyph unicode="&#xb109;" d="M283 317h-195v430h59v-379h149q197 0 340 41v-49q-137 -43 -353 -43zM718 254v283h-282v51h282v190h56v-524h-56zM774 193v-327h-56v276h-519v51h575z" />
<glyph unicode="&#xb10b;" d="M283 322h-195v425h59v-374h149q197 0 340 41v-49q-154 -43 -353 -43zM718 276v267h-282v51h282v184h56v-502h-56zM512 -137l-42 42q188 103 176 320h57q1 -46 -8 -98q13 -67 61.5 -127.5t110.5 -88.5l-43 -43q-97 51 -155 176q-51 -118 -157 -181zM463 -130h-56v292h-242 v51h298v-343z" />
<glyph unicode="&#xb10c;" d="M283 291h-195v447h59v-396h149q184 0 340 41v-49q-154 -43 -353 -43zM718 133v391h-276v51h276v203h56v-645h-56zM290 -61h499v-52h-556v273h57v-221z" />
<glyph unicode="&#xb110;" d="M88 747h59v-321h149q192 0 340 37v-48q-138 -39 -353 -39h-195v371zM718 332v238h-276v50h276v158h56v-446h-56zM268 -71h527v-50h-583v226h506v118h-506v50h562v-216h-506v-128z" />
<glyph unicode="&#xb112;" d="M774 -117h-271v394h271v-394zM719 -68v296h-163v-296h163zM296 -119h-117v226h217v120h-217v50h271v-218h-215v-128h91q94 0 147 21v-49q-57 -22 -177 -22zM88 747h59v-317h149q192 0 340 37v-48q-138 -39 -353 -39h-195v367zM718 336v236h-276v50h276v156h56v-442h-56z " />
<glyph unicode="&#xb113;" d="M774 -117h-281v394h54v-134h172v139h55v-399zM719 -69v165h-172v-165h172zM289 -118h-116v225h211v120h-211v50h265v-218h-209v-127h91q90 0 145 21v-50q-58 -21 -176 -21zM88 747h59v-317h149q192 0 340 37v-48q-138 -39 -353 -39h-195v367zM718 336v236h-276v50h276 v156h56v-442h-56z" />
<glyph unicode="&#xb118;" d="M283 337h-195v410h59v-359h149q197 0 340 41v-48q-140 -44 -353 -44zM718 280v275h-276v51h276v172h56v-498h-56zM219 220h555v-337h-555v337zM276 -66h442v235h-442v-235z" />
<glyph unicode="&#xb119;" d="M88 747h59v-345h149q192 0 340 37v-47q-143 -40 -353 -40h-195v395zM718 318v246h-276v51h276v163h56v-460h-56zM718 260h56v-377h-555v372h57v-112h442v117zM275 93v-159h444v159h-444z" />
<glyph unicode="&#xb11b;" d="M166 -129l-35 47q155 37 240 120.5t85 201.5h60q0 -44 -14 -92q36 -80 124 -142.5t199 -86.5l-34 -48q-106 26 -188.5 84t-125.5 136q-42 -77 -123.5 -134.5t-187.5 -85.5zM88 321v426h59v-375h149q184 0 340 41v-49q-154 -43 -353 -43h-195zM718 179v376h-276v52h276 v171h56v-599h-56z" />
<glyph unicode="&#xb11c;" d="M491 -129q-108 64 -164 187q-53 -121 -179 -187l-42 43q213 99 195 318h56q1 -45 -7 -93q15 -58 52 -112.5t91 -90.5q142 105 129 300h54q1 -46 -7 -97q15 -68 62.5 -126.5t122.5 -92.5l-42 -45q-105 55 -166 181q-46 -118 -155 -185zM283 341h-195v406h59v-355h149 q197 0 340 41v-48q-140 -44 -353 -44zM718 286v277h-276v51h276v164h56v-492h-56z" />
<glyph unicode="&#xb11d;" d="M482 -137q-134 0 -213 53t-79 135t79 133.5t213 51.5t213 -51.5t79 -133.5t-79 -135t-213 -53zM482 -87q110 0 171 39t61 98t-60.5 97.5t-171.5 38.5t-171.5 -38.5t-60.5 -97.5t61 -98t171 -39zM283 337h-195v410h59v-359h149q197 0 340 41v-48q-140 -44 -353 -44z M718 246v309h-276v51h276v172h56v-532h-56z" />
<glyph unicode="&#xb123;" d="M88 747h59v-329h149q192 0 340 37v-48q-138 -39 -353 -39h-195v379zM718 306v256h-276v51h276v165h56v-472h-56zM802 188v-47h-631v47h631zM629 298v-49h-297v49h297zM486 -142q-122 0 -192 31t-70 88t69 87.5t193 30.5t193 -30.5t69 -87.5t-70 -88t-192 -31zM486 -95 q94 0 147 18.5t53 53.5q0 72 -200 72t-200 -72q0 -35 53 -53.5t147 -18.5z" />
<glyph unicode="&#xb124;" d="M176 128h-103v580h56v-528h59q153 0 286 38v-51q-134 -39 -298 -39zM734 778h55v-909h-55v909zM331 469h205v299h54v-876h-54v525h-205v52z" />
<glyph unicode="&#xb125;" d="M181 306h-101v439h55v-391h58q157 0 282 35v-45q-117 -38 -294 -38zM742 778h55v-536h-55v536zM343 574h196v194h54v-526h-54v283h-196v49zM797 181v-315h-56v266h-535v49h591z" />
<glyph unicode="&#xb128;" d="M185 300h-105v436h55v-387h63q158 0 287 36v-48q-114 -37 -300 -37zM742 778h55v-645h-55v645zM343 574h196v194h54v-615h-54v373h-196v48zM298 -61h515v-52h-572v281h57v-229z" />
<glyph unicode="&#xb12c;" d="M186 360h-106v385h55v-336h63q161 0 287 32v-45q-129 -36 -299 -36zM742 778h55v-446h-55v446zM343 606h196v162h54v-436h-54v225h-196v49zM278 -71h540v-50h-596v225h519v119h-519v50h575v-217h-519v-127z" />
<glyph unicode="&#xb134;" d="M186 332h-106v413h55v-364h63q162 0 287 35v-47q-116 -37 -299 -37zM742 778h55v-510h-55v510zM343 593h196v175h54v-500h-54v276h-196v49zM227 208h570v-325h-570v325zM283 -67h458v224h-458v-224z" />
<glyph unicode="&#xb135;" d="M186 343h-106v402h55v-354h63q161 0 287 32v-47q-118 -33 -299 -33zM742 778h55v-476h-55v476zM343 601h196v167h54v-466h-54v250h-196v49zM741 244h56v-361h-570v355h56v-109h458v115zM282 79v-146h460v146h-460z" />
<glyph unicode="&#xb137;" d="M166 -129l-34 46q156 36 240.5 117.5t84.5 195.5h60q0 -43 -14 -90q36 -78 123 -138t199 -84l-33 -47q-106 24 -188.5 81t-125.5 133q-43 -75 -125 -131.5t-187 -82.5zM185 301h-105v444h55v-394h63q158 0 287 36v-49q-114 -37 -300 -37zM343 585h196v183h54v-478h-54 v246h-196v49zM742 778h55v-591h-55v591z" />
<glyph unicode="&#xb138;" d="M487 -130q-113 64 -165 176q-51 -110 -179 -176l-41 43q109 50 155.5 121t39.5 179h56q1 -43 -7 -90q15 -55 51.5 -105t91.5 -85q141 103 129 284h54q1 -46 -7 -97q34 -129 184 -203l-41 -43q-110 58 -166 169q-45 -107 -155 -173zM186 328h-106v417h55v-368h63 q162 0 287 35v-48q-113 -36 -299 -36zM343 593h196v175h54v-496h-54v272h-196v49zM742 778h55v-506h-55v506z" />
<glyph unicode="&#xb139;" d="M493 -136q-139 0 -220 51t-81 131q0 81 81 130.5t220 49.5t220 -49.5t81 -130.5q0 -80 -81.5 -131t-219.5 -51zM493 -87q112 0 174.5 38.5t62.5 94.5t-62 93.5t-175 37.5q-115 0 -176 -37t-61 -94q0 -56 62 -94.5t175 -38.5zM186 332h-106v413h55v-364h63q162 0 287 35 v-47q-116 -37 -299 -37zM343 593h196v175h54v-494h-54v270h-196v49zM742 778h55v-535h-55v535z" />
<glyph unicode="&#xb140;" d="M283 120h-195v588h58v-536h150q194 0 340 42v-51q-137 -43 -353 -43zM774 -131h-56v464h-279v49h279v170h-279v49h279v177h56v-909z" />
<glyph unicode="&#xb141;" d="M283 305h-195v442h59v-391h149q197 0 340 41v-49q-137 -43 -353 -43zM718 515v105h-273v49h273v109h56v-528h-56v216h-273v49h273zM774 189v-323h-56v272h-519v51h575z" />
<glyph unicode="&#xb144;" d="M283 274h-195v464h59v-413h149q184 0 340 41v-49q-154 -43 -353 -43zM718 497v115h-272v49h272v117h56v-655h-56v325h-272v49h272zM278 -61h511v-52h-568v268h57v-216z" />
<glyph unicode="&#xb148;" d="M88 747h59v-348h149q192 0 340 37v-48q-138 -39 -353 -39h-195v398zM718 539v93h-272v47h272v99h56v-459h-56v173h-272v47h272zM268 -71h527v-50h-583v221h506v110h-506v50h562v-208h-506v-123z" />
<glyph unicode="&#xb150;" d="M283 308h-195v439h59v-388h149q197 0 340 41v-48q-140 -44 -353 -44zM718 518v109h-272v49h272v102h56v-517h-56v208h-272v49h272zM219 201h555v-318h-555v318zM276 -66h442v216h-442v-216z" />
<glyph unicode="&#xb151;" d="M88 747h59v-360h149q192 0 340 37v-47q-143 -40 -353 -40h-195v410zM718 533v97h-272v49h272v99h56v-471h-56v177h-272v49h272zM718 249h56v-366h-555v360h57v-109h442v115zM275 84v-150h444v150h-444z" />
<glyph unicode="&#xb154;" d="M494 -130q-110 57 -165 175q-50 -109 -179 -175l-41 43q107 48 154.5 120.5t40.5 176.5h56q2 -51 -7 -89q33 -119 143 -187q141 101 129 280h54q1 -47 -7 -95q35 -132 184 -200l-41 -45q-107 52 -166 168q-46 -110 -155 -172zM718 518v109h-272v49h272v102h56v-516h-56 v207h-272v49h272zM283 308h-195v439h59v-388h149q197 0 340 41v-48q-140 -44 -353 -44z" />
<glyph unicode="&#xb155;" d="M773 42q0 -80 -76.5 -131t-214.5 -51t-214.5 51.5t-76.5 131.5t76 131t215 51t215 -51.5t76 -131.5zM712 41q0 57 -59 96t-171 39t-172 -39t-60 -96q0 -56 60 -94.5t172 -38.5t171 38.5t59 94.5zM283 303h-195v444h59v-393h149q197 0 340 41v-48q-140 -44 -353 -44z M718 516v111h-272v49h272v102h56v-542h-56v231h-272v49h272z" />
<glyph unicode="&#xb158;" d="M425 -19h-232v50h250q175 0 275 15v99h-518v51h574v-327h-56v132q-106 -20 -293 -20zM718 518v109h-272v49h272v102h56v-522h-56v213h-272v49h272zM283 309h-195v438h59v-387h149q197 0 340 41v-48q-140 -44 -353 -44z" />
<glyph unicode="&#xb15c;" d="M180 123h-107v585h58v-532h61q162 0 287 35v-48q-123 -40 -299 -40zM734 778h55v-909h-55v909zM594 -108h-54v431h-206v49h206v157h-206v49h206v190h54v-876z" />
<glyph unicode="&#xb160;" d="M185 266h-105v470h55v-421h63q158 0 287 36v-48q-114 -37 -300 -37zM742 778h55v-665h-55v665zM596 133h-54v301h-193v49h193v110h-193v47h193v128h54v-635zM298 -61h515v-52h-572v268h57v-216z" />
<glyph unicode="&#xb178;" d="M757 359v-51h-264v-249h373v-50h-844v50h411v249h-253v415h59v-364h518z" />
<glyph unicode="&#xb179;" d="M417 479h-254v299h59v-248h522v-51h-268v-152h401v-50h-865v50h405v152zM731 157v-291h-57v241h-532v50h589z" />
<glyph unicode="&#xb17c;" d="M417 466h-254v312h59v-261h522v-51h-268v-169h401v-50h-865v50h405v169zM216 -66h534v-51h-592v261h58v-210z" />
<glyph unicode="&#xb180;" d="M757 -78v-49h-600v212h519v109h-519v49h575v-205h-519v-116h544zM417 525h-255v253h59v-203h523v-50h-268v-125h401v-49h-865v49h405v125z" />
<glyph unicode="&#xb182;" d="M742 -126h-265v373h265v-373zM417 527h-255v251h59v-201h523v-50h-268v-125h401v-49h-865v49h405v125zM368 198h-216v49h272v-207h-216v-119h92q89 0 147 20v-47q-57 -22 -178 -22h-117v215h216v111zM687 -78v277h-155v-277h155z" />
<glyph unicode="&#xb188;" d="M731 185v-302h-573v302h573zM417 496h-254v282h59v-231h522v-51h-268v-145h401v-50h-865v50h405v145zM215 -67h459v202h-459v-202z" />
<glyph unicode="&#xb189;" d="M731 238v-355h-573v355h57v-110h459v110h57zM417 508h-254v270h59v-219h522v-51h-268v-140h401v-50h-865v50h405v140zM214 -67h461v146h-461v-146z" />
<glyph unicode="&#xb18b;" d="M417 487h-254v291h59v-240h522v-51h-268v-164h401v-50h-865v50h405v164zM127 -129l-33 46q157 34 246 109.5t89 182.5h60q0 -45 -15 -85q40 -72 130.5 -128t201.5 -78l-32 -47q-108 23 -193 76.5t-131 125.5q-44 -71 -129 -123t-194 -79z" />
<glyph unicode="&#xb18d;" d="M445 -137q-136 0 -215 47.5t-79 124.5t80 124t214 47t214 -47t80 -124t-79 -124.5t-215 -47.5zM417 486h-254v292h59v-241h522v-51h-268v-149h401v-50h-865v50h405v149zM445 -88q110 0 172 35t62 88t-60.5 87.5t-173.5 34.5t-173.5 -34.5t-60.5 -87.5t62 -88t172 -35z " />
<glyph unicode="&#xb192;" d="M649 -67h121v-50h-649v50h123l-4 211h-109v50h625v-50h-102zM417 499h-254v279h59v-228h522v-51h-268v-142h401v-50h-865v50h405v142zM296 144l4 -211h293l5 211h-302z" />
<glyph unicode="&#xb193;" d="M450 -142q-121 0 -192 29.5t-71 82.5t70 82.5t193 29.5t193 -29.5t70 -82.5t-71 -82.5t-192 -29.5zM417 532h-255v246h59v-197h523v-49h-268v-126h401v-49h-865v49h405v126zM450 -97q91 0 146 18.5t55 48.5q0 29 -52.5 47.5t-148.5 18.5t-148.5 -18.5t-52.5 -47.5 q0 -30 55 -48.5t146 -18.5zM776 179v-47h-651v47h651zM619 289v-50h-337v50h337z" />
<glyph unicode="&#xb194;" d="M164 80h-154v50h215q22 0 68 2v217h-190v363h58v-313h387v-50h-197v-215q172 7 289 25v-46q-192 -33 -476 -33zM736 408h152v-50h-152v-489h-55v909h55v-370z" />
<glyph unicode="&#xb198;" d="M168 234h-151v49h211q44 0 67 1v162h-180v297h58v-247h374v-50h-194v-159q187 7 292 26v-46q-194 -33 -477 -33zM741 446v-352h-55v684h55v-280h139v-52h-139zM234 -62h523v-51h-581v226h58v-175z" />
<glyph unicode="&#xb19c;" d="M240 -71h522v-50h-578v209h501v108h-501v50h557v-206h-501v-111zM168 338h-151v49h211q44 0 67 1v120h-180v253h58v-204h374v-49h-194v-117q187 7 292 26v-47q-188 -32 -477 -32zM741 515v-210h-55v473h55v-212h139v-51h-139z" />
<glyph unicode="&#xb1a8;" d="M168 283h-151v50h211q44 0 67 1v145h-180v282h58v-232h374v-50h-194v-142q194 8 292 25v-46q-194 -33 -477 -33zM473 -130q-110 54 -165 168q-51 -107 -182 -168l-37 43q207 90 194 279h55q2 -44 -6 -81q32 -115 143 -178q66 42 100.5 112t28.5 151h54q1 -42 -7 -89 q16 -57 63 -106.5t121 -82.5l-38 -44q-108 50 -167 165q-45 -109 -157 -169zM741 496v-250h-55v532h55v-231h139v-51h-139z" />
<glyph unicode="&#xb1cc;" d="M225 80h-189v50h238q36 0 55 1v218h-196v363h58v-313h393v-50h-198v-216q199 7 313 26v-46q-191 -33 -474 -33zM743 778h55v-909h-55v909z" />
<glyph unicode="&#xb1d0;" d="M225 234h-186v50h236q37 0 56 1v161h-189v297h58v-247h389v-50h-202v-159q191 7 312 27v-47q-191 -33 -474 -33zM280 -62h534v-51h-591v226h57v-175zM798 778v-684h-55v684h55z" />
<glyph unicode="&#xb1d4;" d="M287 -71h532v-50h-588v209h511v108h-511v50h567v-206h-511v-111zM226 338h-187v49h236q37 0 56 1v120h-189v253h58v-204h389v-49h-202v-118q191 7 312 27v-47q-184 -32 -473 -32zM798 305h-55v473h55v-473z" />
<glyph unicode="&#xb1dc;" d="M798 175v-292h-570v292h570zM742 125h-457v-192h457v192zM226 281h-187v51h237q36 0 55 1v148h-189v280h58v-229h389v-51h-202v-146q197 7 312 26v-47q-191 -33 -473 -33zM798 235h-55v543h55v-543z" />
<glyph unicode="&#xb1dd;" d="M742 220h56v-337h-570v332h57v-93h457v98zM226 303h-187v51h236q37 0 56 1v143h-189v263h58v-212h389v-51h-202v-142q191 7 312 27v-47q-190 -33 -473 -33zM284 73v-140h459v140h-459zM798 274h-55v504h55v-504z" />
<glyph unicode="&#xb1df;" d="M226 281h-187v51h237q36 0 55 1v148h-189v280h58v-229h389v-51h-202v-146q197 7 312 26v-47q-191 -33 -473 -33zM159 -129l-33 46q154 32 239.5 107.5t85.5 180.5h60q0 -40 -14 -84q36 -71 123.5 -127t198.5 -76l-33 -47q-107 23 -189 75t-125 123q-45 -70 -126.5 -122 t-186.5 -76zM798 778v-605h-55v605h55z" />
<glyph unicode="&#xb1e8;" d="M759 361v-51h-139v-252h246v-50h-844v50h290v252h-134v413h59v-362h522zM369 58h194v252h-194v-252z" />
<glyph unicode="&#xb1e9;" d="M285 479h-122v299h59v-248h522v-51h-133v-154h266v-50h-865v50h273v154zM731 156v-290h-57v240h-532v50h589zM342 325h212v154h-212v-154z" />
<glyph unicode="&#xb1ec;" d="M285 466h-122v312h59v-261h522v-51h-133v-171h266v-50h-865v50h273v171zM216 -66h534v-51h-592v260h58v-209zM342 295h212v171h-212v-171z" />
<glyph unicode="&#xb1f0;" d="M285 525h-123v253h59v-203h523v-50h-133v-127h266v-49h-865v49h273v127zM757 -78v-49h-600v212h519v109h-519v49h575v-205h-519v-116h544zM342 398h212v127h-212v-127z" />
<glyph unicode="&#xb1f9;" d="M731 238v-355h-573v355h57v-110h459v110h57zM285 508h-122v270h59v-219h522v-51h-133v-140h266v-50h-865v50h273v140zM214 -67h461v146h-461v-146zM342 368h212v140h-212v-140z" />
<glyph unicode="&#xb1fb;" d="M285 487h-122v291h59v-240h522v-51h-133v-166h266v-50h-865v50h273v166zM127 -129l-33 46q157 34 246 109.5t89 182.5h60q0 -45 -15 -85q40 -72 130.5 -128t201.5 -78l-32 -47q-108 23 -193 76.5t-131 125.5q-44 -71 -129 -123t-194 -79zM342 321h212v166h-212v-166z" />
<glyph unicode="&#xb1fd;" d="M445 -137q-136 0 -215 47.5t-79 124.5t80 124t214 47t214 -47t80 -124t-79 -124.5t-215 -47.5zM285 486h-122v292h59v-241h522v-51h-133v-151h266v-50h-865v50h273v151zM445 -88q110 0 172 35t62 88t-60.5 87.5t-173.5 34.5t-173.5 -34.5t-60.5 -87.5t62 -88t172 -35z M342 335h212v151h-212v-151z" />
<glyph unicode="&#xb204;" d="M757 458v-52h-580v349h58v-297h522zM421 206h-399v50h844v-50h-387v-332h-58v332z" />
<glyph unicode="&#xb205;" d="M731 157v-291h-57v241h-532v50h275v152h-405v50h865v-50h-401v-152h255zM744 479h-581v299h59v-248h522v-51z" />
<glyph unicode="&#xb208;" d="M877 286h-381v-202h-59v202h-425v50h865v-50zM741 466h-578v312h59v-261h519v-51zM216 -66h534v-51h-592v261h58v-210z" />
<glyph unicode="&#xb20b;" d="M751 -67v-50h-593v295h259v141h-405v50h865v-50h-401v-141h257v-50h-519v-195h537zM741 496h-578v282h59v-231h519v-51z" />
<glyph unicode="&#xb20c;" d="M877 372h-401v-129h256v-205h-519v-116h544v-49h-600v212h519v109h-519v49h260v129h-405v50h865v-50zM741 528h-578v250h59v-199h519v-51z" />
<glyph unicode="&#xb214;" d="M877 314h-401v-140h255v-291h-573v291h259v140h-405v50h865v-50zM215 -67h459v192h-459v-192zM741 493h-578v285h59v-234h519v-51z" />
<glyph unicode="&#xb215;" d="M741 510h-578v268h59v-217h519v-51zM731 238v-355h-573v355h57v-118h459v118h57zM214 -67h461v138h-461v-138zM877 345h-401v-139h-59v139h-405v50h865v-50z" />
<glyph unicode="&#xb217;" d="M877 341h-398v-116h-59v116h-408v50h865v-50zM125 -129l-33 46q157 33 246 103.5t89 171.5h60q0 -47 -16 -83q37 -68 128.5 -119.5t204.5 -71.5l-32 -47q-109 22 -196 72t-130 118q-44 -67 -128.5 -116.5t-192.5 -73.5zM741 506h-578v272h59v-221h519v-51z" />
<glyph unicode="&#xb219;" d="M877 326h-401v-125q123 -5 193 -50.5t70 -117.5q0 -76 -79 -123t-215 -47t-215 47t-79 123q0 73 71.5 118.5t194.5 49.5v125h-405v50h865v-50zM445 -88q111 0 172.5 34t61.5 87t-60.5 86.5t-173.5 33.5t-173.5 -33.5t-60.5 -86.5t61.5 -87t172.5 -34zM741 494h-578v284 h59v-233h519v-51z" />
<glyph unicode="&#xb220;" d="M743 778h55v-909h-55v192h-225v50h225v667zM262 229h-223v51h175q310 0 478 29v-47q-135 -23 -328 -30v-343h-55v341q-15 -1 -47 -1zM581 414h-439v313h59v-262h380v-51z" />
<glyph unicode="&#xb234;" d="M503 -131q-113 52 -164 150q-50 -93 -180 -150l-40 43q207 83 194 251h56q1 -33 -6 -75q14 -47 51.5 -87.5t90.5 -66.5q65 37 100 98t29 135h54q1 -40 -7 -82q37 -109 183 -168l-40 -44q-111 48 -165 146q-46 -96 -156 -150zM215 385h-175v49h174q303 0 478 30v-46 q-130 -23 -321 -30v-183h-58v182q-66 -2 -98 -2zM798 778v-561h-55v61h-221v50h221v450h55zM567 526h-421v235h58v-185h363v-50z" />
<glyph unicode="&#xb23c;" d="M569 -116v202h-158v50h158v632h53v-884h-53zM798 -131h-54v909h54v-909zM219 -106v346h-203v50h144q227 0 365 23v-48q-102 -19 -252 -24v-347h-54zM440 422h-338v302h56v-252h282v-50z" />
<glyph unicode="&#xb258;" d="M215 215h-176v52h175q310 0 478 29v-48q-141 -22 -313 -29v-330h-58v328q-70 -2 -106 -2zM743 -131v909h55v-909h-55zM581 409h-439v318h59v-267h380v-51z" />
<glyph unicode="&#xb25c;" d="M276 311h-238v50h176q305 0 480 30v-48q-126 -22 -295 -28v-196h-58v194q-44 -2 -65 -2zM256 -62h558v-51h-615v222h57v-171zM798 778v-689h-56v689h56zM573 522v-51h-422v281h58v-230h364z" />
<glyph unicode="&#xb260;" d="M282 -71h537v-50h-593v213h516v106h-516v50h572v-204h-516v-115zM262 395h-224v49h176q305 0 480 30v-46q-128 -21 -325 -30v-110h-58v108q-17 -1 -49 -1zM573 540h-422v221h58v-172h364v-49zM798 778v-481h-56v481h56z" />
<glyph unicode="&#xb268;" d="M798 155v-272h-570v272h570zM742 106h-457v-174h457v174zM262 339h-224v51h176q285 0 480 29v-47q-128 -21 -325 -30v-139h-58v137q-17 -1 -49 -1zM573 502h-422v259h58v-208h364v-51zM798 778v-563h-56v563h56z" />
<glyph unicode="&#xb269;" d="M742 208h56v-325h-570v320h57v-85h457v90zM284 70v-138h459v138h-459zM262 353h-224v51h176q292 0 480 28v-46q-131 -23 -325 -30v-114h-58v112q-17 -1 -49 -1zM573 513h-422v248h58v-198h364v-50zM798 778v-516h-56v516h56z" />
<glyph unicode="&#xb274;" d="M757 457v-51h-580v349h58v-298h522zM641 208v-332h-56v332h-256v-332h-57v332h-250v50h844v-50h-225z" />
<glyph unicode="&#xb275;" d="M731 157v-291h-57v241h-532v50h124v154h-254v50h865v-50h-251v-154h105zM744 479h-581v299h59v-248h522v-51zM569 157v154h-246v-154h246z" />
<glyph unicode="&#xb27c;" d="M877 374h-251v-131h106v-205h-519v-116h544v-49h-600v212h519v109h-519v49h109v131h-254v50h865v-50zM741 528h-578v250h59v-199h519v-51zM569 243v131h-246v-131h246z" />
<glyph unicode="&#xb284;" d="M877 321h-251v-139h105v-299h-573v299h108v139h-254v50h865v-50zM215 -67h459v199h-459v-199zM741 496h-578v282h59v-231h519v-51zM569 182v139h-246v-139h246z" />
<glyph unicode="&#xb285;" d="M741 510h-578v268h59v-217h519v-51zM731 238v-355h-573v355h57v-118h459v118h57zM214 -67h461v138h-461v-138zM877 347h-261v-150h-57v150h-226v-150h-57v150h-264v50h865v-50z" />
<glyph unicode="&#xb289;" d="M877 328h-245v-160q109 -46 109 -135q0 -76 -80 -123t-216 -47t-216 47t-80 123q0 91 111 136v159h-248v50h865v-50zM445 -88q110 0 173 34.5t63 86.5q0 53 -61.5 86.5t-174.5 33.5t-174.5 -33.5t-61.5 -86.5q0 -52 63 -86.5t173 -34.5zM741 494h-578v284h59v-233h519 v-51zM445 200q69 0 130 -14v142h-258v-141q60 13 128 13z" />
<glyph unicode="&#xb290;" d="M757 356v-51h-577v418h59v-367h518zM22 63h844v-51h-844v51z" />
<glyph unicode="&#xb291;" d="M12 301v50h865v-50h-865zM744 479h-581v299h59v-248h522v-51zM731 162v-296h-57v246h-532v50h589z" />
<glyph unicode="&#xb294;" d="M744 465h-581v313h59v-262h522v-51zM216 -66h534v-51h-592v274h58v-223zM12 315h865v-50h-865v50z" />
<glyph unicode="&#xb298;" d="M754 517h-594v261h59v-212h535v-49zM757 -78v-49h-600v216h519v113h-519v49h575v-209h-519v-120h544zM12 411h865v-49h-865v49z" />
<glyph unicode="&#xb299;" d="M740 255v-389h-56v340h-212v49h268zM323 -127h-182v218h237v115h-237v49h293v-211h-237v-122h155q99 0 146 19v-47q-53 -21 -175 -21zM744 520h-582v258h59v-208h523v-50zM12 415h865v-49h-865v49z" />
<glyph unicode="&#xb29a;" d="M368 206h-216v49h272v-211h-216v-123h92q89 0 147 20v-47q-57 -22 -178 -22h-117v219h216v115zM687 -78v285h-155v-285h155zM742 -126h-265v381h265v-381zM744 520h-582v258h59v-208h523v-50zM12 415h865v-49h-865v49z" />
<glyph unicode="&#xb2a0;" d="M744 496h-581v282h59v-231h522v-51zM731 189v-306h-573v306h573zM215 -67h459v206h-459v-206zM12 369h865v-50h-865v50z" />
<glyph unicode="&#xb2a1;" d="M744 508h-581v270h59v-219h522v-51zM731 246v-363h-573v363h57v-115h459v115h57zM214 -67h461v149h-461v-149zM12 384h865v-50h-865v50z" />
<glyph unicode="&#xb2a3;" d="M127 -129l-33 46q157 34 246 109.5t89 182.5h60q0 -45 -15 -85q40 -72 130.5 -128t201.5 -78l-32 -47q-108 23 -193 76.5t-131 125.5q-44 -71 -129 -123t-194 -79zM744 487h-581v291h59v-240h522v-51zM12 346h865v-50h-865v50z" />
<glyph unicode="&#xb2a5;" d="M744 486h-581v292h59v-241h522v-51zM445 -137q-136 0 -215 47.5t-79 124.5t80 124t214 47t214 -47t80 -124t-79 -124.5t-215 -47.5zM445 -88q110 0 172 35t62 88t-60.5 87.5t-173.5 34.5t-173.5 -34.5t-60.5 -87.5t62 -88t172 -35zM12 357h865v-50h-865v50z" />
<glyph unicode="&#xb2a6;" d="M169 158v52h309q143 0 228 3q9 0 12.5 -6.5t-1.5 -15.5q-42 -92 -195 -177q142 -61 290 -92l-33 -50q-139 32 -312 114q-153 -73 -335 -117l-31 51q183 37 330.5 106t199.5 136q-79 -4 -250 -4h-212zM744 491h-581v287h59v-236h522v-51zM12 378h865v-50h-865v50z" />
<glyph unicode="&#xb2aa;" d="M649 -67h121v-50h-649v50h123l-4 219h-109v50h625v-50h-102zM296 152l4 -219h293l5 219h-302zM744 499h-581v279h59v-228h522v-51zM12 377h865v-50h-865v50z" />
<glyph unicode="&#xb2ac;" d="M578 339h-437v370h58v-318h379v-52zM743 778h55v-909h-55v909zM227 88h-190v50h189q283 0 475 29v-47q-185 -32 -474 -32z" />
<glyph unicode="&#xb2b0;" d="M587 448h-438v304h58v-253h380v-51zM797 778v-676h-55v676h55zM226 262h-193v51h192q291 0 475 32v-47q-207 -36 -474 -36zM269 -62h544v-51h-601v243h57v-192z" />
<glyph unicode="&#xb2b4;" d="M587 512h-438v249h58v-200h380v-49zM798 304h-55v474h55v-474zM227 361h-193v49h192q291 0 475 32v-45q-207 -36 -474 -36zM282 -71h537v-50h-593v216h516v110h-516v50h572v-208h-516v-118z" />
<glyph unicode="&#xb2c8;" d="M302 134h-218v573h57v-521h174q196 0 342 42v-51q-154 -43 -355 -43zM775 -131h-58v909h58v-909z" />
<glyph unicode="&#xb2c9;" d="M304 341h-218v406h59v-354h172q183 0 341 41v-50q-154 -43 -354 -43zM774 244h-57v534h57v-534zM774 183v-317h-56v266h-519v51h575z" />
<glyph unicode="&#xb2cc;" d="M304 313h-218v425h59v-373h172q197 0 341 41v-50q-154 -43 -354 -43zM774 133h-57v645h57v-645zM290 -61h499v-52h-556v269h57v-217z" />
<glyph unicode="&#xb2d0;" d="M86 747h59v-300h172q200 0 341 37v-48q-142 -40 -354 -40h-218v351zM774 340h-57v438h57v-438zM268 -71h527v-50h-583v231h506v121h-506v50h562v-219h-506v-133z" />
<glyph unicode="&#xb2d2;" d="M774 -117h-271v404h271v-404zM719 -68v306h-163v-306h163zM296 -119h-117v228h217v128h-217v50h271v-226h-215v-130h91q94 0 147 21v-49q-57 -22 -177 -22zM86 751h59v-298h172q200 0 341 37v-48q-142 -40 -354 -40h-218v349zM774 346h-57v436h57v-436z" />
<glyph unicode="&#xb2d8;" d="M304 366h-218v381h59v-329h172q193 0 341 42v-50q-156 -44 -354 -44zM774 281h-57v497h57v-497zM219 221h555v-338h-555v338zM276 -66h442v236h-442v-236z" />
<glyph unicode="&#xb2d9;" d="M86 747h59v-319h172q193 0 341 37v-48q-142 -40 -354 -40h-218v370zM774 326h-57v452h57v-452zM718 267h56v-384h-555v379h57v-117h442v122zM275 95v-161h444v161h-444z" />
<glyph unicode="&#xb2db;" d="M304 336h-218v411h59v-359h172q197 0 341 41v-50q-154 -43 -354 -43zM161 -129l-35 47q155 37 240 120.5t85 201.5h60q0 -44 -14 -92q36 -80 124 -142.5t199 -86.5l-34 -48q-106 26 -188.5 84t-125.5 136q-42 -77 -123.5 -134.5t-187.5 -85.5zM774 179h-57v599h57v-599z " />
<glyph unicode="&#xb2dd;" d="M304 353h-218v394h59v-342h172q183 0 341 41v-50q-154 -43 -354 -43zM774 256h-57v522h57v-522zM479 -137q-135 0 -213.5 52t-78.5 135q0 82 78.5 133t213.5 51t213.5 -51t78.5 -133q0 -83 -78.5 -135t-213.5 -52zM479 -87q110 0 171 39t61 97q0 59 -60 97t-172 38 t-172 -38t-60 -97q0 -58 61 -97t171 -39z" />
<glyph unicode="&#xb2e2;" d="M86 747h59v-341h172q193 0 341 37v-48q-142 -40 -354 -40h-218v392zM774 278h-57v500h57v-500zM666 -66h132v-51h-622v51h125l-4 233h-111v51h598v-51h-113zM353 167l4 -233h254l5 233h-263z" />
<glyph unicode="&#xb2e4;" d="M250 113h-175v584h415v-49h-359v-483h134q191 0 349 39v-48q-140 -43 -364 -43zM724 432h164v-53h-164v-510h-56v909h56v-346z" />
<glyph unicode="&#xb2e5;" d="M256 324h-188v410h413v-51h-355v-308h144q197 0 350 35v-48q-139 -38 -364 -38zM729 567h151v-51h-151v-266h-56v528h56v-211zM729 190v-324h-56v273h-509v51h565z" />
<glyph unicode="&#xb2e6;" d="M256 329h-188v405h413v-51h-355v-303h144q193 0 350 36v-49q-139 -38 -364 -38zM729 573h151v-52h-151v-265h-56v522h56v-205zM729 195v-329h-56v278h-210v51h266zM419 195v-329h-56v278h-226v51h282z" />
<glyph unicode="&#xb2e8;" d="M256 299h-188v429h413v-51h-355v-327h144q193 0 350 36v-49q-139 -38 -364 -38zM729 542h151v-52h-151v-377h-56v665h56v-236zM246 -61h498v-52h-555v271h57v-219z" />
<glyph unicode="&#xb2eb;" d="M256 331h-188v403h413v-51h-355v-301h144q193 0 350 36v-49q-139 -38 -364 -38zM729 566h151v-52h-151v-245h-56v509h56v-212zM748 -66v-51h-562v326h545v-53h-488v-222h505z" />
<glyph unicode="&#xb2ec;" d="M256 378h-188v356h413v-50h-355v-256h144q189 0 350 33v-48q-147 -35 -364 -35zM729 582h151v-52h-151v-204h-56v452h56v-196zM233 -71h517v-50h-573v222h496v120h-496v50h552v-218h-496v-124z" />
<glyph unicode="&#xb2ed;" d="M256 382h-188v352h413v-50h-355v-252h144q189 0 350 33v-48q-147 -35 -364 -35zM729 582h151v-52h-151v-202h-56v450h56v-196zM729 275v-409h-56v359h-207v50h263zM325 -121h-172v222h220v124h-220v50h276v-222h-220v-124h145q92 0 146 21v-48q-58 -23 -175 -23z" />
<glyph unicode="&#xb2ee;" d="M256 382h-188v352h413v-50h-355v-252h144q189 0 350 33v-48q-147 -35 -364 -35zM729 582h151v-52h-151v-202h-56v450h56v-196zM729 -119h-265v395h265v-395zM674 -70v297h-157v-297h157zM256 -121h-113v225h214v122h-214v50h268v-220h-212v-127h87q94 0 148 21v-49 q-58 -22 -178 -22z" />
<glyph unicode="&#xb2ef;" d="M729 -119h-275v396h54v-134h166v137h55v-399zM674 -71v167h-166v-167h166zM249 -121h-112v225h208v122h-208v50h262v-220h-206v-127h87q92 0 146 21v-49q-58 -22 -177 -22zM256 382h-188v352h413v-50h-355v-252h144q189 0 350 33v-48q-147 -35 -364 -35zM729 582h151v-52 h-151v-202h-56v450h56v-196z" />
<glyph unicode="&#xb2f3;" d="M414 56h-214v-127h93q101 0 150 20v-49q-67 -21 -181 -21h-117v224h214v123h-214v50h269v-220zM780 182v-46h-337v46h337zM707 284v-49h-196v49h196zM611 99q65 0 104 -33t39 -85q0 -54 -39 -87t-104 -33t-104 33t-39 87q0 52 39 85t104 33zM611 55q-42 0 -66.5 -21 t-24.5 -53q0 -34 24 -55t67 -21t67 21t24 55q0 32 -24.5 53t-66.5 21zM256 382h-188v352h413v-50h-355v-252h144q189 0 350 33v-48q-147 -35 -364 -35zM729 582h151v-52h-151v-202h-56v450h56v-196z" />
<glyph unicode="&#xb2f4;" d="M256 341h-188v393h413v-51h-355v-291h144q193 0 350 36v-48q-143 -39 -364 -39zM729 586h151v-52h-151v-265h-56v509h56v-192zM184 209h545v-326h-545v326zM241 -66h432v224h-432v-224z" />
<glyph unicode="&#xb2f5;" d="M256 351h-188v383h413v-50h-355v-283h144q201 0 350 34v-48q-130 -36 -364 -36zM729 582h151v-52h-151v-226h-56v474h56v-196zM673 246h56v-363h-545v357h57v-108h432v114zM240 82v-148h434v148h-434z" />
<glyph unicode="&#xb2f7;" d="M256 315h-188v419h413v-51h-355v-317h144q197 0 350 35v-48q-139 -38 -364 -38zM145 -129l-34 46q156 36 240.5 117.5t84.5 195.5h60q0 -43 -14 -90q36 -78 123 -138t199 -84l-33 -47q-106 24 -188.5 81t-125.5 133q-43 -75 -125 -131.5t-187 -82.5zM729 553h151v-53 h-151v-331h-56v609h56v-225z" />
<glyph unicode="&#xb2f8;" d="M467 -130q-109 60 -165 181q-51 -116 -179 -181l-41 43q209 92 195 309h56q1 -43 -7 -91q33 -122 143 -193q67 49 101 123.5t28 164.5h54q1 -45 -7 -96q18 -64 66 -120.5t118 -90.5l-41 -45q-110 57 -167 174q-46 -112 -154 -178zM256 341h-188v393h413v-51h-355v-291 h144q193 0 350 36v-48q-143 -39 -364 -39zM729 586h151v-52h-151v-258h-56v502h56v-192z" />
<glyph unicode="&#xb2f9;" d="M257 331h-188l-1 403h413v-51h-355l1 -301h144q163 0 349 42v-48q-163 -45 -363 -45zM729 567h151v-51h-151v-279h-56v541h56v-211zM448 -137q-136 0 -213.5 49.5t-77.5 129.5t78.5 128t212.5 48t212.5 -48t78.5 -128t-77.5 -129.5t-213.5 -49.5zM448 -88q110 0 170.5 36 t60.5 92q0 57 -59.5 92.5t-171.5 35.5t-171.5 -35.5t-59.5 -92.5q0 -56 60.5 -92t170.5 -36z" />
<glyph unicode="&#xb2fa;" d="M198 161v51h348q70 0 163 3q9 0 12.5 -6.5t-1.5 -15.5q-34 -93 -190 -180q108 -49 294 -92l-32 -50q-199 53 -315 115q-134 -66 -327 -117l-30 51q179 39 328 108t194 137q-76 -4 -240 -4h-204zM256 336h-188v398h413v-51h-355v-296h144q193 0 350 36v-48 q-143 -39 -364 -39zM729 586h151v-52h-151v-258h-56v502h56v-192z" />
<glyph unicode="&#xb2fb;" d="M203 112v48h329q70 0 163 3q9 0 12.5 -6.5t-1.5 -15.5q-50 -82 -169 -143q142 -55 277 -75l-27 -50q-143 22 -307 98q-131 -56 -332 -99l-30 48q168 29 307.5 80t195.5 117q-69 -5 -194 -5h-224zM256 362h-188v372h413v-50h-355v-272h144q189 0 350 33v-48 q-147 -35 -364 -35zM729 599h151v-53h-151v-252h-56v484h56v-179zM577 233h-276v50h276v-50z" />
<glyph unicode="&#xb2ff;" d="M764 183v-47h-631v47h631zM591 292v-49h-297v49h297zM448 -142q-122 0 -192 29.5t-70 85.5t68.5 85t193.5 29t193.5 -29t68.5 -85t-70 -85.5t-192 -29.5zM448 -96q94 0 147 18t53 51q0 68 -200 68t-200 -68q0 -33 53 -51t147 -18zM256 375h-188v359h413v-50h-355v-259 h144q189 0 350 33v-48q-147 -35 -364 -35zM729 599h151v-53h-151v-252h-56v484h56v-179z" />
<glyph unicode="&#xb300;" d="M166 121h-99v576h312v-50h-257v-477h57q156 0 292 36v-46q-125 -39 -305 -39zM734 778h55v-909h-55v514h-168v-491h-54v876h54v-335h168v345z" />
<glyph unicode="&#xb301;" d="M177 303h-100v429h315v-49h-260v-331h59q165 0 294 34v-47q-128 -36 -308 -36zM742 778h55v-536h-55v260h-151v-260h-54v526h54v-216h151v226zM797 181v-315h-56v264h-535v51h591z" />
<glyph unicode="&#xb304;" d="M177 287h-100v439h315v-49h-260v-341h59q165 0 294 34v-47q-128 -36 -308 -36zM742 778h55v-665h-55v378h-151v-358h-54v635h54v-227h151v237zM298 -61h515v-52h-572v271h57v-219z" />
<glyph unicode="&#xb308;" d="M177 363h-100v369h315v-48h-260v-273h59q158 0 294 32v-46q-125 -34 -308 -34zM742 778h55v-458h-55v211h-151v-211h-54v448h54v-188h151v198zM278 -71h540v-50h-596v219h519v113h-519v50h575v-211h-519v-121z" />
<glyph unicode="&#xb310;" d="M177 331h-100v401h315v-49h-260v-303h59q165 0 294 34v-47q-116 -36 -308 -36zM742 778h55v-504h-55v242h-151v-242h-54v494h54v-203h151v213zM227 214h570v-331h-570v331zM283 -67h458v230h-458v-230z" />
<glyph unicode="&#xb311;" d="M178 339h-101v393h315v-48h-260v-297h60q154 0 294 31v-45q-126 -34 -308 -34zM742 778h55v-479h-55v219h-151v-219h-54v469h54v-201h151v211zM741 240h56v-357h-570v352h56v-98h458v103zM282 87v-154h460v154h-460z" />
<glyph unicode="&#xb313;" d="M742 778h55v-601h-55v336h-151v-233h-54v488h54v-205h151v215zM177 306h-100v426h315v-49h-260v-328h59q165 0 294 34v-47q-128 -36 -308 -36zM162 -129l-34 46q156 35 240 113.5t84 189.5h61q0 -43 -14 -88q36 -75 123.5 -133.5t198.5 -80.5l-33 -47q-106 24 -188.5 79 t-125.5 129q-43 -73 -124.5 -127.5t-187.5 -80.5z" />
<glyph unicode="&#xb314;" d="M487 -130q-115 60 -167 174q-49 -106 -180 -174l-38 43q208 97 195 299h55q1 -42 -7 -87q33 -122 144 -191q66 46 100.5 120.5t28.5 161.5h53q1 -45 -7 -93q16 -62 63 -115.5t122 -88.5l-44 -45q-111 54 -165 167q-47 -110 -153 -171zM742 778h55v-512h-55v247h-151v-247 h-54v502h54v-205h151v215zM177 326h-100v406h315v-49h-260v-308h59q165 0 294 34v-47q-116 -36 -308 -36z" />
<glyph unicode="&#xb315;" d="M177 317h-100v415h315v-49h-260v-317h59q165 0 294 34v-47q-128 -36 -308 -36zM742 778h55v-549h-55v281h-151v-233h-54v491h54v-208h151v218zM493 -136q-139 0 -220 50t-81 128q0 79 81 127.5t220 48.5t220 -48.5t81 -127.5q0 -78 -81 -128t-220 -50zM492 -87 q113 0 177 37.5t64 91.5t-63 90.5t-178 36.5t-177 -36.5t-62 -90.5t63 -91.5t176 -37.5z" />
<glyph unicode="&#xb31c;" d="M878 311v-51h-154v-391h-56v909h56v-189h154v-51h-154v-227h154zM250 113h-175v584h415v-49h-359v-483h134q191 0 349 39v-48q-140 -43 -364 -43z" />
<glyph unicode="&#xb354;" d="M255 103h-171v595h410v-49h-352v-495h126q189 0 341 40v-48q-135 -43 -354 -43zM718 -131v522h-263v49h263v338h56v-909h-56z" />
<glyph unicode="&#xb355;" d="M268 298h-187v436h411v-51h-353v-334h143q199 0 344 34v-48q-133 -37 -358 -37zM718 235v264h-255v49h255v230h56v-543h-56zM774 175v-309h-56v258h-519v51h575z" />
<glyph unicode="&#xb356;" d="M774 180v-314h-56v263h-224v51h280zM450 180v-314h-55v263h-224v51h279zM268 302h-187v432h411v-51h-353v-330h143q199 0 344 34v-48q-133 -37 -358 -37zM718 240v261h-255v49h255v228h56v-538h-56z" />
<glyph unicode="&#xb358;" d="M268 283h-187v445h411v-51h-353v-343h143q195 0 344 34v-47q-138 -38 -358 -38zM718 113v380h-255v50h255v235h56v-665h-56zM280 -61h509v-52h-566v262h57v-210z" />
<glyph unicode="&#xb35b;" d="M268 315h-187v419h411v-51h-353v-317h143q199 0 344 34v-48q-134 -37 -358 -37zM718 259v248h-255v49h255v222h56v-519h-56zM792 -66v-51h-571v316h555v-53h-498v-212h514z" />
<glyph unicode="&#xb35c;" d="M268 363h-187v371h411v-50h-353v-271h143q193 0 344 32v-48q-139 -34 -358 -34zM718 330v199h-255v50h255v199h56v-448h-56zM268 -71h527v-50h-583v222h506v120h-506v50h562v-218h-506v-124z" />
<glyph unicode="&#xb35e;" d="M774 -117h-271v392h271v-392zM719 -68v294h-163v-294h163zM296 -119h-117v222h217v122h-217v50h271v-220h-215v-124h91q94 0 147 21v-49q-57 -22 -177 -22zM268 363h-187v371h411v-50h-353v-271h143q193 0 344 32v-48q-139 -34 -358 -34zM718 334v194h-255v50h255v200h56 v-444h-56z" />
<glyph unicode="&#xb35f;" d="M774 -117h-281v392h54v-132h172v137h55v-397zM719 -69v165h-172v-165h172zM289 -119h-116v222h211v122h-211v50h265v-220h-209v-124h91q90 0 145 21v-49q-57 -22 -176 -22zM268 363h-187v371h411v-50h-353v-271h143q193 0 344 32v-48q-139 -34 -358 -34zM718 334v194 h-255v50h255v200h56v-444h-56z" />
<glyph unicode="&#xb364;" d="M268 323h-187v411h411v-51h-353v-309h143q199 0 344 34v-48q-134 -37 -358 -37zM718 275v237h-255v50h255v216h56v-503h-56zM219 215h555v-332h-555v332zM276 -66h442v230h-442v-230z" />
<glyph unicode="&#xb365;" d="M268 339h-187v395h411v-50h-353v-295h143q193 0 344 32v-48q-141 -34 -358 -34zM718 314v201h-255v50h255v213h56v-464h-56zM718 256h56v-373h-555v367h57v-107h442v113zM275 93v-159h444v159h-444z" />
<glyph unicode="&#xb367;" d="M268 303h-187v431h411v-51h-353v-329h143q199 0 344 34v-48q-134 -37 -358 -37zM165 -129l-34 46q156 36 240.5 117.5t84.5 195.5h60q0 -43 -14 -90q36 -78 123 -138t199 -84l-33 -47q-106 24 -188.5 81t-125.5 133q-43 -75 -125 -131.5t-187 -82.5zM718 169v330h-255v50 h255v229h56v-609h-56z" />
<glyph unicode="&#xb369;" d="M485 -137q-135 0 -214.5 51.5t-79.5 132.5q0 80 80 130.5t214 50.5t214 -50.5t80 -130.5q0 -81 -79.5 -132.5t-214.5 -51.5zM485 -88q110 0 172 38.5t62 94.5q0 57 -61.5 95t-172.5 38t-172.5 -38t-61.5 -95q0 -56 62 -94.5t172 -38.5zM268 323h-187v411h411v-51h-353 v-309h143q199 0 344 34v-48q-134 -37 -358 -37zM718 256v256h-255v50h255v216h56v-522h-56z" />
<glyph unicode="&#xb36b;" d="M231 100v48h329q70 0 163 3q9 0 12.5 -6.5t-1.5 -15.5q-43 -81 -170 -144q102 -36 278 -62l-25 -50q-191 29 -314 86q-131 -52 -329 -87l-28 48q166 22 307.5 70.5t195.5 114.5q-69 -5 -194 -5h-224zM268 344h-187v390h411v-50h-353v-290h143q193 0 344 32v-48 q-139 -34 -358 -34zM718 296v222h-255v50h255v210h56v-482h-56zM615 215h-276v50h276v-50z" />
<glyph unicode="&#xb36e;" d="M667 -66h131v-51h-622v51h125l-4 226h-111v51h598v-51h-113zM353 160l4 -226h253l4 226h-261zM268 322h-187v412h411v-51h-353v-310h143q199 0 344 34v-48q-134 -37 -358 -37zM718 271v241h-255v50h255v216h56v-507h-56z" />
<glyph unicode="&#xb370;" d="M160 108h-93v589h313v-50h-258v-488h51q159 0 286 35v-48q-117 -38 -299 -38zM734 778h55v-909h-55v909zM329 447h207v321h54v-876h-54v504h-207v51z" />
<glyph unicode="&#xb371;" d="M189 297h-112v435h327v-48h-272v-339h69q147 0 285 33v-46q-116 -35 -297 -35zM742 778h55v-541h-55v541zM356 554h198v214h54v-531h-54v269h-198v48zM797 176v-310h-56v259h-535v51h591z" />
<glyph unicode="&#xb374;" d="M189 285h-112v441h327v-49h-272v-343h69q158 0 285 34v-48q-116 -35 -297 -35zM742 778h55v-665h-55v665zM356 539h198v229h54v-635h-54v357h-198v49zM298 -61h515v-52h-572v270h57v-218z" />
<glyph unicode="&#xb378;" d="M189 357h-112v375h327v-47h-272v-281h69q156 0 285 31v-45q-125 -33 -297 -33zM742 778h55v-466h-55v466zM356 576h198v192h54v-456h-54v218h-198v46zM278 -71h540v-50h-596v215h519v109h-519v50h575v-207h-519v-117z" />
<glyph unicode="&#xb380;" d="M189 321h-112v411h327v-48h-272v-315h69q147 0 285 33v-46q-116 -35 -297 -35zM742 778h55v-512h-55v512zM356 561h198v207h54v-502h-54v247h-198v48zM227 206h570v-323h-570v323zM283 -67h458v222h-458v-222z" />
<glyph unicode="&#xb381;" d="M189 331h-112v401h327v-47h-272v-307h69q160 0 285 30v-44q-125 -33 -297 -33zM742 778h55v-486h-55v486zM356 559h198v209h54v-476h-54v219h-198v48zM741 233h56v-350h-570v345h56v-97h458v102zM282 81v-148h460v148h-460z" />
<glyph unicode="&#xb383;" d="M189 301h-112v431h327v-48h-272v-335h69q147 0 285 33v-46q-116 -35 -297 -35zM162 -129l-34 46q156 35 240 113.5t84 189.5h61q0 -43 -14 -88q36 -75 123.5 -133.5t198.5 -80.5l-33 -47q-106 24 -188.5 79t-125.5 129q-43 -73 -124.5 -127.5t-187.5 -80.5zM356 551h198 v217h54v-488h-54v223h-198v48zM742 778h55v-601h-55v601z" />
<glyph unicode="&#xb384;" d="M487 -130q-115 60 -167 174q-49 -106 -180 -174l-38 43q208 97 195 299h55q1 -42 -7 -87q33 -122 144 -191q66 46 100.5 120.5t28.5 161.5h53q1 -45 -7 -93q16 -62 63 -115.5t122 -88.5l-44 -45q-111 54 -165 167q-47 -110 -153 -171zM189 314h-112v418h327v-48h-272 v-322h69q147 0 285 33v-46q-116 -35 -297 -35zM356 558h198v210h54v-507h-54v249h-198v48zM742 778h55v-517h-55v517z" />
<glyph unicode="&#xb385;" d="M189 314h-112v418h327v-48h-272v-322h69q147 0 285 33v-46q-116 -35 -297 -35zM742 778h55v-549h-55v549zM356 558h198v210h54v-491h-54v233h-198v48zM493 -136q-139 0 -220 49.5t-81 126.5q0 79 80.5 126.5t220.5 47.5t220.5 -47.5t80.5 -126.5q0 -77 -81 -126.5 t-220 -49.5zM492 -87q113 0 176.5 36.5t63.5 90.5t-62.5 89.5t-177.5 35.5t-177 -35.5t-62 -89.5t63 -90.5t176 -36.5z" />
<glyph unicode="&#xb38c;" d="M774 -131h-56v412h-260v50h260v163h-260v50h260v234h56v-909zM255 98h-171v600h410v-49h-352v-500h126q189 0 341 40v-48q-135 -43 -354 -43z" />
<glyph unicode="&#xb390;" d="M718 450v105h-247v48h247v175h56v-665h-56v288h-247v49h247zM268 258h-187v470h411v-51h-353v-368h143q195 0 344 34v-47q-138 -38 -358 -38zM280 -61h509v-52h-566v252h57v-200z" />
<glyph unicode="&#xb394;" d="M718 505v78h-247v45h247v150h56v-471h-56v152h-247v46h247zM268 330h-187v404h411v-50h-353v-304h143q193 0 344 32v-48q-139 -34 -358 -34zM268 -71h527v-50h-583v212h506v107h-506v50h562v-205h-506v-114z" />
<glyph unicode="&#xb3a0;" d="M268 278h-187v456h411v-51h-353v-354h143q199 0 344 34v-48q-134 -37 -358 -37zM490 -131q-115 59 -169 171q-52 -108 -184 -171l-35 43q100 44 151.5 116t44.5 169h55q1 -39 -7 -84q15 -53 53.5 -103t92.5 -79q68 45 101.5 115t27.5 155h53q2 -54 -8 -94 q38 -124 183 -189l-41 -46q-109 52 -165 160q-46 -104 -153 -163zM718 467v100h-247v47h247v164h56v-539h-56v180h-247v48h247z" />
<glyph unicode="&#xb3a1;" d="M718 461v103h-247v47h247v167h56v-567h-56v202h-247v48h247zM485 -137q-137 0 -215.5 46t-78.5 125q0 78 79 123t215 45t215 -45t79 -123q0 -79 -78.5 -125t-215.5 -46zM485 -88q113 0 173.5 32.5t60.5 87.5q0 56 -60 88t-174 32t-174 -32t-60 -88q0 -55 60.5 -87.5 t173.5 -32.5zM268 273h-187v461h411v-51h-353v-359h143q199 0 344 34v-48q-134 -37 -358 -37z" />
<glyph unicode="&#xb3a8;" d="M590 -108h-54v388h-201v49h201v155h-201v49h201v235h54v-876zM160 98h-93v599h313v-50h-258v-498h51q159 0 286 35v-48q-117 -38 -299 -38zM734 778h55v-909h-55v909z" />
<glyph unicode="&#xb3ac;" d="M742 778h55v-675h-55v675zM610 123h-54v279h-185v46h185v106h-185v45h185v169h54v-645zM189 255h-112v471h327v-49h-272v-373h69q158 0 285 34v-48q-116 -35 -297 -35zM298 -61h515v-52h-572v270h57v-218z" />
<glyph unicode="&#xb3c4;" d="M411 279h-251v419h562v-52h-504v-316h510v-51h-257v-224h395v-50h-844v50h389v224z" />
<glyph unicode="&#xb3c5;" d="M413 449h-251v303h567v-52h-508v-200h514v-51h-263v-134h405v-50h-865v50h401v134zM734 155v-289h-57v239h-532v50h589z" />
<glyph unicode="&#xb3c8;" d="M413 436h-251v316h564v-52h-505v-213h511v-51h-260v-153h405v-50h-865v50h401v153zM216 -66h534v-51h-592v246h58v-195z" />
<glyph unicode="&#xb3cb;" d="M413 465h-251v287h564v-51h-505v-187h511v-49h-260v-131h405v-50h-865v50h401v131zM751 -67v-50h-593v298h575v-51h-517v-197h535z" />
<glyph unicode="&#xb3cc;" d="M413 481h-252v275h566v-51h-507v-174h513v-50h-261v-109h405v-49h-865v49h401v109zM757 -78v-49h-600v208h519v100h-519v50h575v-197h-519v-112h544z" />
<glyph unicode="&#xb3ce;" d="M413 483h-252v273h566v-51h-507v-172h513v-50h-261v-109h405v-49h-865v49h401v109zM742 -126h-265v361h265v-361zM368 186h-216v49h272v-201h-216v-114h92q89 0 147 20v-46q-57 -22 -178 -22h-117v209h216v105zM687 -79v266h-155v-266h155z" />
<glyph unicode="&#xb3d0;" d="M413 483h-252v273h566v-51h-507v-172h513v-50h-261v-109h405v-49h-865v49h401v109zM482 -131l-31 33v-7q-67 -21 -181 -21h-122v207h230v105h-230v49h286v-200h-231v-114h98q101 0 150 20v-23q86 49 127.5 134t33.5 186h57q2 -50 -6 -95q10 -70 58 -133.5t113 -93.5 l-40 -44q-99 54 -157 180q-49 -119 -155 -183z" />
<glyph unicode="&#xb3d4;" d="M731 181v-298h-573v298h573zM413 468h-251v284h564v-52h-505v-181h511v-51h-260v-134h405v-50h-865v50h401v134zM215 -67h459v199h-459v-199z" />
<glyph unicode="&#xb3d5;" d="M731 219v-336h-573v336h58v-100h458v100h57zM413 474h-251v280h564v-52h-505v-177h511v-51h-260v-132h405v-50h-865v50h401v132zM214 -67h461v138h-461v-138z" />
<glyph unicode="&#xb3d7;" d="M413 447h-251v305h564v-52h-505v-202h511v-51h-260v-140h405v-50h-865v50h401v140zM123 -129l-33 46q156 33 245.5 108t89.5 178h60q0 -42 -16 -84q38 -70 130 -125.5t203 -75.5l-32 -47q-109 23 -195 75.5t-130 123.5q-44 -70 -129.5 -122.5t-192.5 -76.5z" />
<glyph unicode="&#xb3d9;" d="M145 28q0 75 78 120t222 45t222 -45t78 -120t-78 -120t-222 -45t-222 45t-78 120zM413 459h-254v293h564v-52h-505v-191h511v-50h-257v-137h405v-50h-865v50h401v137zM206 28q0 -51 60 -83t179 -32t179 32t60 83t-60 83t-179 32t-179 -32t-60 -83z" />
<glyph unicode="&#xb3db;" d="M413 486h-252v270h566v-51h-507v-169h513v-50h-261v-121h405v-49h-865v49h401v121zM180 76v49h288q145 0 230 3q9 0 12.5 -6t-1.5 -15q-45 -72 -175 -129q127 -42 284 -61l-27 -48q-183 30 -317 84q-154 -58 -341 -85l-27 49q166 20 306 64t203 99q-79 -4 -247 -4h-188z M616 191h-334v50h334v-50z" />
<glyph unicode="&#xb3dd;" d="M413 481h-252v275h566v-51h-507v-174h513v-50h-261v-117h405v-49h-865v49h401v117zM729 74v-46h-509v-107h530v-48h-585v349h566v-49h-511v-99h509z" />
<glyph unicode="&#xb3e0;" d="M164 60h-154v50h214q44 0 67 1v203h-197v388h427v-52h-370v-284h386v-52h-189v-200q194 8 292 25v-46q-192 -33 -476 -33zM736 408h152v-50h-152v-489h-55v909h55v-370z" />
<glyph unicode="&#xb3e4;" d="M168 241h-151v50h206q40 0 61 1v138h-190v312h428v-50h-370v-212h385v-50h-195v-136q186 7 303 27v-47q-194 -33 -477 -33zM741 430v-341h-55v689h55v-296h139v-52h-139zM234 -62h523v-51h-581v257h58v-206z" />
<glyph unicode="&#xb3e8;" d="M240 -71h522v-50h-578v203h501v101h-501v50h557v-199h-501v-105zM168 320h-151v50h206q40 0 61 1v117h-190v262h430v-49h-372v-164h387v-49h-197v-115q186 7 303 27v-48q-188 -32 -477 -32zM741 510v-218h-55v486h55v-217h139v-51h-139z" />
<glyph unicode="&#xb3fc;" d="M735 778h54v-909h-54v484h-144v-461h-53v876h53v-366h144v376zM124 70h-108v49h163q39 0 60 1v213h-157v346h350v-50h-296v-248h307v-48h-150v-210q117 5 205 21v-47q-148 -27 -374 -27z" />
<glyph unicode="&#xb410;" d="M145 269h-115v49h163q35 0 53 1v139h-153v283h337v-48h-282v-187h295v-48h-141v-136q120 5 214 21v-46q-152 -28 -371 -28zM486 -131q-112 54 -167 160q-52 -105 -177 -160l-41 41q98 40 148.5 110t43.5 162h56q1 -38 -7 -83q15 -49 53 -93t93 -73q64 38 101 107.5 t31 145.5h54q1 -44 -8 -88q35 -120 181 -183l-40 -42q-108 47 -164 156q-49 -102 -157 -160zM744 778h54v-542h-54v259h-136v-259h-53v532h53v-223h136v233z" />
<glyph unicode="&#xb418;" d="M225 60h-189v50h237q35 0 53 1v203h-203v388h440v-52h-383v-284h396v-52h-193v-201q203 8 316 26v-46q-191 -33 -474 -33zM743 778h55v-909h-55v909z" />
<glyph unicode="&#xb41c;" d="M226 241h-187v50h236q36 0 55 1v144h-194v306h432v-50h-374v-206h381v-50h-189v-142q192 7 313 27v-47q-190 -33 -473 -33zM280 -62h534v-51h-591v257h57v-206zM798 778v-689h-55v689h55z" />
<glyph unicode="&#xb420;" d="M287 -71h532v-50h-588v203h511v101h-511v50h567v-199h-511v-105zM226 321h-187v50h236q36 0 55 1v119h-194v259h432v-49h-374v-161h381v-49h-189v-117q192 7 313 27v-48q-184 -32 -473 -32zM798 292h-55v486h55v-486z" />
<glyph unicode="&#xb428;" d="M798 167v-284h-570v284h570zM226 268h-187v51h236q36 0 55 1v138h-194v292h432v-50h-374v-192h381v-50h-189v-136q200 7 313 26v-47q-190 -33 -473 -33zM742 117h-457v-184h457v184zM798 227h-55v551h55v-551z" />
<glyph unicode="&#xb429;" d="M742 204h56v-321h-570v312h57v-84h457v93zM575 510v-49h-189v-127q200 7 313 26v-47q-190 -33 -473 -33h-187v52h236q36 0 55 1v128h-194v289h432v-49h-374v-191h381zM284 62v-129h459v129h-459zM798 258h-55v520h55v-520z" />
<glyph unicode="&#xb42b;" d="M226 260h-187v51h236q36 0 55 1v146h-194v292h432v-50h-374v-192h381v-50h-189v-144q200 7 313 26v-47q-190 -33 -473 -33zM169 -129l-32 46q154 32 236.5 106t82.5 177h60q0 -40 -12 -77q35 -71 123.5 -127t201.5 -78l-32 -47q-107 22 -190.5 74.5t-126.5 123.5 q-42 -70 -123 -122t-188 -76zM798 778v-610h-55v610h55z" />
<glyph unicode="&#xb434;" d="M287 283h-128v415h564v-52h-505v-312h511v-51h-120v-230h257v-50h-844v50h265v230zM344 53h208v230h-208v-230z" />
<glyph unicode="&#xb450;" d="M750 384h-582v361h576v-50h-517v-261h523v-50zM421 201h-399v50h844v-50h-387v-327h-58v327z" />
<glyph unicode="&#xb451;" d="M734 154v-288h-57v238h-532v50h268v138h-401v50h865v-50h-405v-138h262zM734 460h-570v292h564v-51h-505v-190h511v-51z" />
<glyph unicode="&#xb454;" d="M734 436h-570v316h564v-51h-505v-215h511v-50zM877 259h-391v-197h-59v197h-415v50h865v-50zM216 -66h538v-51h-596v264h58v-213z" />
<glyph unicode="&#xb458;" d="M757 -78v-49h-600v208h519v101h-519v49h256v116h-401v49h865v-49h-405v-116h260v-197h-519v-112h544zM735 490h-572v266h566v-51h-507v-166h513v-49z" />
<glyph unicode="&#xb460;" d="M731 176v-293h-573v293h255v136h-401v50h865v-50h-405v-136h259zM215 -67h459v194h-459v-194zM734 469h-570v283h564v-51h-505v-180h511v-52z" />
<glyph unicode="&#xb461;" d="M734 479h-570v275h564v-51h-505v-174h511v-50zM877 327h-405v-135h-59v135h-401v50h865v-50zM731 219v-336h-573v336h58v-107h458v107h57zM214 -67h461v131h-461v-131z" />
<glyph unicode="&#xb463;" d="M734 462h-570v290h564v-51h-505v-189h511v-50zM877 307h-399v-103h-59v103h-407v50h865v-50zM124 -129l-31 46q156 29 245 96t89 159h60q0 -43 -16 -78q38 -62 130 -110t203 -66l-30 -47q-109 20 -195.5 67.5t-131.5 112.5q-44 -64 -129 -111t-194 -69z" />
<glyph unicode="&#xb465;" d="M143 28q0 70 70.5 114.5t199.5 49.5v115h-401v50h865v-50h-405v-115q132 -5 203.5 -49.5t71.5 -114.5q0 -75 -79 -120t-223 -45t-223 45t-79 120zM204 28q0 -51 60.5 -83t180.5 -32t180.5 32t60.5 83t-60.5 83t-180.5 32t-180.5 -32t-60.5 -83zM734 472h-570v282h564v-51 h-505v-181h511v-50z" />
<glyph unicode="&#xb46c;" d="M743 778h55v-909h-55v192h-225v50h225v667zM572 460v-50h-448v311h437v-51h-380v-210h391zM262 229h-223v51h175q310 0 478 29v-47q-135 -23 -328 -30v-343h-55v341q-15 -1 -47 -1z" />
<glyph unicode="&#xb480;" d="M500 -131q-115 51 -166 149q-50 -91 -186 -149l-32 43q207 82 194 245h55q1 -30 -6 -71q15 -48 52 -90.5t91 -68.5q64 34 99.5 97t29.5 137h53q1 -39 -7 -79q37 -107 184 -166l-38 -43q-112 47 -168 143q-44 -94 -155 -147zM564 556v-47h-424v241h422v-47h-364v-147h366z M215 366h-175v50h174q303 0 478 30v-47q-119 -22 -312 -29v-171h-58v169q-72 -2 -107 -2zM798 778v-567h-55v57h-221v48h221v462h55z" />
<glyph unicode="&#xb488;" d="M570 -116v204h-168v47h168v633h53v-884h-53zM789 -131h-54v909h54v-909zM443 475v-49h-359v297h349v-49h-294v-199h304zM226 -106v350h-219v50h154q227 0 365 23v-45q-111 -21 -246 -26v-352h-54z" />
<glyph unicode="&#xb49d;" d="M494 -137q-139 0 -220 43.5t-81 112.5q0 68 81 111t220 43q138 0 220.5 -43t82.5 -111q0 -69 -82 -112.5t-221 -43.5zM493 -90q115 0 180.5 31t65.5 76t-65 76.5t-181 31.5q-114 0 -178 -31.5t-64 -76.5t64.5 -76t177.5 -31zM447 552v-46h-336v239h326v-46h-272v-147h282 zM576 213v61h-158v46h158v448h53v-555h-53zM209 370h-186v47h148q220 0 363 25v-45q-106 -19 -233 -24v-182h-54v180q-13 -1 -38 -1zM798 161h-54v617h54v-617z" />
<glyph unicode="&#xb4a4;" d="M566 462v-50h-443v309h434v-51h-377v-208h386zM269 223h-231v52h183q303 0 475 30v-49q-123 -21 -319 -30v-337h-58v335q-17 -1 -50 -1zM742 778h56v-909h-56v909z" />
<glyph unicode="&#xb4a8;" d="M587 510v-49h-448v281h438v-50h-382v-182h392zM272 302h-234v51h176q311 0 480 29v-47q-124 -22 -304 -29v-180h-58v177q-21 -1 -60 -1zM265 -62h549v-51h-606v241h57v-190zM798 778v-692h-56v692h56z" />
<glyph unicode="&#xb4ac;" d="M282 -73h537v-48h-593v195h516v98h-516v47h572v-191h-516v-101zM587 557v-46h-448v239h438v-46h-382v-147h392zM267 377h-229v50h176q305 0 480 30v-46q-122 -21 -314 -30v-121h-58v118q-19 -1 -55 -1zM742 270v508h56v-508h-56z" />
<glyph unicode="&#xb4b5;" d="M742 201h56v-318h-570v313h57v-86h457v91zM284 62v-130h459v130h-459zM587 543v-47h-448v254h438v-47h-382v-160h392zM267 346h-229v51h176q285 0 480 29v-47q-138 -23 -314 -29v-126h-58v123q-19 -1 -55 -1zM798 778v-523h-56v523h56z" />
<glyph unicode="&#xb4b7;" d="M587 524v-48h-448v274h438v-47h-382v-179h392zM158 -129l-31 46q155 29 239.5 97.5t84.5 165.5h60q0 -37 -14 -77q36 -66 123 -116t198 -70l-30 -46q-108 21 -191 69t-126 114q-42 -65 -124 -112.5t-189 -70.5zM262 319h-224v50h176q285 0 480 29v-46q-128 -21 -325 -30 v-165h-58v163q-17 -1 -49 -1zM798 778v-615h-56v615h56z" />
<glyph unicode="&#xb4b9;" d="M500 -137q-135 0 -215 45t-80 116t80 114.5t215 43.5q134 0 214.5 -44t80.5 -114q0 -71 -80 -116t-215 -45zM500 -89q111 0 174 31.5t63 78.5q0 48 -62.5 80t-174.5 32q-113 0 -175 -32t-62 -80q0 -47 62.5 -78.5t174.5 -31.5zM587 527v-48h-448v271h438v-48h-382v-175 h392zM262 332h-224v50h176q305 0 480 30v-48q-133 -22 -325 -29v-126h-58v124q-17 -1 -49 -1zM798 778v-587h-56v587h56z" />
<glyph unicode="&#xb4c0;" d="M750 384h-582v361h576v-50h-517v-261h523v-50zM651 203v-327h-56v327h-262v-327h-57v327h-254v50h844v-50h-215z" />
<glyph unicode="&#xb4c4;" d="M732 436h-570v316h564v-51h-505v-212h511v-53zM877 261h-240v-192h-58v192h-195v-192h-56v192h-316v50h865v-50zM216 -66h538v-51h-596v264h58v-213z" />
<glyph unicode="&#xb4c8;" d="M757 -78v-49h-600v208h519v100h-519v50h103v118h-248v49h865v-49h-249v-118h104v-197h-519v-112h544zM733 489h-572v267h566v-51h-507v-167h513v-49zM571 231v118h-255v-118h255z" />
<glyph unicode="&#xb4d0;" d="M731 176v-293h-573v293h104v139h-250v50h865v-50h-252v-139h106zM215 -67h459v194h-459v-194zM732 473h-570v281h564v-51h-505v-180h511v-50zM568 176v139h-249v-139h249z" />
<glyph unicode="&#xb4d5;" d="M143 27q0 89 109 133v152h-240v50h865v-50h-241v-151q111 -45 111 -134q0 -74 -79 -119t-223 -45t-223 45t-79 119zM204 27q0 -50 60.5 -82t180.5 -32t180.5 32t60.5 82t-60.5 82t-180.5 32t-180.5 -32t-60.5 -82zM732 470h-570v284h564v-51h-505v-183h511v-50zM579 178 v134h-270v-135q61 14 136 14q71 0 134 -13z" />
<glyph unicode="&#xb4dc;" d="M728 276h-568v422h562v-52h-504v-319h510v-51zM22 59h844v-51h-844v51z" />
<glyph unicode="&#xb4dd;" d="M734 456h-570v296h564v-51h-505v-194h511v-51zM734 154v-288h-57v238h-532v50h589zM877 280h-865v50h865v-50z" />
<glyph unicode="&#xb4e0;" d="M734 436h-570v316h564v-51h-505v-215h511v-50zM216 -66h538v-51h-596v264h58v-213zM877 250h-865v51h865v-51z" />
<glyph unicode="&#xb4e3;" d="M12 294v50h865v-50h-865zM751 -67v-50h-593v292h575v-49h-519v-193h537zM734 457h-570v295h564v-51h-505v-192h511v-52z" />
<glyph unicode="&#xb4e4;" d="M735 481h-572v275h566v-51h-507v-175h513v-49zM757 -78v-49h-600v208h519v101h-519v49h575v-197h-519v-112h544zM877 335h-865v50h865v-50z" />
<glyph unicode="&#xb4e6;" d="M368 186h-216v49h272v-201h-216v-114h92q89 0 147 20v-46q-57 -22 -178 -22h-117v209h216v105zM687 -79v266h-155v-266h155zM742 -126h-265v361h265v-361zM735 483h-572v273h566v-51h-507v-173h513v-49zM877 339h-865v50h865v-50z" />
<glyph unicode="&#xb4ec;" d="M734 463h-570v289h564v-50h-505v-188h511v-51zM731 176v-293h-573v293h573zM215 -67h459v194h-459v-194zM877 297h-865v51h865v-51z" />
<glyph unicode="&#xb4ed;" d="M734 479h-570v275h564v-50h-505v-176h511v-49zM731 219v-336h-573v336h58v-107h458v107h57zM214 -67h461v131h-461v-131zM877 326h-865v51h865v-51z" />
<glyph unicode="&#xb4ef;" d="M734 449h-570v305h564v-50h-505v-205h511v-50zM124 -129l-33 46q156 33 245.5 108t89.5 178h60q0 -42 -16 -84q38 -70 130 -125.5t203 -75.5l-32 -47q-109 23 -195 75.5t-130 123.5q-44 -70 -129.5 -122.5t-192.5 -76.5zM12 333h865v-50h-865v50z" />
<glyph unicode="&#xb4f1;" d="M734 460h-570v294h564v-50h-505v-195h511v-49zM145 33q0 75 79 122.5t221 47.5t221 -47.5t79 -122.5t-79 -122.5t-221 -47.5t-221 47.5t-79 122.5zM206 33q0 -51 60.5 -85.5t178.5 -34.5t178.5 34.5t60.5 85.5t-60.5 85.5t-178.5 34.5t-178.5 -34.5t-60.5 -85.5zM12 336 h865v-51h-865v51z" />
<glyph unicode="&#xb4f8;" d="M564 366v-52h-436v388h425v-52h-368v-284h379zM740 778h55v-909h-55v909zM226 79h-186v51h185q281 0 473 29v-47q-192 -33 -472 -33z" />
<glyph unicode="&#xb514;" d="M294 116h-205v581h411v-51h-353v-478h161q199 0 351 42v-50q-65 -20 -167 -32t-198 -12zM775 -131h-58v909h58v-909z" />
<glyph unicode="&#xb515;" d="M298 320h-210v414h418v-51h-360v-312h166q193 0 346 36v-47q-147 -40 -360 -40zM774 240h-57v538h57v-538zM774 180v-314h-56v263h-519v51h575z" />
<glyph unicode="&#xb518;" d="M298 299h-210v429h418v-51h-360v-327h166q197 0 346 35v-48q-139 -38 -360 -38zM774 113h-57v665h57v-665zM290 -61h499v-52h-556v260h57v-208z" />
<glyph unicode="&#xb51b;" d="M298 331l-210 4v399h418v-51h-360v-297h166q193 0 346 36v-52q-143 -39 -360 -39zM774 266h-57v512h57v-512zM792 -66v-51h-571v323h555v-53h-498v-219h514z" />
<glyph unicode="&#xb51c;" d="M298 380h-210v354h418v-50h-360v-254h166q191 0 346 33v-48q-147 -35 -360 -35zM774 331h-57v447h57v-447zM268 -71h527v-50h-583v224h506v123h-506v50h562v-221h-506v-126z" />
<glyph unicode="&#xb524;" d="M298 344h-210v390h418v-51h-360v-288h166q193 0 346 36v-48q-143 -39 -360 -39zM774 274h-57v504h57v-504zM219 214h555v-331h-555v331zM276 -66h442v229h-442v-229z" />
<glyph unicode="&#xb525;" d="M298 349h-210v385h418v-50h-360v-285h166q203 0 346 34v-47q-136 -37 -360 -37zM774 312h-57v466h57v-466zM718 254h56v-371h-555v365h57v-119h442v125zM275 79v-145h444v145h-444z" />
<glyph unicode="&#xb527;" d="M298 321h-210v413h418v-51h-360v-311h166q197 0 346 35v-48q-139 -38 -360 -38zM160 -129l-34 46q156 36 240.5 117.5t84.5 195.5h60q0 -43 -14 -90q36 -78 123 -138t199 -84l-33 -47q-106 24 -188.5 81t-125.5 133q-43 -75 -125 -131.5t-187 -82.5zM774 169h-57v609h57 v-609z" />
<glyph unicode="&#xb528;" d="M491 -130q-115 65 -167 180q-52 -113 -180 -180l-38 43q99 46 150.5 124.5t44.5 184.5h55q1 -43 -7 -90q15 -57 52 -109.5t92 -87.5q67 48 101 124.5t28 166.5h53q1 -45 -7 -96q36 -137 185 -211l-44 -45q-112 57 -165 173q-46 -112 -153 -177zM298 331h-210v403h418v-51 h-360v-301h166q193 0 346 36v-48q-143 -39 -360 -39zM774 276h-57v502h57v-502z" />
<glyph unicode="&#xb529;" d="M298 334h-210v400h418v-51h-360v-298h166q193 0 346 36v-47q-147 -40 -360 -40zM774 248h-57v530h57v-530zM480 -137q-134 0 -213 51.5t-79 131.5q0 79 79 129.5t213 50.5t213 -50.5t79 -129.5q0 -80 -79 -131.5t-213 -51.5zM480 -88q110 0 171 37.5t61 94.5t-60.5 94.5 t-171.5 37.5t-171.5 -37.5t-60.5 -94.5t61 -94.5t171 -37.5z" />
<glyph unicode="&#xb52a;" d="M215 166v52h348q70 0 163 3q9 0 12.5 -6.5t-1.5 -15.5q-44 -96 -190 -181q137 -63 293 -97l-31 -50q-154 37 -316 118q-149 -76 -327 -120l-29 51q177 37 327.5 110.5t192.5 139.5q-76 -4 -240 -4h-202zM298 341h-210v393h418v-51h-360v-291h166q193 0 346 36v-48 q-143 -39 -360 -39zM774 276h-57v502h57v-502z" />
<glyph unicode="&#xb530;" d="M302 185v-49q-60 -21 -153 -21h-110v582h237v-49h-180v-481h69q83 0 137 18zM623 198v-49q-84 -28 -218 -28h-73v576h240v-49h-183v-475h48q111 0 186 25zM735 433h153v-53h-153v-511h-55v909h55v-345z" />
<glyph unicode="&#xb531;" d="M307 394v-48q-75 -20 -183 -20h-77v408h246v-51h-191v-306h50q91 0 155 17zM626 405v-49q-81 -27 -212 -27h-77v405h240v-51h-185v-303h54q103 0 180 25zM739 567h141v-51h-141v-263h-55v525h55v-211zM739 193v-327h-56v276h-519v51h575z" />
<glyph unicode="&#xb534;" d="M307 364v-48q-75 -20 -183 -20h-77v432h246v-51h-191v-330h50q91 0 155 17zM626 375v-49q-81 -27 -212 -27h-77v429h240v-51h-185v-327h54q103 0 180 25zM739 542h141v-52h-141v-377h-55v665h55v-236zM250 -61h505v-52h-562v273h57v-221z" />
<glyph unicode="&#xb538;" d="M307 436v-47q-75 -20 -183 -20h-77v365h246v-50h-191v-265h50q91 0 155 17zM626 447v-48q-81 -27 -212 -27h-77v362h240v-50h-185v-262h54q103 0 180 25zM739 583h141v-52h-141v-209h-55v456h55v-195zM233 -71h527v-50h-583v220h506v118h-506v50h562v-216h-506v-122z" />
<glyph unicode="&#xb540;" d="M307 406v-48q-75 -20 -183 -20h-77v396h246v-51h-191v-294h50q91 0 155 17zM626 417v-49q-81 -27 -212 -27h-77v393h240v-51h-185v-291h54q103 0 180 25zM739 586h141v-52h-141v-266h-55v510h55v-192zM184 208h555v-325h-555v325zM241 -66h442v223h-442v-223z" />
<glyph unicode="&#xb541;" d="M307 411v-47q-75 -20 -183 -20h-77v390h246v-50h-191v-290h50q91 0 155 17zM626 422v-48q-81 -27 -212 -27h-77v387h240v-50h-185v-287h54q103 0 180 25zM739 582h141v-52h-141v-227h-55v475h55v-196zM683 245h56v-362h-555v356h57v-102h442v108zM240 87v-153h444v153 h-444z" />
<glyph unicode="&#xb543;" d="M155 -129l-34 46q156 36 240.5 117.5t84.5 195.5h60q0 -43 -14 -90q36 -78 123 -138t199 -84l-33 -47q-106 24 -188.5 81t-125.5 133q-43 -75 -125 -131.5t-187 -82.5zM626 387v-49q-81 -27 -212 -27h-77v423h240v-51h-185v-321h54q103 0 180 25zM307 376v-48 q-75 -20 -183 -20h-77v426h246v-51h-191v-324h50q91 0 155 17zM739 553h141v-53h-141v-331h-55v609h55v-225z" />
<glyph unicode="&#xb544;" d="M467 -130q-109 60 -165 181q-51 -116 -179 -181l-41 43q209 92 195 309h56q1 -43 -7 -91q33 -122 143 -193q67 49 101 123.5t28 164.5h54q1 -45 -7 -96q18 -64 66 -120.5t118 -90.5l-41 -45q-110 57 -167 174q-46 -112 -154 -178zM626 410v-49q-81 -27 -212 -27h-77v400 h240v-51h-185v-298h54q103 0 180 25zM307 399v-48q-75 -20 -183 -20h-77v403h246v-51h-191v-301h50q91 0 155 17zM739 586h141v-52h-141v-258h-55v502h55v-192z" />
<glyph unicode="&#xb545;" d="M307 396v-48q-75 -20 -183 -20h-77v406h246v-51h-191v-304h50q91 0 155 17zM626 407v-49q-81 -27 -212 -27h-77v403h240v-51h-185v-301h54q103 0 180 25zM739 567h141v-51h-141v-260h-55v522h55v-211zM455 -137q-135 0 -213 50.5t-78 131.5q0 80 78.5 129.5t212.5 49.5 t212.5 -49.5t78.5 -129.5q0 -81 -78 -131.5t-213 -50.5zM455 -88q110 0 170.5 37.5t60.5 93.5q0 57 -60 94t-171 37t-171 -37t-60 -94q0 -56 60.5 -93.5t170.5 -37.5z" />
<glyph unicode="&#xb54b;" d="M307 442v-47q-75 -20 -183 -20h-77v359h246v-50h-191v-259h50q91 0 155 17zM626 453v-48q-81 -27 -212 -27h-77v356h240v-50h-185v-256h54q103 0 180 25zM739 593h141v-52h-141v-245h-55v482h55v-185zM774 183v-47h-631v47h631zM601 292v-49h-297v49h297zM458 -142 q-122 0 -192 29.5t-70 85.5t68.5 85t193.5 29t193.5 -29t68.5 -85t-70 -85.5t-192 -29.5zM458 -96q94 0 147 18t53 51q0 68 -200 68t-200 -68q0 -33 53 -51t147 -18z" />
<glyph unicode="&#xb54c;" d="M266 183v-45q-48 -16 -136 -16h-65v575h187v-49h-132v-477h41q61 0 105 12zM528 199v-45q-62 -23 -159 -23h-73v566h182v-49h-127v-469h42q78 0 135 20zM740 778h54v-909h-54v524h-128v-501h-53v876h53v-324h128v334z" />
<glyph unicode="&#xb54d;" d="M348 354h45q78 0 135 20v-46q-62 -23 -159 -23h-75v427h181v-49h-127v-329zM65 300v432h186v-49h-132v-334h40q61 0 105 12v-45q-48 -16 -136 -16h-63zM749 778h53v-537h-53v258h-127v-258h-52v527h52v-219h127v229zM797 180v-314h-56v263h-545v51h601z" />
<glyph unicode="&#xb550;" d="M264 349v-45q-48 -16 -136 -16h-63v438h186v-49h-132v-340h40q61 0 105 12zM528 362v-46q-62 -23 -159 -23h-75v433h181v-49h-127v-335h45q78 0 135 20zM749 778h53v-665h-53v372h-127v-352h-52v635h52v-233h127v243zM288 -61h525v-52h-582v274h57v-222z" />
<glyph unicode="&#xb554;" d="M119 684v-275h40q61 0 105 12v-44q-48 -16 -136 -16h-63v371h186v-48h-132zM749 778h53v-448h-53v201h-127v-201h-52v438h52v-188h127v198zM268 -71h550v-50h-606v224h529v118h-529v50h585v-216h-529v-126zM294 366v366h181v-48h-127v-270h45q78 0 135 20v-45 q-62 -23 -160 -23h-74z" />
<glyph unicode="&#xb55c;" d="M369 328h-75v404h181v-49h-127v-306h45q78 0 135 20v-46q-62 -23 -159 -23zM65 323v409h186v-49h-132v-311h40q61 0 105 12v-45q-48 -16 -136 -16h-63zM749 778h53v-515h-53v253h-127v-253h-52v505h52v-203h127v213zM217 203h580v-320h-580v320zM272 -67h469v218h-469 v-218z" />
<glyph unicode="&#xb55d;" d="M348 389h45q78 0 135 20v-46q-62 -23 -159 -23h-75v392h181v-48h-127v-295zM119 684v-300h40q61 0 105 12v-45q-48 -16 -136 -16h-63v397h186v-48h-132zM749 778h53v-479h-53v220h-127v-220h-52v469h52v-200h127v210zM741 240h56v-357h-574v352h55v-98h463v103zM277 87 v-154h465v154h-465z" />
<glyph unicode="&#xb55f;" d="M749 778h53v-601h-53v327h-127v-241h-52v505h52v-215h127v225zM172 -129l-34 46q156 35 240.5 113.5t84.5 189.5h60q0 -43 -14 -88q36 -75 123.5 -133.5t198.5 -80.5l-33 -47q-106 24 -188.5 79t-125.5 129q-43 -73 -124.5 -127.5t-187.5 -80.5zM369 312h-75v420h181v-49 h-127v-322h45q78 0 135 20v-46q-62 -23 -159 -23zM65 307v425h186v-49h-132v-327h40q61 0 105 12v-45q-48 -16 -136 -16h-63z" />
<glyph unicode="&#xb560;" d="M487 -130q-115 60 -167 174q-49 -106 -180 -174l-38 43q208 97 195 299h55q1 -42 -7 -87q33 -122 144 -191q66 46 100.5 120.5t28.5 161.5h53q1 -45 -7 -93q16 -62 63 -115.5t122 -88.5l-44 -45q-111 54 -165 167q-47 -110 -153 -171zM749 778h53v-512h-53v250h-127v-250 h-52v502h52v-203h127v213zM369 328h-75v404h181v-49h-127v-306h45q78 0 135 20v-46q-62 -23 -159 -23zM65 323v409h186v-49h-132v-311h40q61 0 105 12v-45q-48 -16 -136 -16h-63z" />
<glyph unicode="&#xb561;" d="M496 -136q-138 0 -220.5 50t-82.5 127q0 78 82 126.5t221 48.5t221 -48.5t82 -126.5q0 -77 -82.5 -127t-220.5 -50zM496 -87q111 0 175 37t64 91t-62.5 90t-176.5 36t-176.5 -36t-62.5 -90t63.5 -91t175.5 -37zM369 322h-75v410h181v-49h-127v-312h45q78 0 135 20v-46 q-62 -23 -159 -23zM65 317v415h186v-49h-132v-317h40q61 0 105 12v-45q-48 -16 -136 -16h-63zM749 778h53v-552h-53v279h-127v-231h-52v494h52v-214h127v224z" />
<glyph unicode="&#xb5a0;" d="M332 168v-49q-71 -18 -162 -18h-88v596h237v-51h-180v-493h47q82 0 146 15zM668 184v-50q-80 -29 -230 -29h-75v592h230v-51h-173v-489h47q121 0 201 27zM729 -131v522h-181v49h181v338h55v-909h-55z" />
<glyph unicode="&#xb5a1;" d="M317 368v-48q-67 -21 -168 -21h-79v435h241v-51h-184v-333h46q73 0 144 18zM662 382v-49q-90 -30 -240 -30h-67v431h229v-51h-172v-329h36q131 0 214 28zM729 238v259h-176v49h176v232h55v-540h-55zM784 178v-312h-56v261h-529v51h585z" />
<glyph unicode="&#xb5a4;" d="M317 355v-48q-67 -21 -168 -21h-79v442h241v-51h-184v-340h46q73 0 144 18zM661 369v-49q-90 -30 -240 -30h-66v438h229v-51h-172v-336h35q131 0 214 28zM729 113v379h-176v50h176v236h55v-665h-55zM290 -61h509v-52h-566v282h57v-230z" />
<glyph unicode="&#xb5a8;" d="M323 425v-47q-67 -21 -168 -21h-79v377h241v-50h-184v-277h46q73 0 144 18zM668 439v-48q-90 -30 -240 -30h-67v373h229v-50h-172v-273h36q131 0 214 28zM729 315v215h-160v49h160v199h55v-463h-55zM268 -71h537v-50h-593v217h516v114h-516v50h572v-212h-516v-119z" />
<glyph unicode="&#xb5aa;" d="M784 -117h-276v382h276v-382zM729 -68v284h-168v-284h168zM300 -119h-121v217h222v117h-222v50h276v-215h-220v-119h96q93 0 147 21v-49q-57 -22 -178 -22zM323 428v-47q-67 -21 -168 -21h-79v374h241v-50h-184v-274h46q73 0 144 18zM668 442v-48q-90 -30 -240 -30h-67 v370h229v-50h-172v-270h36q131 0 214 28zM729 319v212h-160v49h160v198h55v-459h-55z" />
<glyph unicode="&#xb5ab;" d="M784 -117h-286v382h54v-127h177v132h55v-387zM729 -69v160h-177v-160h177zM295 -119h-122v217h216v117h-216v50h270v-215h-214v-119h96q93 0 145 21v-49q-57 -22 -175 -22zM323 428v-47q-67 -21 -168 -21h-79v374h241v-50h-184v-274h46q73 0 144 18zM668 442v-48 q-90 -30 -240 -30h-67v370h229v-50h-172v-270h36q131 0 214 28zM729 319v212h-160v49h160v198h55v-459h-55z" />
<glyph unicode="&#xb5b0;" d="M323 390v-48q-67 -21 -168 -21h-79v413h241v-51h-184v-311h46q73 0 144 18zM668 404v-49q-90 -30 -240 -30h-67v409h229v-51h-172v-307h36q131 0 214 28zM729 266v244h-160v49h160v219h55v-512h-55zM219 206h565v-323h-565v323zM276 -66h452v221h-452v-221z" />
<glyph unicode="&#xb5b1;" d="M323 402v-47q-67 -21 -168 -21h-79v400h241v-50h-184v-300h46q73 0 144 18zM668 416v-48q-90 -30 -240 -30h-67v396h229v-50h-172v-296h36q131 0 214 28zM729 308v211h-160v50h160v209h55v-470h-55zM728 250h56v-367h-565v361h57v-115h452v121zM275 79v-145h454v145h-454 z" />
<glyph unicode="&#xb5b3;" d="M170 -129l-34 46q156 36 240.5 117.5t84.5 195.5h60q0 -43 -14 -90q36 -78 123 -138t199 -84l-33 -47q-106 24 -188.5 81t-125.5 133q-43 -75 -125 -131.5t-187 -82.5zM668 391v-49q-90 -30 -240 -30h-67v422h229v-51h-172v-320h36q131 0 214 28zM323 377v-48 q-67 -21 -168 -21h-79v426h241v-51h-184v-324h46q73 0 144 18zM729 169v340h-160v51h160v218h55v-609h-55z" />
<glyph unicode="&#xb5b4;" d="M496 -130q-115 65 -167 180q-52 -113 -180 -180l-38 43q99 46 150.5 124.5t44.5 184.5h55q1 -43 -7 -90q15 -57 52 -109.5t92 -87.5q67 48 101 124.5t28 166.5h53q1 -45 -7 -96q36 -137 185 -211l-44 -45q-112 57 -165 173q-46 -112 -153 -177zM668 404v-49 q-90 -30 -240 -30h-67v409h229v-51h-172v-307h36q131 0 214 28zM323 390v-48q-67 -21 -168 -21h-79v413h241v-51h-184v-311h46q73 0 144 18zM729 266v244h-160v49h160v219h55v-512h-55z" />
<glyph unicode="&#xb5b5;" d="M490 -137q-135 0 -213.5 50t-78.5 130t78.5 128t213.5 48t213.5 -48t78.5 -128t-78.5 -130t-213.5 -50zM490 -88q111 0 171.5 36.5t60.5 92.5q0 57 -59.5 92.5t-172.5 35.5t-172.5 -35.5t-59.5 -92.5q0 -56 60.5 -92.5t171.5 -36.5zM323 386v-48q-67 -21 -168 -21h-79 v417h241v-51h-184v-315h46q73 0 144 18zM668 400v-49q-90 -30 -240 -30h-67v413h229v-51h-172v-311h36q131 0 214 28zM729 215v295h-160v49h160v219h55v-563h-55z" />
<glyph unicode="&#xb5bb;" d="M323 435v-47q-67 -21 -168 -21h-79v367h241v-50h-184v-267h46q73 0 144 18zM668 449v-48q-90 -30 -240 -30h-67v363h229v-50h-172v-263h36q131 0 214 28zM729 296v235h-160v50h160v197h55v-482h-55zM805 179v-47h-631v47h631zM634 288v-49h-297v49h297zM479 -142 q-121 0 -186.5 29.5t-65.5 83.5t69 83.5t193 29.5t193 -29.5t69 -83.5q0 -53 -75 -83t-197 -30zM489 -96q92 0 146 18.5t54 48.5t-51.5 48.5t-148.5 18.5t-148.5 -18.5t-51.5 -48.5t54 -48.5t146 -18.5z" />
<glyph unicode="&#xb5bc;" d="M259 161v-45q-48 -16 -136 -16h-58v597h180v-49h-125v-499h34q62 0 105 12zM523 177v-45q-62 -23 -159 -23h-75v588h184v-49h-129v-491h44q78 0 135 20zM745 778h54v-909h-54v909zM443 449h132v319h53v-876h-53v506h-132v51z" />
<glyph unicode="&#xb5bd;" d="M344 365h44q78 0 135 20v-45q-62 -23 -159 -23h-75v415h183v-49h-128v-318zM65 308v424h181v-49h-126v-326h34q62 0 105 12v-45q-48 -16 -136 -16h-58zM748 778h54v-532h-54v532zM459 555h119v213h53v-522h-53v263h-119v46zM797 185v-319h-56v267h-545v52h601z" />
<glyph unicode="&#xb5c0;" d="M259 340v-45q-48 -16 -134 -16h-60v447h180v-49h-125v-349h34q62 0 105 12zM523 356v-45q-62 -23 -159 -23h-75v438h184v-49h-129v-341h44q78 0 135 20zM748 778h54v-665h-54v665zM459 541h119v227h53v-635h-53v361h-119v47zM288 -61h525v-52h-582v282h57v-230z" />
<glyph unicode="&#xb5c4;" d="M268 -71h550v-50h-606v224h529v118h-529v50h585v-216h-529v-126zM289 364v368h183v-48h-128v-273h44q78 0 135 20v-44q-62 -23 -159 -23h-75zM120 684v-281h34q62 0 105 12v-44q-48 -16 -136 -16h-58v377h181v-48h-126zM459 563h119v205h53v-438h-53v189h-119v44z M748 778h54v-448h-54v448z" />
<glyph unicode="&#xb5cc;" d="M364 325h-75v407h183v-49h-128v-310h44q78 0 135 20v-45q-62 -23 -159 -23zM65 316v416h181v-49h-126v-318h34q62 0 105 12v-45q-48 -16 -136 -16h-58zM748 778h54v-512h-54v512zM459 558h119v210h53v-502h-53v246h-119v46zM217 206h580v-323h-580v323zM272 -67h469v221 h-469v-221z" />
<glyph unicode="&#xb5cd;" d="M344 381h44q78 0 135 20v-45q-62 -23 -159 -23h-75v399h183v-48h-128v-303zM120 684v-311h34q62 0 105 12v-45q-48 -16 -136 -16h-58v408h181v-48h-126zM748 778h54v-476h-54v476zM459 559h119v209h53v-466h-53v211h-119v46zM741 243h56v-360h-580v355h55v-119h469v124z M271 68v-135h471v135h-471z" />
<glyph unicode="&#xb5cf;" d="M162 -129l-34 46q156 35 240.5 113.5t84.5 189.5h60q0 -43 -14 -88q36 -75 123.5 -133.5t198.5 -80.5l-33 -47q-106 24 -188.5 79t-125.5 129q-43 -73 -124.5 -127.5t-187.5 -80.5zM364 310h-75v422h183v-49h-128v-325h44q78 0 135 20v-45q-62 -23 -159 -23zM65 301v431 h181v-49h-126v-333h34q62 0 105 12v-45q-48 -16 -136 -16h-58zM748 778h54v-601h-54v601zM459 557h119v211h53v-488h-53v230h-119v47z" />
<glyph unicode="&#xb5d0;" d="M487 -130q-115 60 -167 174q-49 -106 -180 -174l-38 43q208 97 195 299h55q1 -42 -7 -87q33 -122 144 -191q66 46 100.5 120.5t28.5 161.5h53q1 -45 -7 -93q16 -62 63 -115.5t122 -88.5l-44 -45q-111 54 -165 167q-47 -110 -153 -171zM364 325h-75v407h183v-49h-128v-310 h44q78 0 135 20v-45q-62 -23 -159 -23zM65 316v416h181v-49h-126v-318h34q62 0 105 12v-45q-48 -16 -136 -16h-58zM459 558h119v210h53v-502h-53v246h-119v46zM748 778h54v-512h-54v512z" />
<glyph unicode="&#xb5d1;" d="M344 365h44q78 0 135 20v-45q-62 -23 -159 -23h-75v415h183v-49h-128v-318zM65 308v424h181v-49h-126v-326h34q62 0 105 12v-45q-48 -16 -136 -16h-58zM748 778h54v-545h-54v545zM459 555h119v213h53v-487h-53v228h-119v46zM496 -136q-138 0 -220.5 51t-82.5 129 t82.5 128t220.5 50t220.5 -50t82.5 -128t-82.5 -129t-220.5 -51zM496 -87q111 0 175 38.5t64 92.5t-63 91.5t-176 37.5q-114 0 -176.5 -37.5t-62.5 -91.5t63.5 -92.5t175.5 -38.5z" />
<glyph unicode="&#xb5d8;" d="M328 153v-49q-71 -18 -162 -18h-84v611h233v-51h-176v-508h43q82 0 146 15zM662 169v-50q-80 -29 -230 -29h-73v607h228v-51h-171v-504h45q121 0 201 27zM784 -131h-55v397h-174v50h174v165h-174v50h174v247h55v-909z" />
<glyph unicode="&#xb5ec;" d="M496 -130q-115 60 -167 174q-49 -106 -180 -174l-38 43q208 97 195 299h55q1 -42 -7 -87q33 -122 144 -191q66 46 100.5 120.5t28.5 161.5h53q1 -45 -7 -93q16 -62 63 -115.5t122 -88.5l-44 -45q-111 54 -165 167q-47 -110 -153 -171zM729 467v102h-180v48h180v161h55 v-512h-55v152h-180v49h180zM665 384v-49q-88 -28 -240 -28h-67v427h229v-51h-172v-325h36q134 0 214 26zM320 372v-48q-67 -21 -168 -21h-79v431h241v-51h-184v-329h46q74 0 144 18z" />
<glyph unicode="&#xb610;" d="M768 275h-302v421h291v-52h-234v-318h245v-51zM206 271h-81v425h280v-52h-223v-322h75q87 0 163 15v-49q-82 -17 -214 -17zM422 45v201h60v-201h384v-50h-844v50h400z" />
<glyph unicode="&#xb611;" d="M755 447h-289v305h278v-52h-221v-202h232v-51zM206 443h-62v309h261v-52h-203v-206h55q87 0 163 15v-49q-82 -17 -214 -17zM413 312v101h59v-101h405v-50h-865v50h401zM731 154v-288h-57v239h-532v49h589z" />
<glyph unicode="&#xb614;" d="M755 436h-289v316h278v-52h-221v-213h232v-51zM206 432h-62v320h261v-52h-203v-217h55q87 0 163 15v-49q-82 -17 -214 -17zM413 283v121h59v-121h405v-50h-865v50h401zM216 -66h534v-51h-592v246h58v-195z" />
<glyph unicode="&#xb618;" d="M755 481h-289v275h278v-51h-221v-174h232v-50zM206 477h-62v279h261v-51h-203v-178h55q87 0 163 15v-49q-77 -16 -214 -16zM413 372v80h59v-80h405v-49h-865v49h401zM757 -79v-48h-600v206h519v104h-519v49h575v-200h-519v-111h544z" />
<glyph unicode="&#xb625;" d="M755 462h-289v290h278v-52h-221v-187h232v-51zM206 458h-62v294h261v-52h-203v-191h55q87 0 163 15v-49q-82 -17 -214 -17zM413 322v111h59v-111h405v-50h-865v50h401zM445 -137q-135 0 -213.5 48t-78.5 124q0 74 79 121.5t213 47.5t213 -47.5t79 -121.5 q0 -76 -78.5 -124t-213.5 -48zM445 -89q109 0 170.5 35.5t61.5 86.5t-61 86t-171 35t-171 -35t-61 -86t61.5 -86.5t170.5 -35.5z" />
<glyph unicode="&#xb62c;" d="M736 408h152v-50h-152v-489h-54v909h54v-370zM165 60h-154v50h207q38 0 58 1v186h57v-184q194 7 308 26v-46q-192 -33 -476 -33zM552 329h-232v373h221v-51h-164v-271h175v-51zM276 651h-161v-273h46q50 0 120 14v-49q-68 -16 -165 -16h-58v375h218v-51z" />
<glyph unicode="&#xb634;" d="M240 -71h522v-50h-578v210h501v107h-501v50h557v-205h-501v-112zM289 378v93h57v-91q183 7 300 27v-47q-194 -33 -477 -33h-151v50h208q42 0 63 1zM741 504v-199h-54v473h54v-222h139v-52h-139zM568 485h-232v265h221v-49h-164v-167h175v-49zM292 701h-161v-169h46 q50 0 120 14v-47q-68 -16 -165 -16h-58v267h218v-49z" />
<glyph unicode="&#xb648;" d="M736 778h53v-909h-53v484h-145v-461h-52v876h52v-366h145v376zM467 321h-204v356h194v-48h-139v-261h149v-47zM232 629h-137v-263h36q38 0 105 14v-45q-60 -16 -145 -16h-50v358h191v-48zM125 71h-108v49h162q18 0 58 2v156h54v-154q132 7 208 21v-46q-153 -28 -374 -28z " />
<glyph unicode="&#xb664;" d="M744 778h54v-909h-54v909zM329 111v177h57v-175q200 7 314 26v-46q-191 -33 -474 -33h-189v50h238q35 0 54 1zM606 309h-232v393h221v-51h-164v-291h175v-51zM330 651h-161v-293h46q50 0 120 14v-49q-68 -16 -165 -16h-58v395h218v-51z" />
<glyph unicode="&#xb668;" d="M280 -62h534v-51h-591v257h57v-206zM324 291v120h57v-119q198 7 319 27v-47q-190 -33 -473 -33h-187v51h233q34 0 51 1zM798 778v-694h-54v694h54zM606 435h-232v307h221v-50h-164v-207h175v-50zM330 692h-161v-209h46q50 0 120 14v-48q-68 -16 -165 -16h-58v309h218v-50 z" />
<glyph unicode="&#xb69c;" d="M766 383h-294v361h283v-50h-226v-261h237v-50zM212 379h-84v365h283v-50h-226v-265h78q87 0 163 15v-48q-82 -17 -214 -17zM487 -131h-57v335h-408v50h844v-50h-379v-335z" />
<glyph unicode="&#xb69d;" d="M731 154v-288h-57v239h-532v49h271v142h-401v50h865v-50h-405v-142h259zM755 460h-289v292h278v-52h-221v-188h232v-52zM206 456h-62v296h261v-52h-203v-192h55q87 0 163 15v-50q-82 -17 -214 -17z" />
<glyph unicode="&#xb6a0;" d="M755 434h-289v318h278v-52h-221v-214h232v-52zM206 430h-62v322h261v-52h-203v-218h55q61 0 163 20v-55q-82 -17 -214 -17zM877 259h-383v-197h-59v197h-423v50h865v-50zM216 -66h534v-51h-592v246h58v-195z" />
<glyph unicode="&#xb6a4;" d="M757 -79v-48h-600v206h519v104h-519v49h256v115h-401v49h865v-49h-405v-115h260v-200h-519v-111h544zM755 495h-289v261h278v-51h-221v-159h232v-51zM206 491h-62v265h261v-51h-203v-163h55q87 0 163 15v-50q-77 -16 -214 -16z" />
<glyph unicode="&#xb6ab;" d="M421 33h-216v-108h103q101 0 150 20v-46q-67 -21 -181 -21h-127v200h215v103h-215v49h263v122h-401v49h865v-49h-405v-153h-51v-166zM625 71q65 0 104 -29t39 -77t-39 -76t-104 -28t-104 28t-39 76t39 77t104 29zM755 497h-289v259h278v-50h-221v-158h232v-51zM206 493 h-62v263h261v-50h-203v-162h55q87 0 163 15v-50q-77 -16 -214 -16zM625 30q-42 0 -66.5 -18.5t-24.5 -46.5t24 -46t67 -18t67 18t24 46t-24.5 46.5t-66.5 18.5zM796 149v-45h-343v45h343zM721 240v-46h-196v46h196z" />
<glyph unicode="&#xb6ac;" d="M731 179v-296h-573v296h255v133h-401v50h865v-50h-405v-133h259zM215 -67h459v197h-459v-197zM755 475h-289v277h278v-52h-221v-173h232v-52zM206 471h-62v281h261v-52h-203v-177h55q87 0 163 15v-50q-82 -17 -214 -17z" />
<glyph unicode="&#xb6b1;" d="M445 -137q-135 0 -213.5 48t-78.5 124q0 70 69.5 116t190.5 52v104h-401v50h865v-50h-405v-104q122 -4 193.5 -51t71.5 -117q0 -76 -78.5 -124t-213.5 -48zM445 -89q109 0 170.5 35.5t61.5 86.5t-61 86t-171 35t-171 -35t-61 -86t61.5 -86.5t170.5 -35.5zM755 475h-289 v277h278v-52h-221v-173h232v-52zM206 471h-62v281h261v-52h-203v-177h55q87 0 163 15v-50q-82 -17 -214 -17z" />
<glyph unicode="&#xb6d4;" d="M570 -116v204h-168v47h168v633h53v-884h-53zM789 -131h-54v909h54v-909zM226 -106v350h-219v50h154q227 0 365 23v-45q-111 -21 -246 -26v-352h-54zM477 421h-204v302h194v-47h-139v-208h149v-47zM242 676h-137v-210h36q38 0 105 14v-45q-60 -16 -145 -16h-50v304h191 v-47z" />
<glyph unicode="&#xb6f0;" d="M273 222h-235v52h183q303 0 475 30v-49q-138 -23 -312 -29v-337h-58v334q-18 -1 -53 -1zM742 778h56v-909h-56v909zM606 404h-232v324h221v-51h-164v-222h175v-51zM330 677h-161v-224h46q50 0 120 14v-49q-68 -16 -165 -16h-58v326h218v-51z" />
<glyph unicode="&#xb6f4;" d="M275 -62h539v-51h-596v242h57v-191zM262 305h-224v51h176q311 0 480 29v-47q-131 -23 -325 -30v-135h-58v133q-17 -1 -49 -1zM798 778v-692h-56v692h56zM606 459h-232v283h221v-50h-164v-183h175v-50zM330 692h-161v-185h46q50 0 120 14v-48q-68 -16 -165 -16h-58v285 h218v-50z" />
<glyph unicode="&#xb6f8;" d="M282 -71h537v-50h-593v203h516v99h-516v50h572v-197h-516v-105zM262 379h-224v50h176q305 0 480 30v-46q-125 -22 -325 -31v-111h-58v109q-17 -1 -49 -1zM606 505h-232v245h221v-48h-164v-149h175v-48zM330 702h-161v-151h46q50 0 120 14v-46q-68 -16 -165 -16h-58v247 h218v-48zM798 778v-498h-56v498h56z" />
<glyph unicode="&#xb700;" d="M798 161v-278h-570v278h570zM742 112h-457v-180h457v180zM262 345h-224v50h176q279 0 480 30v-48q-133 -22 -325 -29v-139h-58v137q-17 -1 -49 -1zM606 491h-232v259h221v-50h-164v-159h175v-50zM798 778v-557h-56v557h56zM330 700h-161v-161h46q50 0 120 14v-48 q-68 -16 -165 -16h-58v261h218v-50z" />
<glyph unicode="&#xb701;" d="M742 206h56v-323h-570v318h57v-86h457v91zM284 67v-135h459v135h-459zM262 359h-224v51h176q285 0 480 29v-47q-128 -21 -325 -30v-123h-58v121q-17 -1 -49 -1zM606 501h-232v249h221v-49h-164v-151h175v-49zM330 701h-161v-153h46q50 0 120 14v-47q-68 -16 -165 -16h-58 v251h218v-49zM798 778v-518h-56v518h56z" />
<glyph unicode="&#xb705;" d="M496 -137q-138 0 -218.5 46t-80.5 118q0 71 80.5 116.5t218.5 45.5t219.5 -45.5t81.5 -116.5t-81.5 -117.5t-219.5 -46.5zM496 -90q112 0 176 33.5t64 80.5q0 49 -63 82.5t-177 33.5t-176 -33.5t-62 -82.5q0 -47 63 -80.5t175 -33.5zM262 335h-224v50h176q305 0 480 30 v-48q-133 -22 -325 -29v-129h-58v127q-17 -1 -49 -1zM798 778v-587h-56v587h56zM606 486h-232v264h221v-50h-164v-164h175v-50zM330 700h-161v-166h46q50 0 120 14v-48q-68 -16 -165 -16h-58v266h218v-50z" />
<glyph unicode="&#xb728;" d="M768 266h-302v430h291v-52h-234v-327h245v-51zM206 262h-81v434h280v-52h-223v-331h75q87 0 163 15v-49q-82 -17 -214 -17zM22 59h844v-51h-844v51z" />
<glyph unicode="&#xb729;" d="M755 442h-289v310h278v-52h-221v-206h232v-52zM206 438h-62v314h261v-52h-203v-210h55q87 0 163 15v-50q-82 -17 -214 -17zM12 279v50h865v-50h-865zM731 154v-288h-57v239h-532v49h589z" />
<glyph unicode="&#xb72c;" d="M755 430h-289v322h278v-52h-221v-218h232v-52zM206 426h-62v326h261v-52h-203v-222h55q61 0 163 20v-55q-82 -17 -214 -17zM12 248v50h865v-50h-865zM216 -66h534v-51h-592v246h58v-195z" />
<glyph unicode="&#xb72f;" d="M755 457h-289v295h278v-52h-221v-191h232v-52zM206 453h-62v299h261v-52h-203v-195h55q87 0 163 15v-50q-82 -17 -214 -17zM12 294v50h865v-50h-865zM751 -68v-49h-593v292h575v-49h-519v-194h537z" />
<glyph unicode="&#xb730;" d="M755 477h-289v279h278v-51h-221v-177h232v-51zM206 473h-62v283h261v-51h-203v-181h55q87 0 163 15v-50q-77 -16 -214 -16zM12 336v49h865v-49h-865zM757 -79v-48h-600v206h519v104h-519v49h575v-200h-519v-111h544z" />
<glyph unicode="&#xb738;" d="M755 457h-289v295h278v-52h-221v-191h232v-52zM206 453h-62v299h261v-52h-203v-195h55q87 0 163 15v-50q-82 -17 -214 -17zM12 294v50h865v-50h-865zM731 179v-296h-573v296h573zM215 -67h459v197h-459v-197z" />
<glyph unicode="&#xb739;" d="M755 467h-289v287h278v-52h-221v-183h232v-52zM206 463h-62v291h261v-52h-203v-187h55q87 0 163 15v-50q-82 -17 -214 -17zM12 310v50h865v-50h-865zM731 231v-348h-573v348h58v-100h458v100h57zM214 -67h461v150h-461v-150z" />
<glyph unicode="&#xb73b;" d="M134 -129l-33 46q156 33 245.5 108t89.5 178h60q0 -42 -16 -84q38 -70 130 -125.5t203 -75.5l-32 -47q-109 23 -195 75.5t-130 123.5q-44 -70 -129.5 -122.5t-192.5 -76.5zM12 279v50h865v-50h-865zM755 442h-289v310h278v-52h-221v-206h232v-52zM206 438h-62v314h261 v-52h-203v-210h55q87 0 163 15v-50q-82 -17 -214 -17z" />
<glyph unicode="&#xb744;" d="M606 309h-232v393h221v-51h-164v-291h175v-51zM330 651h-161v-293h46q50 0 120 14v-49q-68 -16 -165 -16h-58v395h218v-51zM743 778h55v-909h-55v909zM226 75h-189v51h188q284 0 476 29v-47q-191 -33 -475 -33z" />
<glyph unicode="&#xb748;" d="M606 435h-232v307h221v-50h-164v-207h175v-50zM330 692h-161v-209h46q50 0 120 14v-48q-68 -16 -165 -16h-58v309h218v-50zM798 778v-682h-55v682h55zM227 259h-193v50h192q285 0 475 33v-47q-207 -36 -474 -36zM265 -62h549v-51h-606v262h57v-211z" />
<glyph unicode="&#xb74c;" d="M606 489h-232v261h221v-48h-164v-165h175v-48zM330 702h-161v-167h46q50 0 120 14v-46q-68 -16 -165 -16h-58v263h218v-48zM798 300h-55v478h55v-478zM227 347h-193v48h192q285 0 475 33v-46q-201 -35 -474 -35zM282 -71h537v-50h-593v212h516v110h-516v50h572v-208h-516 v-114z" />
<glyph unicode="&#xb754;" d="M606 465h-232v285h221v-49h-164v-187h175v-49zM330 701h-161v-189h46q50 0 120 14v-47q-68 -16 -165 -16h-58v287h218v-49zM798 241h-55v537h55v-537zM227 306h-193v49h192q291 0 475 32v-45q-207 -36 -474 -36zM798 181v-298h-570v298h570zM742 131h-457v-198h457v198z " />
<glyph unicode="&#xb755;" d="M606 479h-232v271h221v-49h-164v-173h175v-49zM330 701h-161v-175h46q50 0 120 14v-47q-68 -16 -165 -16h-58v273h218v-49zM798 280h-55v498h55v-498zM227 315h-193v49h192q291 0 475 32v-45q-207 -36 -474 -36zM742 226h56v-343h-570v338h57v-93h457v98zM284 79v-146 h459v146h-459z" />
<glyph unicode="&#xb760;" d="M327 178v-49q-71 -18 -162 -18h-109v586h250v-51h-193v-483h68q82 0 146 15zM676 195v-50q-83 -30 -245 -30h-73v582h239v-51h-182v-479h60q118 0 201 28zM784 -131h-57v909h57v-909z" />
<glyph unicode="&#xb764;" d="M328 366v-48q-67 -21 -168 -21h-90v431h247v-51h-190v-329h57q74 0 144 18zM677 381v-49q-93 -31 -242 -31h-69v427h227v-51h-170v-325h38q130 0 216 29zM784 113h-57v665h57v-665zM290 -61h509v-52h-566v270h57v-218z" />
<glyph unicode="&#xb768;" d="M328 437v-47q-67 -21 -168 -21h-90v365h247v-50h-190v-265h57q74 0 144 18zM677 452v-48q-93 -31 -242 -31h-69v361h227v-50h-170v-261h38q130 0 216 29zM784 326h-57v452h57v-452zM268 -71h537v-50h-593v222h516v120h-516l1 50h572l-1 -218h-516v-124z" />
<glyph unicode="&#xb770;" d="M328 409v-48q-67 -21 -168 -21h-90v394h247v-51h-190v-292h57q74 0 144 18zM677 424v-49q-93 -31 -242 -31h-69v390h227v-51h-170v-288h38q130 0 216 29zM784 275h-57v503h57v-503zM219 215h565v-332h-565v332zM276 -66h452v230h-452v-230z" />
<glyph unicode="&#xb771;" d="M328 415v-47q-67 -21 -168 -21h-90v387h247v-50h-190v-287h57q74 0 144 18zM677 430v-48q-93 -31 -242 -31h-69v383h227v-50h-170v-283h38q130 0 216 29zM784 312h-57v466h57v-466zM728 254h56v-371h-565v365h57v-117h452v123zM275 81v-147h454v147h-454z" />
<glyph unicode="&#xb773;" d="M170 -129l-34 46q156 36 240.5 117.5t84.5 195.5h60q0 -43 -14 -90q36 -78 123 -138t199 -84l-33 -47q-106 24 -188.5 81t-125.5 133q-43 -75 -125 -131.5t-187 -82.5zM677 392v-49q-93 -31 -242 -31h-69v422h227v-51h-170v-320h38q130 0 216 29zM328 377v-48 q-67 -21 -168 -21h-90v426h247v-51h-190v-324h57q74 0 144 18zM784 169h-57v609h57v-609z" />
<glyph unicode="&#xb775;" d="M328 391v-48q-67 -21 -168 -21h-90v412h247v-51h-190v-310h57q74 0 144 18zM677 406v-49q-93 -31 -242 -31h-69v408h227v-51h-170v-306h38q130 0 216 29zM784 246h-57v532h57v-532zM487 -137q-135 0 -213.5 51t-78.5 131t78.5 129.5t213.5 49.5t213.5 -49.5t78.5 -129.5 t-78.5 -131t-213.5 -51zM487 -88q110 0 171 37.5t61 93.5q0 57 -60 94t-172 37t-172 -37t-60 -94q0 -56 61 -93.5t171 -37.5z" />
<glyph unicode="&#xb77c;" d="M458 382h-332v-238h125q198 0 358 40v-49q-159 -42 -371 -42h-169v338h332v223h-334v51h391v-323zM724 428h164v-53h-164v-506h-56v909h56v-350z" />
<glyph unicode="&#xb77d;" d="M459 485h-338v-162h129q221 0 377 41v-50q-154 -41 -390 -41h-173v261h338v154h-340v51h397v-254zM729 549h151v-52h-151v-275h-56v556h56v-229zM729 162v-296h-56v246h-509v50h565z" />
<glyph unicode="&#xb780;" d="M459 471h-338v-172h128q228 0 377 40v-50q-152 -41 -389 -41h-173v272h338v162h-340v51h397v-262zM729 522h151v-52h-151v-371h-56v679h56v-256zM256 -61h488v-52h-545v247h57v-195z" />
<glyph unicode="&#xb784;" d="M459 519h-338v-128h129q240 0 377 34v-47q-148 -37 -390 -37h-173v224h338v124h-340v50h397v-220zM729 580h151v-52h-151v-219h-56v469h56v-198zM233 -71h517v-50h-573v211h496v110h-496v50h552v-208h-496v-113z" />
<glyph unicode="&#xb78c;" d="M459 502h-338v-151h129q225 0 377 40v-50q-154 -41 -390 -41h-173v249h338v139h-340v51h397v-237zM729 566h151v-51h-151v-264h-56v527h56v-212zM184 191h545v-308h-545v308zM241 -66h432v207h-432v-207z" />
<glyph unicode="&#xb78d;" d="M459 501h-338v-147h129q240 0 377 34v-47q-148 -37 -390 -37h-173v244h338v141h-340v50h397v-238zM729 569h151v-51h-151v-231h-56v491h56v-209zM673 228h56v-345h-545v340h57v-98h432v103zM240 75v-141h434v141h-434z" />
<glyph unicode="&#xb78f;" d="M459 487h-338v-161h129q221 0 377 41v-49q-152 -42 -390 -42h-173v260h338v152h-340v51h397v-252zM144 -129l-33 46q154 32 239.5 107.5t85.5 180.5h60q0 -40 -14 -84q36 -71 123.5 -127t198.5 -76l-33 -47q-107 23 -189 75t-125 123q-45 -70 -126.5 -122t-186.5 -76z M729 553h151v-53h-151v-356h-56v634h56v-225z" />
<glyph unicode="&#xb790;" d="M459 499h-338v-159h129q225 0 377 40v-50q-154 -41 -390 -41h-173v257h338v142h-340v51h397v-240zM467 -130q-117 57 -167 166q-51 -106 -180 -166l-38 43q99 43 150.5 115t44.5 169h55q2 -44 -6 -83q13 -53 50.5 -101.5t92.5 -79.5q66 42 100.5 113.5t28.5 154.5h53 q1 -42 -7 -89q16 -58 63.5 -108.5t121.5 -85.5l-44 -44q-113 53 -165 159q-46 -104 -153 -163zM729 566h151v-51h-151v-264h-56v527h56v-212z" />
<glyph unicode="&#xb791;" d="M459 491h-338v-160h129q221 0 377 41v-50q-154 -41 -390 -41h-173v259h338v148h-340v51h397v-248zM729 555h151v-52h-151v-280h-56v555h56v-223zM450 -137q-134 0 -213 48t-79 122q0 75 79 121.5t213 46.5t213 -46.5t79 -121.5q0 -74 -79 -122t-213 -48zM450 -88 q110 0 171 34t61 85q0 52 -60.5 86t-171.5 34t-171.5 -34t-60.5 -86q0 -51 61 -85t171 -34z" />
<glyph unicode="&#xb792;" d="M459 502h-338v-151h129q225 0 377 40v-50q-154 -41 -390 -41h-173v249h338v139h-340v51h397v-237zM193 141v52h380l67 1q11 0 32.5 0.5t32.5 1.5q9 0 12.5 -6.5t-1.5 -15.5q-38 -88 -185 -167q129 -54 287 -86l-31 -50q-172 41 -313 108q-138 -65 -330 -110l-29 51 q180 35 328.5 100.5t190.5 124.5q-56 -4 -216 -4h-225zM729 566h151v-51h-151v-264h-56v527h56v-212z" />
<glyph unicode="&#xb796;" d="M459 504h-338v-160h129q240 0 377 34v-47q-148 -37 -390 -37h-173v257h338v138h-340v50h397v-235zM729 569h151v-51h-151v-267h-56v527h56v-209zM637 -66h133v-51h-623v51h125l-4 207h-110v50h597v-50h-114zM324 141l4 -207h253l5 207h-262z" />
<glyph unicode="&#xb797;" d="M459 523h-338v-126h129q240 0 377 34v-47q-148 -37 -390 -37h-173v222h338v120h-340v50h397v-216zM729 581h151v-52h-151v-258h-56v507h56v-197zM764 169v-47h-631v47h631zM591 273v-49h-297v49h297zM448 -142q-122 0 -192 28.5t-70 81.5t69 81.5t193 28.5t193 -28.5 t69 -81.5t-70 -81.5t-192 -28.5zM448 -96q93 0 146.5 17t53.5 47t-51 47t-149 17t-149 -17t-51 -47t53.5 -47t146.5 -17z" />
<glyph unicode="&#xb798;" d="M157 105h-85v329h263v217h-265v50h320v-316h-262v-230h43q175 0 313 35v-47q-128 -38 -327 -38zM734 778h55v-909h-55v529h-160v-506h-54v876h54v-320h160v330z" />
<glyph unicode="&#xb799;" d="M161 266h-81v263h261v159h-263v49h316v-257h-261v-165h42q179 0 319 35v-46q-130 -38 -333 -38zM742 778h55v-557h-55v266h-155v-266h-54v547h54v-231h155v241zM797 159v-293h-56v244h-535v49h591z" />
<glyph unicode="&#xb79c;" d="M163 251h-81v268h259v163h-261v49h314v-261h-259v-170h42q177 0 317 35v-46q-130 -38 -331 -38zM742 778h55v-673h-55v373h-155v-353h-54v643h54v-240h155v250zM298 -61h515v-52h-572v249h57v-197z" />
<glyph unicode="&#xb7a0;" d="M163 333h-81v230h259v126h-261v48h314v-222h-259v-134h42q177 0 317 35v-45q-130 -38 -331 -38zM742 778h55v-473h-55v219h-155v-219h-54v463h54v-195h155v205zM278 -71h540v-50h-596v213h519v104h-519v50h575v-201h-519v-116z" />
<glyph unicode="&#xb7a8;" d="M163 281h-81v261h259v146h-261v49h314v-244h-259v-163h42q177 0 317 35v-46q-130 -38 -331 -38zM742 778h55v-537h-55v260h-155v-260h-54v527h54v-217h155v227zM227 179h570v-296h-570v296zM283 -68h458v198h-458v-198z" />
<glyph unicode="&#xb7a9;" d="M163 307h-81v245h259v136h-261v49h314v-234h-259v-147h42q177 0 317 35v-46q-130 -38 -331 -38zM742 778h55v-497h-55v234h-155v-234h-54v487h54v-204h155v214zM741 222h56v-339h-570v334h56v-96h458v101zM282 73v-141h460v141h-460z" />
<glyph unicode="&#xb7ab;" d="M742 778h55v-626h-55v339h-155v-236h-54v513h54v-227h155v237zM163 270h-81v262h259v156h-261v49h314v-254h-259v-164h42q177 0 317 35v-46q-130 -38 -331 -38zM160 -129l-31 46q156 32 240 104t84 174h60q0 -39 -14 -81q35 -69 122.5 -123t198.5 -73l-31 -47 q-107 22 -190 72.5t-126 119.5q-43 -68 -125 -118.5t-188 -73.5z" />
</font>
</defs>
</svg>
